SplineFontDB: 3.0
FontName: LinLibertineOI
FullName: Linux Libertine O Italic
FamilyName: Linux Libertine O
Weight: Book
Copyright: Linux Libertine by Philipp H. Poll,\nOpen Font under Terms of following Free Software Licenses:\nGPL (General Public License) with font-exception and OFL (Open Font License).\nCreated with FontForge (http://fontforge.sf.net)\nSept 2003, 2004, 2005, 2006, 2007, 2008, 2009, 2010, 2011,2012
Version: 5.1.6
ItalicAngle: -12
UnderlinePosition: -200
UnderlineWidth: 80
Ascent: 1638
Descent: 410
sfntRevision: 0x00051999
LayerCount: 2
Layer: 0 1 "Back"  1
Layer: 1 1 "Fore"  0
XUID: [1021 809 1687063675 9982161]
FSType: 0
OS2Version: 3
OS2_WeightWidthSlopeOnly: 0
OS2_UseTypoMetrics: 1
CreationTime: 1155510122
ModificationTime: 1365551669
PfmFamily: 17
TTFWeight: 400
TTFWidth: 5
LineGap: 0
VLineGap: 0
Panose: 2 0 5 3 0 0 0 0 0 0
OS2TypoAscent: 1830
OS2TypoAOffset: 0
OS2TypoDescent: -504
OS2TypoDOffset: 0
OS2TypoLinegap: 0
OS2WinAscent: 1830
OS2WinAOffset: 0
OS2WinDescent: 504
OS2WinDOffset: 0
HheadAscent: 1830
HheadAOffset: 0
HheadDescent: -504
HheadDOffset: 0
OS2SubXSize: 1332
OS2SubYSize: 1434
OS2SubXOff: 60
OS2SubYOff: 286
OS2SupXSize: 1332
OS2SupYSize: 1434
OS2SupXOff: -202
OS2SupYOff: 984
OS2StrikeYSize: 100
OS2StrikeYPos: 528
OS2FamilyClass: 261
OS2Vendor: 'PfEd'
OS2CodePages: 600001bf.00000000
OS2UnicodeRanges: e0000aff.5000e0fb.00000020.00000000
Lookup: 1 0 0 "Single Substitution lookup 0"  {"Single Substitution lookup 0 subtable"  } []
Lookup: 1 0 0 "Single Substitution lookup 1"  {"Single Substitution lookup 1 subtable"  } []
Lookup: 3 0 0 "'aalt' Access All Alternates lookup 2"  {"'aalt' Access All Alternates lookup 2 subtable"  } ['aalt' ('DFLT' <'dflt' > 'cyrl' <'dflt' > 'grek' <'dflt' > 'latn' <'AZE ' 'CRT ' 'DEU ' 'MOL ' 'ROM ' 'TRK ' 'dflt' > ) ]
Lookup: 1 0 0 "'locl' Localized Forms in Latin lookup 3"  {"'locl' Localized Forms in Latin lookup 3 subtable"  } ['locl' ('latn' <'MOL ' 'ROM ' > ) ]

StartChar: .notdef
Encoding: 65536 -1 0
Width: 1024
Flags: W
LayerCount: 2
Fore
SplineSet
102 1240 m 1,0,-1
 102 194 l 1,1,-1
 450 716 l 1,2,-1
 102 1240 l 1,0,-1
164 102 m 1,3,-1
 860 102 l 1,4,-1
 512 624 l 1,5,-1
 164 102 l 1,3,-1
574 716 m 1,6,-1
 922 194 l 1,7,-1
 922 1240 l 1,8,-1
 574 716 l 1,6,-1
512 808 m 1,9,-1
 860 1332 l 1,10,-1
 164 1332 l 1,11,-1
 512 808 l 1,9,-1
0 0 m 1,12,-1
 0 1434 l 1,13,-1
 1024 1434 l 1,14,-1
 1024 0 l 1,15,-1
 0 0 l 1,12,-1
EndSplineSet
EndChar

StartChar: exclam
Encoding: 33 33 2
Width: 464
GlyphClass: 2
Flags: W
LayerCount: 2
Fore
SplineSet
180 82 m 0,0,1
 190 128 190 128 227 159 c 128,-1,2
 264 190 264 190 310 190 c 0,3,4
 348 190 348 190 375 165 c 128,-1,5
 402 140 402 140 402 100 c 0,6,7
 402 98 402 98 401 92 c 128,-1,8
 400 86 400 86 400 82 c 0,9,10
 392 36 392 36 354 5 c 128,-1,11
 316 -26 316 -26 270 -26 c 0,12,13
 232 -26 232 -26 205 -1 c 128,-1,14
 178 24 178 24 178 64 c 0,15,16
 178 66 178 66 179 72 c 128,-1,17
 180 78 180 78 180 82 c 0,0,1
516 1362 m 0,18,19
 554 1362 554 1362 581 1333 c 128,-1,20
 608 1304 608 1304 608 1252 c 0,21,22
 608 1228 608 1228 604 1212 c 0,23,24
 594 1152 594 1152 577 1095 c 128,-1,25
 560 1038 560 1038 531 959 c 128,-1,26
 502 880 502 880 482 816 c 0,27,28
 416 592 416 592 386 444 c 0,29,30
 376 404 376 404 348 404 c 0,31,32
 324 404 324 404 324 426 c 2,33,-1
 324 430 l 1,34,35
 354 742 354 742 360 816 c 0,36,37
 366 898 366 898 366 954 c 0,38,39
 366 970 366 970 365 1000 c 128,-1,40
 364 1030 364 1030 364 1044 c 0,41,42
 364 1134 364 1134 378 1212 c 0,43,44
 392 1288 392 1288 434 1325 c 128,-1,45
 476 1362 476 1362 516 1362 c 0,18,19
EndSplineSet
EndChar

StartChar: quotedbl
Encoding: 34 34 3
Width: 688
GlyphClass: 2
Flags: W
LayerCount: 2
Fore
SplineSet
596 874 m 1,0,1
 598 1200 598 1200 602 1218 c 0,2,3
 606 1254 606 1254 644 1287 c 128,-1,4
 682 1320 682 1320 724 1320 c 0,5,6
 784 1320 784 1320 784 1268 c 2,7,-1
 784 1254 l 1,8,-1
 652 882 l 1,9,-1
 596 874 l 1,0,1
336 872 m 1,10,11
 340 1198 340 1198 342 1216 c 0,12,13
 348 1252 348 1252 385 1285 c 128,-1,14
 422 1318 422 1318 466 1318 c 0,15,16
 526 1318 526 1318 526 1266 c 0,17,18
 526 1256 526 1256 524 1252 c 2,19,-1
 392 880 l 1,20,-1
 336 872 l 1,10,11
EndSplineSet
EndChar

StartChar: percent
Encoding: 37 37 4
Width: 1304
GlyphClass: 2
Flags: W
LayerCount: 2
Fore
SplineSet
900 158 m 0,0,1
 900 86 900 86 928 53 c 128,-1,2
 956 20 956 20 992 20 c 0,3,4
 1072 20 1072 20 1125 122 c 128,-1,5
 1178 224 1178 224 1178 322 c 0,6,7
 1178 392 1178 392 1148 419 c 128,-1,8
 1118 446 1118 446 1086 446 c 0,9,10
 1014 446 1014 446 957 349 c 128,-1,11
 900 252 900 252 900 158 c 0,0,1
794 186 m 0,12,13
 794 306 794 306 874 409 c 128,-1,14
 954 512 954 512 1064 512 c 0,15,16
 1138 512 1138 512 1189 469 c 128,-1,17
 1240 426 1240 426 1240 326 c 0,18,19
 1240 204 1240 204 1168 83 c 128,-1,20
 1096 -38 1096 -38 978 -38 c 0,21,22
 890 -38 890 -38 842 30 c 128,-1,23
 794 98 794 98 794 186 c 0,12,13
892 1054 m 0,24,25
 1096 1054 1096 1054 1200 1166 c 1,26,-1
 1268 1122 l 1,27,-1
 284 -28 l 1,28,-1
 208 -10 l 1,29,-1
 1086 1018 l 1,30,31
 992 980 992 980 874 978 c 0,32,33
 782 978 782 978 708 1022 c 1,34,35
 714 998 714 998 714 970 c 0,36,37
 714 852 714 852 643 730 c 128,-1,38
 572 608 572 608 454 608 c 0,39,40
 364 608 364 608 316 676 c 128,-1,41
 268 744 268 744 268 832 c 0,42,43
 268 952 268 952 349 1055 c 128,-1,44
 430 1158 430 1158 538 1158 c 0,45,46
 630 1158 630 1158 674 1106 c 1,47,48
 784 1054 784 1054 892 1054 c 0,24,25
372 802 m 0,49,50
 372 730 372 730 401 699 c 128,-1,51
 430 668 430 668 466 668 c 0,52,53
 544 668 544 668 598 768 c 128,-1,54
 652 868 652 868 652 968 c 0,55,56
 652 1036 652 1036 623 1064 c 128,-1,57
 594 1092 594 1092 560 1092 c 0,58,59
 490 1092 490 1092 431 994 c 128,-1,60
 372 896 372 896 372 802 c 0,49,50
EndSplineSet
EndChar

StartChar: ampersand
Encoding: 38 38 5
Width: 1442
GlyphClass: 2
Flags: W
LayerCount: 2
Fore
SplineSet
888 1250 m 0,0,1
 822 1250 822 1250 759 1185 c 128,-1,2
 696 1120 696 1120 696 1032 c 0,3,4
 696 970 696 970 738 844 c 1,5,6
 1000 1000 1000 1000 1000 1142 c 0,7,8
 998 1250 998 1250 888 1250 c 0,0,1
1134 1138 m 0,9,10
 1134 1036 1134 1036 1026 938 c 128,-1,11
 918 840 918 840 768 762 c 1,12,13
 772 756 772 756 783 729 c 128,-1,14
 794 702 794 702 809 672 c 128,-1,15
 824 642 824 642 864 566 c 128,-1,16
 904 490 904 490 960 390 c 1,17,18
 1236 714 1236 714 1236 788 c 0,19,20
 1236 810 1236 810 1212 812 c 2,21,-1
 1154 812 l 2,22,23
 1144 812 1144 812 1146 826 c 2,24,-1
 1154 860 l 1,25,-1
 1158 864 l 1,26,27
 1264 860 1264 860 1334 860 c 2,28,-1
 1514 864 l 1,29,-1
 1516 860 l 1,30,-1
 1510 828 l 2,31,32
 1508 812 1508 812 1488 812 c 2,33,-1
 1432 812 l 2,34,35
 1402 812 1402 812 1374 794 c 128,-1,36
 1346 776 1346 776 1311 733 c 128,-1,37
 1276 690 1276 690 1241 640 c 128,-1,38
 1206 590 1206 590 1139 498 c 128,-1,39
 1072 406 1072 406 1000 320 c 1,40,-1
 1052 228 l 1,41,42
 1086 162 1086 162 1123 127 c 128,-1,43
 1160 92 1160 92 1186 92 c 0,44,45
 1282 92 1282 92 1364 208 c 1,46,-1
 1390 192 l 1,47,48
 1338 88 1338 88 1274 35 c 128,-1,49
 1210 -18 1210 -18 1154 -18 c 0,50,51
 1116 -18 1116 -18 1087 -11 c 128,-1,52
 1058 -4 1058 -4 1017 29 c 128,-1,53
 976 62 976 62 944 122 c 1,54,-1
 898 200 l 1,55,56
 700 -20 700 -20 480 -18 c 0,57,58
 324 -18 324 -18 233 46 c 128,-1,59
 142 110 142 110 142 248 c 0,60,61
 142 404 142 404 249 525 c 128,-1,62
 356 646 356 646 602 772 c 1,63,64
 546 910 546 910 546 1000 c 0,65,66
 546 1140 546 1140 655 1229 c 128,-1,67
 764 1318 764 1318 912 1318 c 0,68,69
 1010 1318 1010 1318 1072 1269 c 128,-1,70
 1134 1220 1134 1220 1134 1138 c 0,9,10
636 696 m 1,71,72
 572 666 572 666 528 636 c 128,-1,73
 484 606 484 606 425 552 c 128,-1,74
 366 498 366 498 335 421 c 128,-1,75
 304 344 304 344 304 250 c 0,76,77
 304 148 304 148 360 100 c 128,-1,78
 416 52 416 52 506 52 c 0,79,80
 606 52 606 52 679 102 c 128,-1,81
 752 152 752 152 858 270 c 1,82,83
 658 616 658 616 636 696 c 1,71,72
EndSplineSet
Substitution2: "'salt' Stylistic Alternatives lookup 22 subtable" ampersand.alt
Substitution2: "'c2sc' Capitals to Small Capitals lookup 12 subtable" ampersand.alt
Substitution2: "'smcp' Lowercase to Small Capitals lookup 6 subtable" ampersand.alt
AlternateSubs2: "'aalt' Access All Alternates lookup 2 subtable" ampersand.alt
EndChar

StartChar: quotesingle
Encoding: 39 39 6
Width: 388
GlyphClass: 2
Flags: W
LayerCount: 2
Fore
SplineSet
316 872 m 1,0,1
 320 1198 320 1198 324 1216 c 0,2,3
 328 1252 328 1252 366 1285 c 128,-1,4
 404 1318 404 1318 446 1318 c 0,5,6
 506 1318 506 1318 506 1266 c 2,7,-1
 506 1252 l 1,8,-1
 372 880 l 1,9,-1
 316 872 l 1,0,1
EndSplineSet
EndChar

StartChar: parenleft
Encoding: 40 40 7
Width: 626
GlyphClass: 2
Flags: W
LayerCount: 2
Fore
SplineSet
222 0 m 1,0,1
 176 150 176 150 176 316 c 0,2,3
 176 408 176 408 192 516 c 1,4,5
 242 790 242 790 404 1030 c 1,6,7
 568 1280 568 1280 792 1448 c 1,8,-1
 824 1412 l 1,9,10
 636 1238 636 1238 518 1008 c 1,11,12
 398 776 398 776 352 516 c 0,13,14
 326 360 326 360 326 236 c 0,15,16
 326 124 326 124 344 22 c 1,17,18
 380 -208 380 -208 506 -382 c 1,19,-1
 462 -418 l 1,20,21
 286 -234 286 -234 222 0 c 1,0,1
EndSplineSet
Substitution2: "'c2sc' Capitals to Small Capitals lookup 12 subtable" parenleft.sc
Substitution2: "'sinf' Scientific Inferiors lookup 11 subtable" parenleft.inferior
Substitution2: "'sups' Superscript lookup 10 subtable" parenleft.superior
Substitution2: "'case' Case-Sensitive Forms lookup 9 subtable" parenleft.sc
AlternateSubs2: "'aalt' Access All Alternates lookup 2 subtable" parenleft.sc
EndChar

StartChar: parenright
Encoding: 41 41 8
Width: 640
GlyphClass: 2
Flags: W
LayerCount: 2
Fore
SplineSet
638 1032 m 1,0,1
 684 882 684 882 684 716 c 0,2,3
 684 624 684 624 668 516 c 1,4,5
 616 238 616 238 456 0 c 0,6,7
 288 -252 288 -252 68 -416 c 1,8,-1
 36 -380 l 1,9,10
 224 -204 224 -204 342 24 c 1,11,12
 462 256 462 256 508 516 c 0,13,14
 534 672 534 672 534 796 c 0,15,16
 534 904 534 904 516 1010 c 0,17,18
 480 1240 480 1240 354 1416 c 1,19,-1
 398 1450 l 1,20,21
 572 1268 572 1268 638 1032 c 1,0,1
EndSplineSet
Substitution2: "'c2sc' Capitals to Small Capitals lookup 12 subtable" parenright.sc
Substitution2: "'sinf' Scientific Inferiors lookup 11 subtable" parenright.inferior
Substitution2: "'sups' Superscript lookup 10 subtable" parenright.superior
Substitution2: "'case' Case-Sensitive Forms lookup 9 subtable" parenright.sc
AlternateSubs2: "'aalt' Access All Alternates lookup 2 subtable" parenright.sc
EndChar

StartChar: asterisk
Encoding: 42 42 9
Width: 886
GlyphClass: 2
Flags: W
LayerCount: 2
Fore
SplineSet
610 1162 m 1,0,1
 578 1170 578 1170 524 1170 c 0,2,3
 372 1170 372 1170 372 1232 c 2,4,-1
 372 1246 l 1,5,6
 378 1270 378 1270 398 1288 c 128,-1,7
 418 1306 418 1306 450 1306 c 0,8,9
 488 1306 488 1306 542 1261 c 128,-1,10
 596 1216 596 1216 630 1202 c 1,11,-1
 630 1224 l 2,12,13
 630 1254 630 1254 621 1302 c 128,-1,14
 612 1350 612 1350 612 1368 c 0,15,16
 612 1372 612 1372 613 1379 c 128,-1,17
 614 1386 614 1386 614 1390 c 0,18,19
 620 1422 620 1422 643 1446 c 128,-1,20
 666 1470 666 1470 692 1470 c 0,21,22
 748 1470 748 1470 748 1416 c 2,23,-1
 748 1398 l 1,24,25
 742 1370 742 1370 711 1299 c 128,-1,26
 680 1228 680 1228 672 1200 c 1,27,28
 712 1216 712 1216 780 1261 c 128,-1,29
 848 1306 848 1306 886 1306 c 0,30,31
 944 1306 944 1306 944 1254 c 2,32,-1
 944 1246 l 1,33,34
 932 1170 932 1170 790 1170 c 0,35,36
 726 1170 726 1170 678 1162 c 1,37,38
 694 1138 694 1138 756 1088 c 128,-1,39
 818 1038 818 1038 818 1000 c 0,40,41
 818 990 818 990 816 984 c 0,42,43
 812 958 812 958 790 941 c 128,-1,44
 768 924 768 924 746 924 c 0,45,46
 712 924 712 924 693 957 c 128,-1,47
 674 990 674 990 662 1050 c 128,-1,48
 650 1110 650 1110 636 1136 c 1,49,50
 616 1110 616 1110 580 1047 c 128,-1,51
 544 984 544 984 518 954 c 128,-1,52
 492 924 492 924 456 924 c 0,53,54
 434 924 434 924 420 938 c 128,-1,55
 406 952 406 952 406 972 c 2,56,-1
 406 980 l 1,57,58
 414 1018 414 1018 445 1046 c 128,-1,59
 476 1074 476 1074 528 1105 c 128,-1,60
 580 1136 580 1136 610 1162 c 1,0,1
EndSplineSet
EndChar

StartChar: comma
Encoding: 44 44 10
Width: 448
GlyphClass: 2
Flags: W
LayerCount: 2
Fore
SplineSet
126 92 m 0,0,1
 126 138 126 138 162 166 c 128,-1,2
 198 194 198 194 247 194 c 128,-1,3
 296 194 296 194 327 158 c 128,-1,4
 358 122 358 122 358 64 c 0,5,6
 358 0 358 0 336 -62 c 128,-1,7
 314 -124 314 -124 244 -187 c 128,-1,8
 174 -250 174 -250 64 -270 c 1,9,10
 40 -250 40 -250 46 -224 c 1,11,12
 126 -206 126 -206 193 -148 c 128,-1,13
 260 -90 260 -90 260 -46 c 0,14,15
 260 -30 260 -30 250 -18 c 128,-1,16
 240 -6 240 -6 229 -2 c 128,-1,17
 218 2 218 2 196 8 c 0,18,19
 126 26 126 26 126 92 c 0,0,1
EndSplineSet
EndChar

StartChar: hyphen
Encoding: 45 45 11
Width: 680
GlyphClass: 2
Flags: W
LayerCount: 2
Fore
SplineSet
644 456 m 2,0,-1
 178 456 l 2,1,2
 158 456 158 456 158 492 c 0,3,4
 158 516 158 516 182 548 c 128,-1,5
 206 580 206 580 224 580 c 2,6,-1
 692 580 l 2,7,8
 714 580 714 580 714 555 c 128,-1,9
 714 530 714 530 690 493 c 128,-1,10
 666 456 666 456 644 456 c 2,0,-1
EndSplineSet
Substitution2: "'c2sc' Capitals to Small Capitals lookup 12 subtable" hyphen.sc
Substitution2: "'case' Case-Sensitive Forms lookup 9 subtable" hyphen.cap
Substitution2: "'smcp' Lowercase to Small Capitals lookup 6 subtable" hyphen.sc
AlternateSubs2: "'aalt' Access All Alternates lookup 2 subtable" hyphen.sc
EndChar

StartChar: period
Encoding: 46 46 12
Width: 448
GlyphClass: 2
Flags: W
LayerCount: 2
Fore
SplineSet
256 194 m 0,0,1
 296 194 296 194 323 169 c 128,-1,2
 350 144 350 144 350 104 c 0,3,4
 350 56 350 56 312 17 c 128,-1,5
 274 -22 274 -22 224 -22 c 0,6,7
 186 -22 186 -22 158 5 c 128,-1,8
 130 32 130 32 130 72 c 0,9,10
 130 118 130 118 166 156 c 128,-1,11
 202 194 202 194 256 194 c 0,0,1
EndSplineSet
EndChar

StartChar: zero
Encoding: 48 48 13
Width: 908
GlyphClass: 2
Flags: W
LayerCount: 2
Fore
SplineSet
704 1178 m 0,0,1
 668 1178 668 1178 630 1153 c 128,-1,2
 592 1128 592 1128 547 1069 c 128,-1,3
 502 1010 502 1010 458 884 c 128,-1,4
 414 758 414 758 378 580 c 0,5,6
 362 496 362 496 354 419 c 128,-1,7
 346 342 346 342 347 251 c 128,-1,8
 348 160 348 160 382 106 c 128,-1,9
 416 52 416 52 480 52 c 0,10,11
 504 52 504 52 533 61 c 128,-1,12
 562 70 562 70 609 116 c 128,-1,13
 656 162 656 162 690 238 c 0,14,15
 748 362 748 362 804 660 c 0,16,17
 880 1048 880 1048 786 1142 c 1,18,19
 758 1178 758 1178 704 1178 c 0,0,1
462 -20 m 0,20,21
 348 -20 348 -20 280 66 c 0,22,23
 216 150 216 150 198 294 c 128,-1,24
 180 438 180 438 212 602 c 0,25,26
 268 892 268 892 417 1071 c 128,-1,27
 566 1250 566 1250 718 1250 c 0,28,29
 864 1250 864 1250 932 1116 c 1,30,31
 1028 934 1028 934 968 620 c 0,32,33
 936 450 936 450 872 319 c 128,-1,34
 808 188 808 188 736 118 c 128,-1,35
 664 48 664 48 594 14 c 128,-1,36
 524 -20 524 -20 462 -20 c 0,20,21
EndSplineSet
Substitution2: "'zero' Slashed Zero lookup 21 subtable" zero.slash
Substitution2: "'onum' Oldstyle Figures lookup 20 subtable" zero.taboldstyle
Substitution2: "'pnum' Proportional Numbers lookup 19 subtable" zero.fitted
Substitution2: "'sinf' Scientific Inferiors lookup 11 subtable" zero.inferior
Substitution2: "'sups' Superscript lookup 10 subtable" zero.superior
AlternateSubs2: "'aalt' Access All Alternates lookup 2 subtable" zero.oldstyle zero.fitted zero.slash zero.slashfitted perthousandzero
EndChar

StartChar: one
Encoding: 49 49 14
Width: 908
GlyphClass: 2
Flags: W
LayerCount: 2
Fore
SplineSet
652 250 m 2,0,1
 630 128 630 128 654 98 c 128,-1,2
 678 68 678 68 786 64 c 1,3,4
 794 54 794 54 789 30 c 128,-1,5
 784 6 784 6 774 -4 c 1,6,7
 578 0 578 0 534 0 c 0,8,9
 452 0 452 0 260 -4 c 1,10,11
 252 6 252 6 258 30 c 128,-1,12
 264 54 264 54 274 64 c 1,13,14
 388 68 388 68 433 100 c 128,-1,15
 478 132 478 132 500 250 c 2,16,-1
 630 918 l 2,17,18
 654 1036 654 1036 614 1036 c 0,19,20
 560 1036 560 1036 434 986 c 1,21,22
 410 1006 410 1006 414 1040 c 1,23,24
 718 1176 718 1176 840 1246 c 1,25,26
 852 1246 852 1246 850 1234 c 0,27,28
 838 1194 838 1194 790 960 c 2,29,-1
 652 250 l 2,0,1
EndSplineSet
Substitution2: "'onum' Oldstyle Figures lookup 20 subtable" one.taboldstyle
Substitution2: "'pnum' Proportional Numbers lookup 19 subtable" one.fitted
Substitution2: "'sinf' Scientific Inferiors lookup 11 subtable" one.inferior
Substitution2: "'sups' Superscript lookup 10 subtable" one.superior
AlternateSubs2: "'aalt' Access All Alternates lookup 2 subtable" one.oldstyle one.superior one.fitted
EndChar

StartChar: two
Encoding: 50 50 15
Width: 908
GlyphClass: 2
Flags: W
LayerCount: 2
Fore
SplineSet
304 958 m 0,0,1
 324 1060 324 1060 443 1155 c 128,-1,2
 562 1250 562 1250 714 1250 c 0,3,4
 850 1250 850 1250 934 1171 c 128,-1,5
 1018 1092 1018 1092 988 938 c 0,6,7
 974 864 974 864 931 798 c 128,-1,8
 888 732 888 732 845 691 c 128,-1,9
 802 650 802 650 720 580 c 2,10,-1
 484 380 l 2,11,12
 462 362 462 362 430 333 c 128,-1,13
 398 304 398 304 347 240 c 128,-1,14
 296 176 296 176 288 134 c 1,15,-1
 638 134 l 2,16,17
 692 134 692 134 730 177 c 128,-1,18
 768 220 768 220 816 330 c 1,19,20
 852 338 852 338 870 320 c 1,21,22
 836 170 836 170 760 -4 c 1,23,24
 672 0 672 0 608 0 c 2,25,-1
 264 0 l 1,26,-1
 98 -4 l 1,27,28
 116 94 116 94 178 184 c 128,-1,29
 240 274 240 274 406 420 c 1,30,-1
 580 570 l 1,31,32
 776 744 776 744 812 930 c 0,33,34
 838 1064 838 1064 797 1121 c 128,-1,35
 756 1178 756 1178 688 1178 c 0,36,37
 590 1178 590 1178 535 1139 c 128,-1,38
 480 1100 480 1100 468 1052 c 0,39,40
 468 1050 468 1050 476 1004 c 0,41,42
 480 978 480 978 476 960 c 0,43,44
 470 930 470 930 433 904 c 128,-1,45
 396 878 396 878 366 878 c 0,46,47
 336 878 336 878 317 902 c 128,-1,48
 298 926 298 926 304 958 c 0,0,1
EndSplineSet
Substitution2: "'onum' Oldstyle Figures lookup 20 subtable" two.taboldstyle
Substitution2: "'pnum' Proportional Numbers lookup 19 subtable" two.fitted
Substitution2: "'sinf' Scientific Inferiors lookup 11 subtable" two.inferior
Substitution2: "'sups' Superscript lookup 10 subtable" two.superior
AlternateSubs2: "'aalt' Access All Alternates lookup 2 subtable" two.oldstyle two.superior two.fitted
EndChar

StartChar: three
Encoding: 51 51 16
Width: 908
GlyphClass: 2
Flags: W
LayerCount: 2
Fore
SplineSet
670 1178 m 0,0,1
 636 1178 636 1178 596 1168 c 128,-1,2
 556 1158 556 1158 509 1120 c 128,-1,3
 462 1082 462 1082 452 1022 c 1,4,5
 430 916 430 916 356 916 c 0,6,7
 324 916 324 916 310 938 c 128,-1,8
 296 960 296 960 304 986 c 0,9,10
 318 1064 318 1064 427 1157 c 128,-1,11
 536 1250 536 1250 724 1250 c 0,12,13
 862 1250 862 1250 924 1170 c 0,14,15
 974 1104 974 1104 954 1008 c 0,16,17
 938 922 938 922 880 857 c 128,-1,18
 822 792 822 792 694 736 c 1,19,-1
 696 732 l 1,20,21
 802 714 802 714 870 636 c 128,-1,22
 938 558 938 558 910 408 c 0,23,24
 872 214 872 214 720 97 c 128,-1,25
 568 -20 568 -20 386 -20 c 0,26,27
 288 -20 288 -20 201 20 c 128,-1,28
 114 60 114 60 126 116 c 0,29,30
 130 140 130 140 162 164 c 128,-1,31
 194 188 194 188 226 188 c 0,32,33
 274 188 274 188 300 136 c 0,34,35
 302 132 302 132 306 121 c 128,-1,36
 310 110 310 110 312 106 c 128,-1,37
 314 102 314 102 320 93 c 128,-1,38
 326 84 326 84 331 80 c 128,-1,39
 336 76 336 76 345 69 c 128,-1,40
 354 62 354 62 364 59 c 128,-1,41
 374 56 374 56 390 54 c 128,-1,42
 406 52 406 52 424 52 c 0,43,44
 456 52 456 52 495 66 c 128,-1,45
 534 80 534 80 582 112 c 128,-1,46
 630 144 630 144 671 213 c 128,-1,47
 712 282 712 282 732 378 c 0,48,49
 784 642 784 642 524 644 c 0,50,51
 464 644 464 644 430 638 c 1,52,-1
 432 704 l 1,53,54
 572 724 572 724 677 816 c 128,-1,55
 782 908 782 908 798 994 c 0,56,57
 816 1086 816 1086 778 1132 c 128,-1,58
 740 1178 740 1178 670 1178 c 0,0,1
EndSplineSet
Substitution2: "'onum' Oldstyle Figures lookup 20 subtable" three.taboldstyle
Substitution2: "'pnum' Proportional Numbers lookup 19 subtable" three.fitted
Substitution2: "'sinf' Scientific Inferiors lookup 11 subtable" three.inferior
Substitution2: "'sups' Superscript lookup 10 subtable" three.superior
AlternateSubs2: "'aalt' Access All Alternates lookup 2 subtable" three.oldstyle three.superior three.fitted
EndChar

StartChar: four
Encoding: 52 52 17
Width: 908
GlyphClass: 2
Flags: W
LayerCount: 2
Fore
SplineSet
744 1038 m 1,0,1
 566 842 566 842 254 448 c 1,2,-1
 628 448 l 1,3,-1
 744 1038 l 1,0,1
942 448 m 2,4,5
 970 448 970 448 964 416 c 0,6,7
 960 398 960 398 937 375 c 128,-1,8
 914 352 914 352 894 352 c 2,9,-1
 760 352 l 1,10,-1
 722 164 l 1,11,12
 728 130 728 130 719 112 c 128,-1,13
 710 94 710 94 735 83 c 128,-1,14
 760 72 760 72 770 71 c 128,-1,15
 780 70 780 70 822 66 c 0,16,17
 836 64 836 64 842 64 c 1,18,19
 850 54 850 54 844 30 c 128,-1,20
 838 6 838 6 828 -4 c 1,21,22
 702 0 702 0 614 0 c 0,23,24
 508 0 508 0 380 -4 c 1,25,26
 372 6 372 6 379 30 c 128,-1,27
 386 54 386 54 396 64 c 1,28,29
 504 72 504 72 534 94 c 256,30,31
 564 116 564 116 574 164 c 2,32,-1
 610 352 l 1,33,-1
 208 352 l 2,34,35
 148 352 148 352 150 438 c 1,36,37
 558 942 558 942 836 1226 c 1,38,39
 854 1248 854 1248 870 1250 c 2,40,-1
 934 1250 l 1,41,-1
 938 1246 l 1,42,43
 932 1228 932 1228 894 1046 c 2,44,-1
 778 448 l 1,45,-1
 942 448 l 2,4,5
EndSplineSet
Substitution2: "'onum' Oldstyle Figures lookup 20 subtable" four.taboldstyle
Substitution2: "'pnum' Proportional Numbers lookup 19 subtable" four.fitted
Substitution2: "'sinf' Scientific Inferiors lookup 11 subtable" four.inferior
Substitution2: "'sups' Superscript lookup 10 subtable" four.superior
AlternateSubs2: "'aalt' Access All Alternates lookup 2 subtable" four.oldstyle four.superior four.fitted
EndChar

StartChar: five
Encoding: 53 53 18
Width: 908
GlyphClass: 2
Flags: W
LayerCount: 2
Fore
SplineSet
706 388 m 0,0,1
 736 548 736 548 689 623 c 128,-1,2
 642 698 642 698 538 698 c 0,3,4
 414 698 414 698 278 650 c 1,5,-1
 460 1240 l 1,6,7
 572 1230 572 1230 672 1228 c 0,8,9
 786 1228 786 1228 998 1252 c 1,10,-1
 1010 1244 l 1,11,-1
 952 1104 l 1,12,13
 830 1092 830 1092 744 1092 c 0,14,15
 678 1092 678 1092 516 1110 c 1,16,-1
 412 768 l 1,17,18
 500 800 500 800 610 800 c 0,19,20
 770 800 770 800 845 690 c 128,-1,21
 920 580 920 580 888 424 c 0,22,23
 852 230 852 230 710 104 c 128,-1,24
 568 -22 568 -22 386 -22 c 0,25,26
 294 -22 294 -22 208 25 c 128,-1,27
 122 72 122 72 136 132 c 0,28,29
 142 162 142 162 169 184 c 128,-1,30
 196 206 196 206 226 206 c 0,31,32
 280 206 280 206 314 142 c 0,33,34
 316 138 316 138 324 121 c 128,-1,35
 332 104 332 104 336 98 c 128,-1,36
 340 92 340 92 349 80 c 128,-1,37
 358 68 358 68 367 63 c 128,-1,38
 376 58 376 58 391 54 c 128,-1,39
 406 50 406 50 424 50 c 0,40,41
 514 50 514 50 597 147 c 128,-1,42
 680 244 680 244 706 388 c 0,0,1
EndSplineSet
Substitution2: "'onum' Oldstyle Figures lookup 20 subtable" five.taboldstyle
Substitution2: "'pnum' Proportional Numbers lookup 19 subtable" five.fitted
Substitution2: "'sinf' Scientific Inferiors lookup 11 subtable" five.inferior
Substitution2: "'sups' Superscript lookup 10 subtable" five.superior
AlternateSubs2: "'aalt' Access All Alternates lookup 2 subtable" five.oldstyle five.superior five.fitted
EndChar

StartChar: six
Encoding: 54 54 19
Width: 908
GlyphClass: 2
Flags: W
LayerCount: 2
Fore
SplineSet
398 628 m 1,0,1
 366 546 366 546 350 468 c 0,2,3
 302 228 302 228 349 139 c 128,-1,4
 396 50 396 50 504 50 c 0,5,6
 582 50 582 50 648 134 c 128,-1,7
 714 218 714 218 746 376 c 1,8,9
 752 434 752 434 752 501 c 128,-1,10
 752 568 752 568 705 622 c 128,-1,11
 658 676 658 676 570 676 c 0,12,13
 476 676 476 676 398 628 c 1,0,1
430 704 m 1,14,15
 530 748 530 748 624 748 c 0,16,17
 812 748 812 748 879 655 c 128,-1,18
 946 562 946 562 918 414 c 0,19,20
 904 344 904 344 868 270 c 128,-1,21
 832 196 832 196 777 130 c 128,-1,22
 722 64 722 64 642 21 c 128,-1,23
 562 -22 562 -22 468 -22 c 0,24,25
 416 -22 416 -22 373 -10 c 128,-1,26
 330 2 330 2 282 34 c 128,-1,27
 234 66 234 66 208 121 c 128,-1,28
 182 176 182 176 170 264 c 128,-1,29
 158 352 158 352 186 476 c 1,30,31
 210 600 210 600 283 731 c 128,-1,32
 356 862 356 862 466 970 c 0,33,34
 666 1168 666 1168 952 1252 c 1,35,36
 970 1238 970 1238 964 1198 c 1,37,38
 770 1128 770 1128 638 995 c 128,-1,39
 506 862 506 862 430 704 c 1,14,15
EndSplineSet
Substitution2: "'onum' Oldstyle Figures lookup 20 subtable" six.taboldstyle
Substitution2: "'pnum' Proportional Numbers lookup 19 subtable" six.fitted
Substitution2: "'sinf' Scientific Inferiors lookup 11 subtable" six.inferior
Substitution2: "'sups' Superscript lookup 10 subtable" six.superior
AlternateSubs2: "'aalt' Access All Alternates lookup 2 subtable" six.oldstyle six.superior six.fitted
EndChar

StartChar: seven
Encoding: 55 55 20
Width: 908
GlyphClass: 2
Flags: W
LayerCount: 2
Fore
SplineSet
586 1096 m 2,0,1
 548 1096 548 1096 521 1087 c 128,-1,2
 494 1078 494 1078 455 1037 c 128,-1,3
 416 996 416 996 380 918 c 1,4,5
 350 916 350 916 320 924 c 1,6,7
 406 1172 406 1172 422 1252 c 0,8,9
 424 1258 424 1258 430 1258 c 0,10,11
 438 1256 438 1256 462 1242 c 128,-1,12
 486 1228 486 1228 524 1228 c 2,13,-1
 928 1228 l 2,14,15
 1008 1228 1008 1228 1084 1252 c 1,16,-1
 1110 1226 l 1,17,18
 814 722 814 722 428 -20 c 1,19,-1
 292 -26 l 1,20,-1
 280 -12 l 1,21,22
 456 270 456 270 938 1096 c 1,23,-1
 586 1096 l 2,0,1
EndSplineSet
Substitution2: "'onum' Oldstyle Figures lookup 20 subtable" seven.taboldstyle
Substitution2: "'pnum' Proportional Numbers lookup 19 subtable" seven.fitted
Substitution2: "'sinf' Scientific Inferiors lookup 11 subtable" seven.inferior
Substitution2: "'sups' Superscript lookup 10 subtable" seven.superior
AlternateSubs2: "'aalt' Access All Alternates lookup 2 subtable" seven.oldstyle seven.superior seven.fitted
EndChar

StartChar: eight
Encoding: 56 56 21
Width: 908
GlyphClass: 2
Flags: W
LayerCount: 2
Fore
SplineSet
698 1178 m 0,0,1
 612 1178 612 1178 556 1129 c 128,-1,2
 500 1080 500 1080 486 1006 c 0,3,4
 462 884 462 884 582 790 c 1,5,-1
 634 752 l 1,6,7
 816 872 816 872 840 996 c 0,8,9
 854 1074 854 1074 821 1126 c 128,-1,10
 788 1178 788 1178 698 1178 c 0,0,1
976 994 m 0,11,12
 960 906 960 906 870 831 c 128,-1,13
 780 756 780 756 680 708 c 1,14,-1
 800 620 l 2,15,16
 936 524 936 524 900 332 c 0,17,18
 874 198 874 198 750 89 c 128,-1,19
 626 -20 626 -20 446 -20 c 0,20,21
 286 -20 286 -20 208 63 c 128,-1,22
 130 146 130 146 160 300 c 0,23,24
 188 442 188 442 322 544 c 0,25,26
 396 602 396 602 502 658 c 1,27,-1
 456 690 l 2,28,29
 304 802 304 802 338 966 c 0,30,31
 360 1086 360 1086 468 1168 c 128,-1,32
 576 1250 576 1250 722 1250 c 0,33,34
 864 1250 864 1250 931 1178 c 128,-1,35
 998 1106 998 1106 976 994 c 0,11,12
464 52 m 0,36,37
 554 52 554 52 637 104 c 128,-1,38
 720 156 720 156 748 290 c 0,39,40
 778 454 778 454 628 564 c 1,41,-1
 546 620 l 1,42,43
 326 486 326 486 290 300 c 0,44,45
 266 176 266 176 324 114 c 128,-1,46
 382 52 382 52 464 52 c 0,36,37
EndSplineSet
Substitution2: "'onum' Oldstyle Figures lookup 20 subtable" eight.taboldstyle
Substitution2: "'pnum' Proportional Numbers lookup 19 subtable" eight.fitted
Substitution2: "'sinf' Scientific Inferiors lookup 11 subtable" eight.inferior
Substitution2: "'sups' Superscript lookup 10 subtable" eight.superior
AlternateSubs2: "'aalt' Access All Alternates lookup 2 subtable" eight.oldstyle eight.superior eight.fitted
EndChar

StartChar: nine
Encoding: 57 57 22
Width: 908
GlyphClass: 2
Flags: W
LayerCount: 2
Fore
SplineSet
786 598 m 1,0,1
 818 680 818 680 834 758 c 0,2,3
 882 998 882 998 835 1088 c 128,-1,4
 788 1178 788 1178 680 1178 c 0,5,6
 602 1178 602 1178 534 1094 c 128,-1,7
 466 1010 466 1010 436 850 c 1,8,9
 424 812 424 812 428 760 c 128,-1,10
 432 708 432 708 445 662 c 128,-1,11
 458 616 458 616 502 583 c 128,-1,12
 546 550 546 550 614 550 c 0,13,14
 708 550 708 550 786 598 c 1,0,1
754 524 m 1,15,16
 654 478 654 478 560 480 c 0,17,18
 464 480 464 480 396 507 c 128,-1,19
 328 534 328 534 299 580 c 128,-1,20
 270 626 270 626 260 687 c 128,-1,21
 250 748 250 748 266 814 c 1,22,23
 280 884 280 884 316 957 c 128,-1,24
 352 1030 352 1030 406 1097 c 128,-1,25
 460 1164 460 1164 541 1207 c 128,-1,26
 622 1250 622 1250 714 1250 c 0,27,28
 754 1250 754 1250 793 1241 c 128,-1,29
 832 1232 832 1232 873 1212 c 128,-1,30
 914 1192 914 1192 941 1156 c 128,-1,31
 968 1120 968 1120 991 1065 c 128,-1,32
 1014 1010 1014 1010 1013 933 c 128,-1,33
 1012 856 1012 856 996 752 c 1,34,35
 972 628 972 628 900 495 c 128,-1,36
 828 362 828 362 716 256 c 0,37,38
 612 154 612 154 499 87 c 128,-1,39
 386 20 386 20 232 -24 c 1,40,41
 214 -10 214 -10 220 28 c 1,42,43
 414 98 414 98 546 231 c 128,-1,44
 678 364 678 364 754 524 c 1,15,16
EndSplineSet
Substitution2: "'onum' Oldstyle Figures lookup 20 subtable" nine.taboldstyle
Substitution2: "'pnum' Proportional Numbers lookup 19 subtable" nine.fitted
Substitution2: "'sinf' Scientific Inferiors lookup 11 subtable" nine.inferior
Substitution2: "'sups' Superscript lookup 10 subtable" nine.superior
AlternateSubs2: "'aalt' Access All Alternates lookup 2 subtable" nine.oldstyle nine.superior nine.fitted
EndChar

StartChar: colon
Encoding: 58 58 23
Width: 448
GlyphClass: 2
Flags: W
LayerCount: 2
Fore
SplineSet
386 834 m 0,0,1
 426 834 426 834 453 808 c 128,-1,2
 480 782 480 782 480 744 c 0,3,4
 480 696 480 696 442 656 c 128,-1,5
 404 616 404 616 352 616 c 0,6,7
 312 616 312 616 285 644 c 128,-1,8
 258 672 258 672 258 710 c 0,9,10
 258 756 258 756 295 795 c 128,-1,11
 332 834 332 834 386 834 c 0,0,1
290 296 m 0,12,13
 330 296 330 296 358 271 c 128,-1,14
 386 246 386 246 386 206 c 0,15,16
 386 158 386 158 348 119 c 128,-1,17
 310 80 310 80 258 80 c 0,18,19
 218 80 218 80 191 108 c 128,-1,20
 164 136 164 136 164 174 c 0,21,22
 164 220 164 220 200 258 c 128,-1,23
 236 296 236 296 290 296 c 0,12,13
EndSplineSet
EndChar

StartChar: semicolon
Encoding: 59 59 24
Width: 448
GlyphClass: 2
Flags: W
LayerCount: 2
Fore
SplineSet
146 92 m 0,0,1
 146 138 146 138 182 166 c 128,-1,2
 218 194 218 194 267 194 c 128,-1,3
 316 194 316 194 346 158 c 128,-1,4
 376 122 376 122 376 64 c 0,5,6
 376 0 376 0 354 -62 c 128,-1,7
 332 -124 332 -124 262 -187 c 128,-1,8
 192 -250 192 -250 82 -270 c 1,9,10
 58 -250 58 -250 66 -224 c 1,11,12
 144 -206 144 -206 211 -148 c 128,-1,13
 278 -90 278 -90 278 -46 c 0,14,15
 278 -30 278 -30 268 -18 c 128,-1,16
 258 -6 258 -6 247 -2 c 128,-1,17
 236 2 236 2 216 8 c 0,18,19
 146 26 146 26 146 92 c 0,0,1
382 834 m 0,20,21
 422 834 422 834 450 808 c 128,-1,22
 478 782 478 782 478 744 c 0,23,24
 478 696 478 696 440 656 c 128,-1,25
 402 616 402 616 350 616 c 0,26,27
 312 616 312 616 284 644 c 128,-1,28
 256 672 256 672 256 710 c 0,29,30
 256 756 256 756 292 795 c 128,-1,31
 328 834 328 834 382 834 c 0,20,21
EndSplineSet
EndChar

StartChar: question
Encoding: 63 63 25
Width: 828
GlyphClass: 2
Flags: W
LayerCount: 2
Fore
SplineSet
300 1064 m 0,0,1
 300 1156 300 1156 406 1253 c 128,-1,2
 512 1350 512 1350 692 1350 c 0,3,4
 832 1350 832 1350 914 1283 c 128,-1,5
 996 1216 996 1216 996 1104 c 0,6,7
 996 1022 996 1022 962 953 c 128,-1,8
 928 884 928 884 875 837 c 128,-1,9
 822 790 822 790 767 753 c 128,-1,10
 712 716 712 716 661 681 c 128,-1,11
 610 646 610 646 592 616 c 0,12,13
 542 548 542 548 526 466 c 1,14,-1
 512 376 l 2,15,16
 510 356 510 356 482 356 c 0,17,18
 470 356 470 356 463 361 c 128,-1,19
 456 366 456 366 458 376 c 2,20,-1
 476 472 l 2,21,22
 496 578 496 578 540 655 c 128,-1,23
 584 732 584 732 633 774 c 128,-1,24
 682 816 682 816 729 855 c 128,-1,25
 776 894 776 894 806 950 c 128,-1,26
 836 1006 836 1006 836 1086 c 0,27,28
 836 1170 836 1170 787 1229 c 128,-1,29
 738 1288 738 1288 662 1288 c 0,30,31
 564 1288 564 1288 506 1246 c 128,-1,32
 448 1204 448 1204 448 1154 c 0,33,34
 448 1136 448 1136 458 1118 c 0,35,36
 464 1106 464 1106 464 1090 c 0,37,38
 464 1056 464 1056 439 1027 c 128,-1,39
 414 998 414 998 368 998 c 0,40,41
 300 996 300 996 300 1064 c 0,0,1
464 194 m 0,42,43
 504 194 504 194 532 169 c 128,-1,44
 560 144 560 144 560 104 c 0,45,46
 560 56 560 56 522 17 c 128,-1,47
 484 -22 484 -22 432 -22 c 0,48,49
 394 -22 394 -22 366 5 c 128,-1,50
 338 32 338 32 338 72 c 0,51,52
 338 118 338 118 374 156 c 128,-1,53
 410 194 410 194 464 194 c 0,42,43
EndSplineSet
EndChar

StartChar: A
Encoding: 65 65 26
Width: 1366
GlyphClass: 2
Flags: W
AnchorPoint: "Anchor-6" 630 -222 basechar 0
AnchorPoint: "Anchor-5" 240 10 basechar 0
AnchorPoint: "Anchor-2" 1034 1740 basechar 0
LayerCount: 2
Fore
SplineSet
628 580 m 2,0,-1
 970 580 l 1,1,-1
 886 1126 l 1,2,-1
 882 1126 l 1,3,-1
 586 606 l 2,4,5
 582 598 582 598 582 594 c 0,6,7
 580 580 580 580 628 580 c 2,0,-1
330 162 m 2,8,9
 316 138 316 138 316 114 c 0,10,11
 316 64 316 64 390 60 c 2,12,-1
 444 56 l 2,13,14
 458 56 458 56 456 38 c 2,15,-1
 452 0 l 1,16,-1
 446 -4 l 1,17,18
 302 0 302 0 190 0 c 0,19,20
 156 0 156 0 8 -4 c 1,21,-1
 6 0 l 1,22,-1
 12 38 l 2,23,24
 14 54 14 54 30 56 c 0,25,26
 102 60 102 60 149 90 c 128,-1,27
 196 120 196 120 250 208 c 2,28,-1
 894 1274 l 2,29,30
 910 1302 910 1302 923 1318 c 128,-1,31
 936 1334 936 1334 948 1341 c 128,-1,32
 960 1348 960 1348 974 1348 c 0,33,34
 994 1348 994 1348 1002 1333 c 128,-1,35
 1010 1318 1010 1318 1016 1286 c 2,36,-1
 1204 176 l 2,37,38
 1212 116 1212 116 1240 90 c 128,-1,39
 1268 64 1268 64 1328 58 c 2,40,-1
 1348 56 l 2,41,42
 1366 56 1366 56 1364 38 c 2,43,-1
 1360 0 l 1,44,-1
 1356 -4 l 1,45,46
 1212 0 1212 0 1124 0 c 0,47,48
 1012 0 1012 0 864 -4 c 1,49,-1
 862 0 l 1,50,-1
 866 38 l 2,51,52
 868 54 868 54 882 56 c 2,53,-1
 940 60 l 2,54,55
 1040 68 1040 68 1040 130 c 0,56,57
 1040 138 1040 138 1038 148 c 2,58,-1
 988 494 l 1,59,-1
 578 494 l 2,60,61
 544 494 544 494 528 487 c 128,-1,62
 512 480 512 480 502 458 c 2,63,-1
 330 162 l 2,8,9
EndSplineSet
Substitution2: "'c2sc' Capitals to Small Capitals lookup 12 subtable" a.sc
Position2: "'cpsp' Capital Spacing lookup 0 subtable" dx=4 dy=0 dh=10 dv=0
EndChar

StartChar: B
Encoding: 66 66 27
Width: 1140
GlyphClass: 2
Flags: W
AnchorPoint: "Anchor-6" 488 -222 basechar 0
AnchorPoint: "Anchor-5" 512 0 basechar 0
AnchorPoint: "Anchor-2" 916 1740 basechar 0
LayerCount: 2
Fore
SplineSet
594 1168 m 2,0,-1
 512 750 l 1,1,-1
 658 750 l 2,2,3
 940 750 940 750 988 986 c 0,4,5
 996 1024 996 1024 996 1056 c 0,6,7
 996 1160 996 1160 932 1208 c 128,-1,8
 868 1256 868 1256 782 1256 c 128,-1,9
 696 1256 696 1256 658 1246 c 128,-1,10
 620 1236 620 1236 611 1221 c 128,-1,11
 602 1206 602 1206 594 1168 c 2,0,-1
500 680 m 1,12,-1
 398 160 l 2,13,14
 394 142 394 142 394 132 c 0,15,16
 394 98 394 98 426 82 c 128,-1,17
 458 66 458 66 542 66 c 0,18,19
 650 66 650 66 727 86 c 128,-1,20
 804 106 804 106 849 146 c 128,-1,21
 894 186 894 186 918 231 c 128,-1,22
 942 276 942 276 954 338 c 0,23,24
 962 376 962 376 962 414 c 0,25,26
 962 532 962 532 881 606 c 128,-1,27
 800 680 800 680 634 680 c 2,28,-1
 500 680 l 1,12,-1
40 38 m 2,29,30
 44 54 44 54 58 56 c 2,31,-1
 116 60 l 2,32,33
 182 64 182 64 204 79 c 128,-1,34
 226 94 226 94 236 146 c 2,35,-1
 436 1176 l 2,36,37
 440 1198 440 1198 440 1212 c 0,38,39
 440 1238 440 1238 422 1248 c 128,-1,40
 404 1258 404 1258 350 1262 c 2,41,-1
 292 1266 l 2,42,43
 280 1266 280 1266 280 1280 c 1,44,-1
 288 1320 l 1,45,-1
 294 1326 l 1,46,47
 478 1322 478 1322 542 1320 c 0,48,49
 582 1320 582 1320 666 1323 c 128,-1,50
 750 1326 750 1326 782 1326 c 0,51,52
 1150 1326 1150 1326 1150 1086 c 0,53,54
 1150 1052 1150 1052 1142 1010 c 0,55,56
 1128 930 1128 930 1061 856 c 128,-1,57
 994 782 994 782 908 742 c 1,58,-1
 908 738 l 1,59,60
 1146 662 1146 662 1144 452 c 0,61,62
 1144 418 1144 418 1136 376 c 0,63,64
 1122 304 1122 304 1086 241 c 128,-1,65
 1050 178 1050 178 987 121 c 128,-1,66
 924 64 924 64 815 30 c 128,-1,67
 706 -4 706 -4 568 -4 c 0,68,69
 468 -4 468 -4 391 -2 c 128,-1,70
 314 0 314 0 286 0 c 0,71,72
 220 0 220 0 36 -4 c 1,73,-1
 32 0 l 1,74,-1
 40 38 l 2,29,30
EndSplineSet
Substitution2: "'c2sc' Capitals to Small Capitals lookup 12 subtable" b.sc
Position2: "'cpsp' Capital Spacing lookup 0 subtable" dx=4 dy=0 dh=10 dv=0
EndChar

StartChar: C
Encoding: 67 67 28
Width: 1260
GlyphClass: 2
Flags: W
AnchorPoint: "Anchor-6" 682 -226 basechar 0
AnchorPoint: "Anchor-5" 730 -14 basechar 0
AnchorPoint: "Anchor-2" 1024 1740 basechar 0
LayerCount: 2
Fore
SplineSet
692 -20 m 0,0,1
 562 -20 562 -20 462 21 c 128,-1,2
 362 62 362 62 302 134 c 128,-1,3
 242 206 242 206 212 298 c 128,-1,4
 182 390 182 390 182 494 c 0,5,6
 182 570 182 570 196 646 c 0,7,8
 254 942 254 942 482 1145 c 128,-1,9
 710 1348 710 1348 960 1348 c 0,10,11
 1064 1348 1064 1348 1143 1326 c 128,-1,12
 1222 1304 1222 1304 1277 1281 c 128,-1,13
 1332 1258 1332 1258 1372 1256 c 1,14,15
 1358 1120 1358 1120 1354 938 c 1,16,-1
 1294 930 l 1,17,18
 1262 1272 1262 1272 924 1272 c 0,19,20
 860 1272 860 1272 782 1237 c 128,-1,21
 704 1202 704 1202 622 1136 c 128,-1,22
 540 1070 540 1070 472 951 c 128,-1,23
 404 832 404 832 374 684 c 0,24,25
 358 596 358 596 358 512 c 0,26,27
 358 438 358 438 370 373 c 128,-1,28
 382 308 382 308 409 251 c 128,-1,29
 436 194 436 194 477 152 c 128,-1,30
 518 110 518 110 576 87 c 128,-1,31
 634 64 634 64 706 64 c 0,32,33
 844 64 844 64 962 116 c 128,-1,34
 1080 168 1080 168 1206 286 c 1,35,36
 1234 286 1234 286 1246 256 c 1,37,38
 992 -20 992 -20 692 -20 c 0,0,1
EndSplineSet
Substitution2: "'c2sc' Capitals to Small Capitals lookup 12 subtable" c.sc
Position2: "'cpsp' Capital Spacing lookup 0 subtable" dx=4 dy=0 dh=10 dv=0
EndChar

StartChar: D
Encoding: 68 68 29
Width: 1366
GlyphClass: 2
Flags: W
AnchorPoint: "Anchor-6" 572 -220 basechar 0
AnchorPoint: "Anchor-5" 572 8 basechar 0
AnchorPoint: "Anchor-2" 812 1740 basechar 0
LayerCount: 2
Fore
SplineSet
38 36 m 2,0,1
 42 54 42 54 58 56 c 2,2,-1
 116 60 l 2,3,4
 172 64 172 64 201 84 c 128,-1,5
 230 104 230 104 238 152 c 2,6,-1
 436 1172 l 2,7,8
 440 1194 440 1194 440 1208 c 0,9,10
 440 1236 440 1236 421 1247 c 128,-1,11
 402 1258 402 1258 350 1262 c 2,12,-1
 296 1266 l 2,13,14
 278 1266 278 1266 282 1282 c 2,15,-1
 288 1320 l 1,16,-1
 294 1326 l 1,17,18
 478 1322 478 1322 542 1320 c 0,19,20
 576 1320 576 1320 686 1323 c 128,-1,21
 796 1326 796 1326 864 1326 c 0,22,23
 1110 1326 1110 1326 1266 1167 c 128,-1,24
 1422 1008 1422 1008 1422 768 c 0,25,26
 1422 698 1422 698 1406 630 c 0,27,28
 1372 450 1372 450 1287 320 c 128,-1,29
 1202 190 1202 190 1089 123 c 128,-1,30
 976 56 976 56 866 26 c 128,-1,31
 756 -4 756 -4 642 -4 c 0,32,33
 526 -4 526 -4 418 -2 c 128,-1,34
 310 0 310 0 286 0 c 0,35,36
 220 0 220 0 36 -4 c 1,37,-1
 32 0 l 1,38,-1
 38 36 l 2,0,1
396 150 m 2,39,40
 392 134 392 134 392 122 c 0,41,42
 392 100 392 100 409 88 c 128,-1,43
 426 76 426 76 468 71 c 128,-1,44
 510 66 510 66 594 66 c 0,45,46
 1116 66 1116 66 1216 582 c 0,47,48
 1234 676 1234 676 1234 766 c 0,49,50
 1234 846 1234 846 1220 916 c 128,-1,51
 1206 986 1206 986 1171 1049 c 128,-1,52
 1136 1112 1136 1112 1085 1157 c 128,-1,53
 1034 1202 1034 1202 955 1229 c 128,-1,54
 876 1256 876 1256 776 1256 c 0,55,56
 692 1256 692 1256 649 1240 c 128,-1,57
 606 1224 606 1224 596 1176 c 2,58,-1
 396 150 l 2,39,40
EndSplineSet
Substitution2: "'c2sc' Capitals to Small Capitals lookup 12 subtable" d.sc
Position2: "'cpsp' Capital Spacing lookup 0 subtable" dx=4 dy=0 dh=10 dv=0
EndChar

StartChar: E
Encoding: 69 69 30
Width: 1076
GlyphClass: 2
Flags: W
AnchorPoint: "Anchor-6" 550 -220 basechar 0
AnchorPoint: "Anchor-5" 572 8 basechar 0
AnchorPoint: "Anchor-2" 846 1740 basechar 0
LayerCount: 2
Fore
SplineSet
1132 1324 m 0,0,1
 1132 1194 1132 1194 1116 1026 c 1,2,-1
 1058 1016 l 1,3,4
 1044 1136 1044 1136 1010 1188 c 128,-1,5
 976 1240 976 1240 874 1240 c 2,6,-1
 670 1240 l 2,7,8
 598 1240 598 1240 584 1170 c 2,9,-1
 502 740 l 1,10,-1
 752 740 l 2,11,12
 802 740 802 740 827 760 c 128,-1,13
 852 780 852 780 866 826 c 2,14,-1
 880 876 l 2,15,16
 884 892 884 892 900 892 c 2,17,-1
 942 892 l 1,18,-1
 948 884 l 1,19,20
 916 762 916 762 906 700 c 1,21,22
 888 612 888 612 878 522 c 1,23,-1
 868 516 l 1,24,-1
 826 516 l 2,25,26
 810 516 810 516 816 532 c 1,27,-1
 820 584 l 2,28,29
 822 594 822 594 822 600 c 0,30,31
 822 624 822 624 812 638 c 128,-1,32
 802 652 802 652 784 657 c 128,-1,33
 766 662 766 662 736 662 c 2,34,-1
 486 662 l 1,35,-1
 386 148 l 2,36,37
 384 136 384 136 382 126 c 0,38,39
 382 78 382 78 444 80 c 2,40,-1
 710 80 l 2,41,42
 904 80 904 80 1028 348 c 1,43,-1
 1088 338 l 1,44,45
 1064 278 1064 278 948 -4 c 1,46,47
 792 0 792 0 698 0 c 2,48,-1
 276 0 l 2,49,50
 210 0 210 0 26 -4 c 1,51,-1
 22 0 l 1,52,-1
 30 40 l 2,53,54
 34 54 34 54 50 56 c 2,55,-1
 108 60 l 2,56,57
 166 64 166 64 192 84 c 128,-1,58
 218 104 218 104 228 148 c 2,59,-1
 426 1170 l 2,60,61
 430 1186 430 1186 430 1198 c 0,62,63
 430 1228 430 1228 410 1243 c 128,-1,64
 390 1258 390 1258 342 1262 c 2,65,-1
 284 1266 l 2,66,67
 268 1266 268 1266 272 1280 c 2,68,-1
 280 1320 l 1,69,-1
 284 1326 l 1,70,71
 468 1322 468 1322 532 1320 c 2,72,-1
 1030 1320 l 2,73,74
 1078 1320 1078 1320 1124 1330 c 0,75,76
 1132 1330 1132 1330 1132 1324 c 0,0,1
EndSplineSet
Substitution2: "'c2sc' Capitals to Small Capitals lookup 12 subtable" e.sc
Position2: "'cpsp' Capital Spacing lookup 0 subtable" dx=4 dy=0 dh=10 dv=0
EndChar

StartChar: F
Encoding: 70 70 31
Width: 934
GlyphClass: 2
Flags: W
AnchorPoint: "Anchor-6" 268 -228 basechar 0
AnchorPoint: "Anchor-5" 296 -2 basechar 0
AnchorPoint: "Anchor-2" 832 1740 basechar 0
LayerCount: 2
Fore
SplineSet
736 662 m 2,0,-1
 486 662 l 1,1,-1
 388 152 l 2,2,3
 386 136 386 136 386 122 c 0,4,5
 386 102 386 102 395 89 c 128,-1,6
 404 76 404 76 424 69 c 128,-1,7
 444 62 444 62 478 60 c 2,8,-1
 526 56 l 2,9,10
 544 56 544 56 540 38 c 2,11,-1
 532 0 l 1,12,-1
 528 -4 l 1,13,14
 344 0 344 0 276 0 c 0,15,16
 212 0 212 0 28 -4 c 1,17,-1
 24 0 l 1,18,-1
 32 38 l 2,19,20
 36 54 36 54 52 56 c 2,21,-1
 104 60 l 2,22,23
 166 64 166 64 193 85 c 128,-1,24
 220 106 220 106 228 152 c 2,25,-1
 426 1170 l 2,26,27
 430 1186 430 1186 430 1200 c 0,28,29
 430 1228 430 1228 410 1243 c 128,-1,30
 390 1258 390 1258 342 1262 c 2,31,-1
 284 1266 l 2,32,33
 268 1266 268 1266 272 1280 c 2,34,-1
 280 1320 l 1,35,-1
 284 1326 l 1,36,37
 468 1322 468 1322 532 1320 c 2,38,-1
 1032 1320 l 2,39,40
 1078 1320 1078 1320 1126 1330 c 0,41,42
 1132 1330 1132 1330 1132 1324 c 0,43,44
 1132 1250 1132 1250 1116 1026 c 1,45,-1
 1058 1016 l 1,46,47
 1044 1136 1044 1136 1010 1188 c 128,-1,48
 976 1240 976 1240 874 1240 c 2,49,-1
 670 1240 l 2,50,51
 598 1240 598 1240 584 1170 c 2,52,-1
 502 740 l 1,53,-1
 752 740 l 2,54,55
 840 740 840 740 866 826 c 1,56,-1
 880 876 l 2,57,58
 884 892 884 892 900 892 c 2,59,-1
 942 892 l 1,60,-1
 948 884 l 1,61,62
 914 762 914 762 906 700 c 1,63,64
 888 612 888 612 878 522 c 1,65,-1
 868 516 l 1,66,-1
 826 516 l 2,67,68
 810 516 810 516 816 532 c 1,69,-1
 820 584 l 2,70,71
 820 594 820 594 820 600 c 0,72,73
 820 634 820 634 802 648 c 128,-1,74
 784 662 784 662 736 662 c 2,0,-1
EndSplineSet
Substitution2: "'c2sc' Capitals to Small Capitals lookup 12 subtable" f.sc
Position2: "'cpsp' Capital Spacing lookup 0 subtable" dx=4 dy=0 dh=10 dv=0
EndChar

StartChar: G
Encoding: 71 71 32
Width: 1358
GlyphClass: 2
Flags: W
AnchorPoint: "Anchor-6" 706 -226 basechar 0
AnchorPoint: "Anchor-5" 748 4 basechar 0
AnchorPoint: "Anchor-2" 1050 1740 basechar 0
LayerCount: 2
Fore
SplineSet
998 1348 m 0,0,1
 1100 1348 1100 1348 1178 1325 c 128,-1,2
 1256 1302 1256 1302 1309 1279 c 128,-1,3
 1362 1256 1362 1256 1410 1256 c 1,4,5
 1392 1066 1392 1066 1390 940 c 1,6,-1
 1330 928 l 1,7,8
 1324 1002 1324 1002 1304 1058 c 128,-1,9
 1284 1114 1284 1114 1244 1165 c 128,-1,10
 1204 1216 1204 1216 1131 1244 c 128,-1,11
 1058 1272 1058 1272 956 1272 c 0,12,13
 754 1272 754 1272 584 1103 c 128,-1,14
 414 934 414 934 362 670 c 0,15,16
 352 610 352 610 352 548 c 0,17,18
 352 454 352 454 378 368 c 128,-1,19
 404 282 404 282 454 211 c 128,-1,20
 504 140 504 140 589 97 c 128,-1,21
 674 54 674 54 782 54 c 0,22,23
 866 54 866 54 949 79 c 128,-1,24
 1032 104 1032 104 1090 152 c 1,25,-1
 1150 464 l 2,26,27
 1152 478 1152 478 1154 492 c 0,28,29
 1154 512 1154 512 1143 524 c 128,-1,30
 1132 536 1132 536 1113 542 c 128,-1,31
 1094 548 1094 548 1058 550 c 2,32,-1
 1010 556 l 2,33,34
 994 556 994 556 998 572 c 2,35,-1
 1008 624 l 1,36,-1
 1012 628 l 1,37,38
 1196 624 1196 624 1260 624 c 128,-1,39
 1324 624 1324 624 1442 628 c 1,40,-1
 1446 624 l 1,41,-1
 1436 572 l 2,42,43
 1434 560 1434 560 1416 556 c 1,44,45
 1392 554 1392 554 1376 549 c 128,-1,46
 1360 544 1360 544 1347 534 c 128,-1,47
 1334 524 1334 524 1324 508 c 128,-1,48
 1314 492 1314 492 1310 464 c 2,49,-1
 1264 228 l 2,50,51
 1258 198 1258 198 1284 170 c 1,52,53
 1032 -20 1032 -20 722 -20 c 0,54,55
 468 -20 468 -20 320 126 c 128,-1,56
 172 272 172 272 172 498 c 0,57,58
 172 564 172 564 184 628 c 0,59,60
 248 952 248 952 489 1150 c 128,-1,61
 730 1348 730 1348 998 1348 c 0,0,1
EndSplineSet
Substitution2: "'c2sc' Capitals to Small Capitals lookup 12 subtable" g.sc
Position2: "'cpsp' Capital Spacing lookup 0 subtable" dx=4 dy=0 dh=10 dv=0
EndChar

StartChar: H
Encoding: 72 72 33
Width: 1378
GlyphClass: 2
Flags: W
AnchorPoint: "Anchor-6" 656 -220 basechar 0
AnchorPoint: "Anchor-5" 308 0 basechar 0
AnchorPoint: "Anchor-2" 986 1740 basechar 0
LayerCount: 2
Fore
SplineSet
1234 1166 m 2,0,1
 1240 1196 1240 1196 1234 1215 c 128,-1,2
 1228 1234 1228 1234 1207 1245 c 128,-1,3
 1186 1256 1186 1256 1144 1260 c 2,4,-1
 1076 1266 l 1,5,6
 1072 1274 1072 1274 1075 1296 c 128,-1,7
 1078 1318 1078 1318 1082 1326 c 1,8,9
 1262 1322 1262 1322 1342 1320 c 0,10,11
 1404 1320 1404 1320 1588 1326 c 1,12,13
 1594 1312 1594 1312 1592 1292 c 128,-1,14
 1590 1272 1590 1272 1584 1266 c 1,15,-1
 1520 1260 l 2,16,17
 1458 1254 1458 1254 1430 1232 c 128,-1,18
 1402 1210 1402 1210 1392 1166 c 2,19,-1
 1194 156 l 2,20,21
 1184 108 1184 108 1204 88 c 128,-1,22
 1224 68 1224 68 1284 62 c 2,23,-1
 1354 56 l 1,24,25
 1356 50 1356 50 1356 37 c 128,-1,26
 1356 24 1356 24 1353 12 c 128,-1,27
 1350 0 1350 0 1348 -4 c 1,28,29
 1168 0 1168 0 1088 0 c 0,30,31
 1026 0 1026 0 842 -4 c 1,32,33
 836 10 836 10 838 30 c 128,-1,34
 840 50 840 50 846 56 c 1,35,-1
 910 62 l 2,36,37
 972 68 972 68 1000 89 c 128,-1,38
 1028 110 1028 110 1036 156 c 2,39,-1
 1134 658 l 1,40,-1
 494 658 l 1,41,-1
 396 156 l 2,42,43
 386 108 386 108 406 88 c 128,-1,44
 426 68 426 68 486 62 c 2,45,-1
 556 56 l 1,46,47
 558 50 558 50 558 37 c 128,-1,48
 558 24 558 24 554 12 c 128,-1,49
 550 0 550 0 548 -4 c 1,50,51
 368 0 368 0 288 0 c 0,52,53
 226 0 226 0 44 -4 c 1,54,55
 38 10 38 10 39 30 c 128,-1,56
 40 50 40 50 48 56 c 1,57,-1
 110 62 l 2,58,59
 172 68 172 68 201 89 c 128,-1,60
 230 110 230 110 238 156 c 2,61,-1
 436 1166 l 2,62,63
 444 1214 444 1214 425 1234 c 128,-1,64
 406 1254 406 1254 346 1260 c 2,65,-1
 276 1266 l 1,66,67
 272 1274 272 1274 275 1296 c 128,-1,68
 278 1318 278 1318 282 1326 c 1,69,70
 462 1322 462 1322 542 1320 c 0,71,72
 604 1320 604 1320 788 1326 c 1,73,74
 794 1312 794 1312 792 1292 c 128,-1,75
 790 1272 790 1272 784 1266 c 1,76,-1
 720 1260 l 2,77,78
 658 1254 658 1254 631 1232 c 128,-1,79
 604 1210 604 1210 594 1166 c 2,80,-1
 512 744 l 1,81,-1
 1150 744 l 1,82,-1
 1234 1166 l 2,0,1
EndSplineSet
Substitution2: "'c2sc' Capitals to Small Capitals lookup 12 subtable" h.sc
Position2: "'cpsp' Capital Spacing lookup 0 subtable" dx=4 dy=0 dh=10 dv=0
EndChar

StartChar: I
Encoding: 73 73 34
Width: 572
GlyphClass: 2
Flags: W
AnchorPoint: "Anchor-6" 260 -224 basechar 0
AnchorPoint: "Anchor-5" 296 2 basechar 0
AnchorPoint: "Anchor-2" 648 1740 basechar 0
LayerCount: 2
Fore
SplineSet
436 1166 m 2,0,1
 440 1188 440 1188 438 1204 c 128,-1,2
 436 1220 436 1220 426 1232 c 128,-1,3
 416 1244 416 1244 396 1251 c 128,-1,4
 376 1258 376 1258 346 1260 c 2,5,-1
 276 1266 l 1,6,7
 272 1274 272 1274 275 1296 c 128,-1,8
 278 1318 278 1318 282 1326 c 1,9,10
 462 1322 462 1322 542 1320 c 0,11,12
 604 1320 604 1320 788 1326 c 1,13,14
 794 1312 794 1312 792 1292 c 128,-1,15
 790 1272 790 1272 784 1266 c 1,16,-1
 720 1260 l 2,17,18
 680 1256 680 1256 653 1244 c 128,-1,19
 626 1232 626 1232 613 1214 c 128,-1,20
 600 1196 600 1196 594 1166 c 2,21,-1
 396 156 l 2,22,23
 386 108 386 108 406 88 c 128,-1,24
 426 68 426 68 486 62 c 2,25,-1
 556 56 l 1,26,27
 558 50 558 50 558 37 c 128,-1,28
 558 24 558 24 554 12 c 128,-1,29
 550 0 550 0 548 -4 c 1,30,31
 368 0 368 0 288 0 c 0,32,33
 226 0 226 0 44 -4 c 1,34,35
 38 10 38 10 39 30 c 128,-1,36
 40 50 40 50 48 56 c 1,37,-1
 110 62 l 2,38,39
 172 68 172 68 201 89 c 128,-1,40
 230 110 230 110 238 156 c 2,41,-1
 436 1166 l 2,0,1
EndSplineSet
Substitution2: "'c2sc' Capitals to Small Capitals lookup 12 subtable" i.sc
Position2: "'cpsp' Capital Spacing lookup 0 subtable" dx=4 dy=0 dh=10 dv=0
EndChar

StartChar: J
Encoding: 74 74 35
Width: 846
GlyphClass: 2
Flags: W
AnchorPoint: "Anchor-2" 802 1740 basechar 0
LayerCount: 2
Fore
SplineSet
890 1188 m 1,0,1
 878 1114 878 1114 856 944 c 128,-1,2
 834 774 834 774 834 738 c 0,3,4
 834 708 834 708 853 697 c 128,-1,5
 872 686 872 686 928 682 c 1,6,-1
 922 630 l 1,7,-1
 814 620 l 1,8,-1
 754 262 l 2,9,10
 642 -410 642 -410 260 -410 c 0,11,12
 184 -410 184 -410 124 -376 c 128,-1,13
 64 -342 64 -342 64 -288 c 0,14,15
 64 -260 64 -260 84 -233 c 128,-1,16
 104 -206 104 -206 142 -206 c 0,17,18
 206 -206 206 -206 238 -254 c 0,19,20
 246 -266 246 -266 252 -283 c 128,-1,21
 258 -300 258 -300 261 -311 c 128,-1,22
 264 -322 264 -322 270 -330 c 128,-1,23
 276 -338 276 -338 288 -338 c 0,24,25
 488 -338 488 -338 582 218 c 2,26,-1
 650 618 l 1,27,-1
 398 636 l 1,28,-1
 398 678 l 1,29,-1
 662 692 l 1,30,-1
 666 716 l 2,31,32
 692 874 692 874 718 963 c 128,-1,33
 744 1052 744 1052 792 1162 c 1,34,-1
 790 1170 l 1,35,36
 778 1164 778 1164 758 1164 c 0,37,38
 706 1164 706 1164 650 1188 c 0,39,40
 624 1198 624 1198 570 1224 c 128,-1,41
 516 1250 516 1250 479 1262 c 128,-1,42
 442 1274 442 1274 404 1274 c 0,43,44
 372 1274 372 1274 350 1255 c 128,-1,45
 328 1236 328 1236 328 1216 c 0,46,47
 328 1210 328 1210 361 1177 c 128,-1,48
 394 1144 394 1144 394 1116 c 0,49,50
 394 1052 394 1052 326 1052 c 0,51,52
 250 1052 250 1052 250 1142 c 0,53,54
 250 1218 250 1218 319 1288 c 128,-1,55
 388 1358 388 1358 522 1358 c 0,56,57
 604 1358 604 1358 826 1256 c 1,58,59
 834 1304 834 1304 864 1345 c 128,-1,60
 894 1386 894 1386 940 1386 c 0,61,62
 1016 1386 1016 1386 1015 1329 c 128,-1,63
 1014 1272 1014 1272 890 1188 c 1,0,1
EndSplineSet
Substitution2: "'c2sc' Capitals to Small Capitals lookup 12 subtable" j.sc
Position2: "'cpsp' Capital Spacing lookup 0 subtable" dx=4 dy=0 dh=10 dv=0
EndChar

StartChar: K
Encoding: 75 75 36
Width: 1304
GlyphClass: 2
Flags: W
AnchorPoint: "Anchor-6" 598 -226 basechar 0
AnchorPoint: "Anchor-5" 304 -2 basechar 0
AnchorPoint: "Anchor-2" 954 1740 basechar 0
LayerCount: 2
Fore
SplineSet
436 1166 m 2,0,1
 442 1196 442 1196 436 1215 c 128,-1,2
 430 1234 430 1234 409 1245 c 128,-1,3
 388 1256 388 1256 346 1260 c 2,4,-1
 276 1266 l 1,5,6
 272 1274 272 1274 275 1296 c 128,-1,7
 278 1318 278 1318 282 1326 c 1,8,9
 462 1322 462 1322 542 1320 c 0,10,11
 604 1320 604 1320 788 1326 c 1,12,13
 794 1312 794 1312 792 1292 c 128,-1,14
 790 1272 790 1272 784 1266 c 1,15,-1
 720 1260 l 2,16,17
 658 1254 658 1254 631 1232 c 128,-1,18
 604 1210 604 1210 594 1166 c 2,19,-1
 504 710 l 1,20,21
 596 716 596 716 678 790 c 2,22,-1
 1080 1150 l 2,23,24
 1140 1206 1140 1206 1138 1232 c 0,25,26
 1138 1254 1138 1254 1092 1262 c 2,27,-1
 1052 1266 l 2,28,29
 1036 1266 1036 1266 1040 1282 c 2,30,-1
 1046 1320 l 1,31,-1
 1052 1326 l 1,32,33
 1236 1322 1236 1322 1280 1320 c 0,34,35
 1288 1320 1288 1320 1472 1326 c 1,36,-1
 1478 1320 l 1,37,-1
 1470 1282 l 2,38,39
 1466 1266 1466 1266 1446 1266 c 1,40,41
 1394 1260 1394 1260 1362 1252 c 128,-1,42
 1330 1244 1330 1244 1278 1217 c 128,-1,43
 1226 1190 1226 1190 1176 1142 c 2,44,-1
 840 834 l 2,45,46
 754 754 754 754 748 734 c 1,47,48
 744 708 744 708 762 682 c 1,49,-1
 1090 150 l 1,50,51
 1136 70 1136 70 1224 58 c 1,52,-1
 1236 56 l 2,53,54
 1252 52 1252 52 1252 38 c 2,55,-1
 1246 0 l 1,56,-1
 1236 -4 l 1,57,58
 1052 0 1052 0 1034 0 c 0,59,60
 976 0 976 0 894 -4 c 1,61,-1
 892 0 l 1,62,-1
 894 12 l 1,63,64
 902 46 902 46 904 72 c 0,65,66
 904 116 904 116 882 150 c 2,67,-1
 642 556 l 1,68,69
 598 634 598 634 490 632 c 1,70,-1
 494 658 l 1,71,-1
 396 156 l 2,72,73
 386 108 386 108 406 88 c 128,-1,74
 426 68 426 68 486 62 c 2,75,-1
 556 56 l 1,76,77
 558 50 558 50 558 37 c 128,-1,78
 558 24 558 24 554 12 c 128,-1,79
 550 0 550 0 548 -4 c 1,80,81
 368 0 368 0 288 0 c 0,82,83
 226 0 226 0 44 -4 c 1,84,85
 38 10 38 10 39 30 c 128,-1,86
 40 50 40 50 48 56 c 1,87,-1
 110 62 l 2,88,89
 172 68 172 68 201 89 c 128,-1,90
 230 110 230 110 238 156 c 2,91,-1
 436 1166 l 2,0,1
EndSplineSet
Substitution2: "'ss02' Style Set 2 lookup 24 subtable" K.alt
Substitution2: "'c2sc' Capitals to Small Capitals lookup 12 subtable" k.sc
AlternateSubs2: "'aalt' Access All Alternates lookup 2 subtable" K.alt k.sc
Position2: "'cpsp' Capital Spacing lookup 0 subtable" dx=4 dy=0 dh=10 dv=0
EndChar

StartChar: L
Encoding: 76 76 37
Width: 1062
GlyphClass: 2
Flags: W
AnchorPoint: "Anchor-6" 516 -226 basechar 0
AnchorPoint: "Anchor-5" 532 2 basechar 0
AnchorPoint: "Anchor-2" 796 1740 basechar 0
LayerCount: 2
Fore
SplineSet
240 156 m 2,0,-1
 436 1166 l 2,1,2
 444 1214 444 1214 425 1234 c 128,-1,3
 406 1254 406 1254 346 1260 c 2,4,-1
 276 1266 l 1,5,6
 272 1274 272 1274 275 1296 c 128,-1,7
 278 1318 278 1318 282 1326 c 1,8,9
 462 1322 462 1322 542 1320 c 0,10,11
 604 1320 604 1320 788 1326 c 1,12,13
 794 1312 794 1312 792 1292 c 128,-1,14
 790 1272 790 1272 784 1266 c 1,15,-1
 720 1260 l 2,16,17
 658 1254 658 1254 630 1232 c 128,-1,18
 602 1210 602 1210 594 1166 c 2,19,-1
 402 182 l 2,20,21
 400 168 400 168 400 156 c 0,22,23
 400 120 400 120 419 100 c 128,-1,24
 438 80 438 80 476 80 c 2,25,-1
 700 80 l 2,26,27
 878 80 878 80 1002 348 c 1,28,29
 1036 356 1036 356 1058 334 c 1,30,31
 974 126 974 126 940 -4 c 1,32,33
 760 0 760 0 706 0 c 2,34,-1
 290 0 l 2,35,36
 228 0 228 0 46 -4 c 1,37,38
 40 10 40 10 42 30 c 128,-1,39
 44 50 44 50 50 56 c 1,40,-1
 112 62 l 2,41,42
 174 68 174 68 203 89 c 128,-1,43
 232 110 232 110 240 156 c 2,0,-1
EndSplineSet
Substitution2: "'c2sc' Capitals to Small Capitals lookup 12 subtable" l.sc
Position2: "'cpsp' Capital Spacing lookup 0 subtable" dx=4 dy=0 dh=10 dv=0
EndChar

StartChar: M
Encoding: 77 77 38
Width: 1646
GlyphClass: 2
Flags: W
AnchorPoint: "Anchor-6" 744 -226 basechar 0
AnchorPoint: "Anchor-5" 224 4 basechar 0
AnchorPoint: "Anchor-2" 1140 1740 basechar 0
LayerCount: 2
Fore
SplineSet
1342 178 m 2,0,-1
 1464 1094 l 1,1,-1
 1460 1094 l 1,2,-1
 806 10 l 2,3,4
 792 -12 792 -12 776 -12 c 0,5,6
 756 -12 756 -12 750 10 c 2,7,-1
 550 1074 l 1,8,-1
 546 1074 l 1,9,-1
 288 176 l 2,10,11
 280 146 280 146 280 122 c 0,12,13
 280 62 280 62 334 60 c 2,14,-1
 382 56 l 2,15,16
 398 56 398 56 400 38 c 2,17,-1
 398 0 l 1,18,-1
 392 -4 l 1,19,20
 278 0 278 0 210 0 c 0,21,22
 154 0 154 0 36 -4 c 1,23,-1
 32 0 l 1,24,-1
 36 38 l 2,25,26
 38 54 38 54 58 56 c 2,27,-1
 110 60 l 2,28,29
 184 64 184 64 212 176 c 1,30,-1
 502 1176 l 2,31,32
 508 1202 508 1202 508 1216 c 0,33,34
 508 1238 508 1238 494 1249 c 128,-1,35
 480 1260 480 1260 442 1262 c 2,36,-1
 388 1266 l 2,37,38
 378 1266 378 1266 374 1270 c 128,-1,39
 370 1274 370 1274 370 1280 c 2,40,-1
 374 1320 l 1,41,-1
 378 1326 l 1,42,-1
 674 1324 l 1,43,-1
 874 280 l 1,44,45
 876 254 876 254 884 254 c 0,46,47
 890 254 890 254 908 282 c 2,48,-1
 1528 1326 l 1,49,-1
 1786 1326 l 1,50,-1
 1790 1320 l 1,51,-1
 1786 1280 l 2,52,53
 1784 1268 1784 1268 1762 1266 c 2,54,-1
 1708 1262 l 2,55,56
 1626 1256 1626 1256 1616 1176 c 2,57,-1
 1490 178 l 2,58,59
 1486 152 1486 152 1486 134 c 0,60,61
 1486 64 1486 64 1548 60 c 2,62,-1
 1602 56 l 2,63,64
 1612 56 1612 56 1616 52 c 128,-1,65
 1620 48 1620 48 1620 38 c 2,66,-1
 1616 0 l 1,67,-1
 1612 -4 l 1,68,69
 1428 0 1428 0 1390 0 c 0,70,71
 1368 0 1368 0 1180 -4 c 1,72,-1
 1176 0 l 1,73,-1
 1180 38 l 2,74,75
 1182 52 1182 52 1200 56 c 2,76,-1
 1254 60 l 2,77,78
 1290 62 1290 62 1313 97 c 128,-1,79
 1336 132 1336 132 1342 178 c 2,0,-1
EndSplineSet
Substitution2: "'c2sc' Capitals to Small Capitals lookup 12 subtable" m.sc
Position2: "'cpsp' Capital Spacing lookup 0 subtable" dx=4 dy=0 dh=10 dv=0
EndChar

StartChar: N
Encoding: 78 78 39
Width: 1362
GlyphClass: 2
Flags: W
AnchorPoint: "Anchor-6" 672 -224 basechar 0
AnchorPoint: "Anchor-5" 260 -8 basechar 0
AnchorPoint: "Anchor-2" 974 1740 basechar 0
LayerCount: 2
Fore
SplineSet
1406 1140 m 2,0,-1
 1194 44 l 2,1,2
 1180 -20 1180 -20 1140 -20 c 0,3,4
 1092 -20 1092 -20 1072 28 c 1,5,-1
 562 932 l 1,6,7
 522 1000 522 1000 506 1000 c 0,8,9
 488 1000 488 1000 466 900 c 2,10,-1
 328 180 l 2,11,12
 324 164 324 164 324 150 c 0,13,14
 324 66 324 66 412 60 c 2,15,-1
 462 56 l 2,16,17
 476 54 476 54 476 38 c 2,18,-1
 472 0 l 1,19,-1
 466 -4 l 1,20,21
 282 0 282 0 254 0 c 0,22,23
 214 0 214 0 28 -4 c 1,24,-1
 24 0 l 1,25,-1
 28 36 l 2,26,27
 30 52 30 52 58 56 c 2,28,-1
 108 60 l 2,29,30
 214 68 214 68 240 180 c 1,31,-1
 424 1126 l 1,32,33
 422 1172 422 1172 391 1217 c 128,-1,34
 360 1262 360 1262 316 1266 c 0,35,36
 286 1270 286 1270 286 1282 c 2,37,-1
 290 1320 l 1,38,-1
 296 1326 l 1,39,-1
 568 1326 l 1,40,-1
 1064 416 l 2,41,42
 1128 304 1128 304 1142 304 c 0,43,44
 1154 304 1154 304 1168 364 c 2,45,-1
 1318 1140 l 2,46,47
 1322 1156 1322 1156 1324 1172 c 0,48,49
 1324 1256 1324 1256 1234 1262 c 2,50,-1
 1186 1266 l 2,51,52
 1160 1268 1160 1268 1162 1282 c 2,53,-1
 1168 1320 l 1,54,-1
 1172 1326 l 1,55,56
 1356 1322 1356 1322 1396 1320 c 0,57,58
 1424 1320 1424 1320 1610 1326 c 1,59,-1
 1614 1320 l 1,60,-1
 1610 1282 l 2,61,62
 1608 1268 1608 1268 1592 1266 c 2,63,-1
 1536 1262 l 2,64,65
 1428 1252 1428 1252 1406 1140 c 2,0,-1
EndSplineSet
Substitution2: "'c2sc' Capitals to Small Capitals lookup 12 subtable" n.sc
Position2: "'cpsp' Capital Spacing lookup 0 subtable" dx=4 dy=0 dh=10 dv=0
EndChar

StartChar: O
Encoding: 79 79 40
Width: 1368
GlyphClass: 2
Flags: W
AnchorPoint: "Anchor-6" 634 -232 basechar 0
AnchorPoint: "Anchor-5" 716 0 basechar 0
AnchorPoint: "Anchor-2" 1054 1740 basechar 0
AnchorPoint: "Anchor-0" 1496 1242 basechar 0
LayerCount: 2
Fore
SplineSet
892 1278 m 0,0,1
 822 1278 822 1278 748 1242 c 128,-1,2
 674 1206 674 1206 602 1137 c 128,-1,3
 530 1068 530 1068 471 946 c 128,-1,4
 412 824 412 824 382 670 c 0,5,6
 364 580 364 580 364 500 c 0,7,8
 364 292 364 292 470 171 c 128,-1,9
 576 50 576 50 732 50 c 0,10,11
 906 50 906 50 1048 208 c 128,-1,12
 1190 366 1190 366 1244 634 c 0,13,14
 1264 744 1264 744 1264 840 c 0,15,16
 1264 1052 1264 1052 1163 1165 c 128,-1,17
 1062 1278 1062 1278 892 1278 c 0,0,1
1432 674 m 0,18,19
 1372 364 1372 364 1165 172 c 128,-1,20
 958 -20 958 -20 678 -20 c 0,21,22
 454 -20 454 -20 316 115 c 128,-1,23
 178 250 178 250 178 480 c 0,24,25
 178 554 178 554 194 634 c 0,26,27
 254 938 254 938 463 1143 c 128,-1,28
 672 1348 672 1348 932 1348 c 0,29,30
 1160 1348 1160 1348 1303 1205 c 128,-1,31
 1446 1062 1446 1062 1446 826 c 0,32,33
 1446 752 1446 752 1432 674 c 0,18,19
EndSplineSet
Substitution2: "'c2sc' Capitals to Small Capitals lookup 12 subtable" o.sc
Position2: "'cpsp' Capital Spacing lookup 0 subtable" dx=4 dy=0 dh=10 dv=0
EndChar

StartChar: P
Encoding: 80 80 41
Width: 1020
GlyphClass: 2
Flags: W
AnchorPoint: "Anchor-6" 286 -226 basechar 0
AnchorPoint: "Anchor-5" 308 -6 basechar 0
AnchorPoint: "Anchor-2" 872 1740 basechar 0
LayerCount: 2
Fore
SplineSet
596 1176 m 2,0,-1
 496 658 l 1,1,2
 530 648 530 648 632 648 c 0,3,4
 780 648 780 648 869 722 c 128,-1,5
 958 796 958 796 990 958 c 0,6,7
 1002 1018 1002 1018 1002 1064 c 0,8,9
 1002 1268 1002 1268 774 1270 c 0,10,11
 676 1270 676 1270 640 1248 c 128,-1,12
 604 1226 604 1226 596 1176 c 2,0,-1
236 146 m 2,13,-1
 436 1176 l 2,14,15
 438 1186 438 1186 438 1196 c 0,16,17
 438 1228 438 1228 417 1244 c 128,-1,18
 396 1260 396 1260 366 1262 c 2,19,-1
 290 1266 l 2,20,21
 278 1266 278 1266 280 1278 c 2,22,-1
 288 1320 l 1,23,-1
 294 1326 l 1,24,25
 438 1322 438 1322 544 1320 c 0,26,27
 588 1320 588 1320 684 1330 c 128,-1,28
 780 1340 780 1340 802 1340 c 0,29,30
 910 1340 910 1340 987 1314 c 128,-1,31
 1064 1288 1064 1288 1103 1245 c 128,-1,32
 1142 1202 1142 1202 1159 1157 c 128,-1,33
 1176 1112 1176 1112 1176 1060 c 0,34,35
 1176 1028 1176 1028 1170 996 c 0,36,37
 1160 940 1160 940 1136 885 c 128,-1,38
 1112 830 1112 830 1068 773 c 128,-1,39
 1024 716 1024 716 966 673 c 128,-1,40
 908 630 908 630 820 604 c 128,-1,41
 732 578 732 578 628 578 c 0,42,43
 542 578 542 578 484 598 c 1,44,-1
 396 146 l 2,45,46
 394 132 394 132 394 120 c 0,47,48
 394 90 394 90 415 76 c 128,-1,49
 436 62 436 62 486 60 c 2,50,-1
 558 56 l 2,51,52
 574 56 574 56 570 38 c 2,53,-1
 562 0 l 1,54,-1
 558 -4 l 1,55,56
 374 0 374 0 288 0 c 0,57,58
 180 0 180 0 36 -4 c 1,59,-1
 32 0 l 1,60,-1
 40 38 l 2,61,62
 44 54 44 54 60 56 c 2,63,-1
 110 60 l 2,64,65
 170 64 170 64 199 83 c 128,-1,66
 228 102 228 102 236 146 c 2,13,-1
EndSplineSet
Substitution2: "'c2sc' Capitals to Small Capitals lookup 12 subtable" p.sc
Position2: "'cpsp' Capital Spacing lookup 0 subtable" dx=4 dy=0 dh=10 dv=0
EndChar

StartChar: Q
Encoding: 81 81 42
Width: 1368
GlyphClass: 2
Flags: W
AnchorPoint: "Anchor-2" 1020 1740 basechar 0
AnchorPoint: "Anchor-0" 1474 1242 basechar 0
LayerCount: 2
Fore
SplineSet
892 1278 m 0,0,1
 822 1278 822 1278 748 1242 c 128,-1,2
 674 1206 674 1206 602 1137 c 128,-1,3
 530 1068 530 1068 471 946 c 128,-1,4
 412 824 412 824 382 670 c 0,5,6
 364 580 364 580 364 500 c 0,7,8
 364 292 364 292 470 171 c 128,-1,9
 576 50 576 50 732 50 c 0,10,11
 906 50 906 50 1048 208 c 128,-1,12
 1190 366 1190 366 1244 634 c 0,13,14
 1264 744 1264 744 1264 840 c 0,15,16
 1264 1052 1264 1052 1163 1165 c 128,-1,17
 1062 1278 1062 1278 892 1278 c 0,0,1
260 -262 m 1,18,19
 412 -110 412 -110 604 -16 c 1,20,21
 410 6 410 6 294 138 c 128,-1,22
 178 270 178 270 178 480 c 0,23,24
 178 554 178 554 194 634 c 0,25,26
 254 938 254 938 463 1143 c 128,-1,27
 672 1348 672 1348 932 1348 c 0,28,29
 1160 1348 1160 1348 1303 1205 c 128,-1,30
 1446 1062 1446 1062 1446 826 c 0,31,32
 1446 752 1446 752 1432 674 c 0,33,34
 1378 406 1378 406 1213 221 c 128,-1,35
 1048 36 1048 36 816 -8 c 1,36,37
 676 -42 676 -42 518 -146 c 1,38,39
 540 -144 540 -144 558 -144 c 0,40,41
 632 -144 632 -144 706 -170 c 128,-1,42
 780 -196 780 -196 832 -227 c 128,-1,43
 884 -258 884 -258 950 -285 c 128,-1,44
 1016 -312 1016 -312 1074 -312 c 0,45,46
 1186 -312 1186 -312 1260 -236 c 1,47,-1
 1288 -260 l 1,48,49
 1214 -348 1214 -348 1138 -388 c 128,-1,50
 1062 -428 1062 -428 972 -428 c 0,51,52
 886 -428 886 -428 809 -397 c 128,-1,53
 732 -366 732 -366 683 -330 c 128,-1,54
 634 -294 634 -294 571 -264 c 128,-1,55
 508 -234 508 -234 448 -234 c 0,56,57
 416 -234 416 -234 374 -258 c 1,58,59
 324 -304 324 -304 280 -354 c 1,60,-1
 212 -314 l 1,61,62
 232 -286 232 -286 260 -262 c 1,18,19
EndSplineSet
Substitution2: "'c2sc' Capitals to Small Capitals lookup 12 subtable" q.sc
Position2: "'cpsp' Capital Spacing lookup 0 subtable" dx=4 dy=0 dh=10 dv=0
EndChar

StartChar: R
Encoding: 82 82 43
Width: 1136
GlyphClass: 2
Flags: W
AnchorPoint: "Anchor-6" 508 -228 basechar 0
AnchorPoint: "Anchor-5" 304 -2 basechar 0
AnchorPoint: "Anchor-2" 858 1740 basechar 0
LayerCount: 2
Fore
SplineSet
780 1270 m 0,0,1
 728 1270 728 1270 694 1264 c 128,-1,2
 660 1258 660 1258 639 1244 c 128,-1,3
 618 1230 618 1230 609 1215 c 128,-1,4
 600 1200 600 1200 596 1176 c 2,5,-1
 496 666 l 1,6,-1
 594 666 l 2,7,8
 638 666 638 666 674 670 c 128,-1,9
 710 674 710 674 747 683 c 128,-1,10
 784 692 784 692 815 707 c 128,-1,11
 846 722 846 722 875 747 c 128,-1,12
 904 772 904 772 926 805 c 128,-1,13
 948 838 948 838 966 882 c 128,-1,14
 984 926 984 926 994 978 c 0,15,16
 1004 1028 1004 1028 1004 1068 c 0,17,18
 1004 1270 1004 1270 780 1270 c 0,0,1
792 1340 m 0,19,20
 904 1340 904 1340 982 1320 c 128,-1,21
 1060 1300 1060 1300 1112 1236 c 0,22,23
 1176 1158 1176 1158 1176 1058 c 0,24,25
 1176 1022 1176 1022 1168 980 c 0,26,27
 1154 904 1154 904 1113 840 c 128,-1,28
 1072 776 1072 776 1019 735 c 128,-1,29
 966 694 966 694 921 669 c 128,-1,30
 876 644 876 644 838 630 c 1,31,-1
 1002 200 l 2,32,33
 1032 120 1032 120 1066 82 c 128,-1,34
 1100 44 1100 44 1160 44 c 1,35,-1
 1154 -6 l 1,36,37
 1124 -20 1124 -20 1068 -20 c 0,38,39
 916 -20 916 -20 842 162 c 1,40,-1
 702 518 l 1,41,42
 684 558 684 558 640 577 c 128,-1,43
 596 596 596 596 484 596 c 1,44,-1
 396 148 l 2,45,46
 394 134 394 134 394 120 c 0,47,48
 394 90 394 90 415 77 c 128,-1,49
 436 64 436 64 486 60 c 2,50,-1
 536 56 l 2,51,52
 552 56 552 56 548 38 c 2,53,-1
 542 0 l 1,54,-1
 536 -4 l 1,55,56
 352 0 352 0 287 0 c 128,-1,57
 222 0 222 0 36 -4 c 1,58,-1
 32 0 l 1,59,-1
 40 38 l 2,60,61
 44 54 44 54 60 56 c 2,62,-1
 110 60 l 2,63,64
 172 64 172 64 200 84 c 128,-1,65
 228 104 228 104 236 148 c 2,66,-1
 436 1176 l 2,67,68
 438 1186 438 1186 438 1196 c 0,69,70
 438 1228 438 1228 417 1244 c 128,-1,71
 396 1260 396 1260 366 1262 c 2,72,-1
 290 1266 l 2,73,74
 278 1266 278 1266 280 1278 c 2,75,-1
 288 1320 l 1,76,-1
 294 1326 l 1,77,78
 478 1322 478 1322 542 1320 c 0,79,80
 574 1320 574 1320 627 1326 c 128,-1,81
 680 1332 680 1332 726 1336 c 128,-1,82
 772 1340 772 1340 792 1340 c 0,19,20
EndSplineSet
Substitution2: "'ss02' Style Set 2 lookup 24 subtable" R.alt
Substitution2: "'c2sc' Capitals to Small Capitals lookup 12 subtable" r.sc
AlternateSubs2: "'aalt' Access All Alternates lookup 2 subtable" R.alt r.sc
Position2: "'cpsp' Capital Spacing lookup 0 subtable" dx=4 dy=0 dh=10 dv=0
EndChar

StartChar: S
Encoding: 83 83 44
Width: 928
GlyphClass: 2
Flags: W
AnchorPoint: "Anchor-6" 418 -228 basechar 0
AnchorPoint: "Anchor-5" 458 4 basechar 0
AnchorPoint: "Anchor-2" 824 1740 basechar 0
LayerCount: 2
Fore
SplineSet
1010 1282 m 1,0,1
 1008 1248 1008 1248 1005 1209 c 128,-1,2
 1002 1170 1002 1170 1000 1145 c 128,-1,3
 998 1120 998 1120 996 1086 c 128,-1,4
 994 1052 994 1052 994 1018 c 1,5,-1
 930 1022 l 1,6,7
 926 1070 926 1070 920 1101 c 128,-1,8
 914 1132 914 1132 898 1169 c 128,-1,9
 882 1206 882 1206 860 1228 c 128,-1,10
 838 1250 838 1250 798 1264 c 128,-1,11
 758 1278 758 1278 702 1278 c 0,12,13
 606 1278 606 1278 533 1221 c 128,-1,14
 460 1164 460 1164 442 1070 c 0,15,16
 438 1050 438 1050 438 1028 c 0,17,18
 438 976 438 976 462 932 c 128,-1,19
 486 888 486 888 524 856 c 128,-1,20
 562 824 562 824 592 804 c 128,-1,21
 622 784 622 784 656 770 c 0,22,23
 716 744 716 744 758 716 c 128,-1,24
 800 688 800 688 843 647 c 128,-1,25
 886 606 886 606 910 552 c 128,-1,26
 934 498 934 498 934 434 c 0,27,28
 934 398 934 398 926 356 c 0,29,30
 896 200 896 200 753 90 c 128,-1,31
 610 -20 610 -20 440 -20 c 0,32,33
 352 -20 352 -20 255 -5 c 128,-1,34
 158 10 158 10 104 10 c 1,35,36
 122 126 122 126 132 338 c 1,37,-1
 192 344 l 1,38,39
 194 54 194 54 472 54 c 0,40,41
 710 54 710 54 754 284 c 0,42,43
 762 328 762 328 762 360 c 0,44,45
 762 420 762 420 737 466 c 128,-1,46
 712 512 712 512 678 541 c 128,-1,47
 644 570 644 570 592 596 c 0,48,49
 542 620 542 620 504 642 c 128,-1,50
 466 664 466 664 423 698 c 128,-1,51
 380 732 380 732 354 765 c 128,-1,52
 328 798 328 798 309 845 c 128,-1,53
 290 892 290 892 290 946 c 0,54,55
 290 978 290 978 296 1014 c 0,56,57
 326 1168 326 1168 460 1258 c 128,-1,58
 594 1348 594 1348 736 1348 c 0,59,60
 842 1348 842 1348 911 1317 c 128,-1,61
 980 1286 980 1286 1010 1282 c 1,0,1
EndSplineSet
Substitution2: "'c2sc' Capitals to Small Capitals lookup 12 subtable" s.sc
Position2: "'cpsp' Capital Spacing lookup 0 subtable" dx=4 dy=0 dh=10 dv=0
EndChar

StartChar: T
Encoding: 84 84 45
Width: 1114
GlyphClass: 2
Flags: W
AnchorPoint: "Anchor-6" 568 -224 basechar 0
AnchorPoint: "Anchor-5" 610 20 basechar 0
AnchorPoint: "Anchor-2" 936 1740 basechar 0
LayerCount: 2
Fore
SplineSet
468 1320 m 2,0,-1
 1154 1320 l 2,1,2
 1186 1320 1186 1320 1211 1325 c 128,-1,3
 1236 1330 1236 1330 1267 1337 c 128,-1,4
 1298 1344 1298 1344 1320 1348 c 1,5,6
 1312 1218 1312 1218 1344 1060 c 1,7,8
 1320 1050 1320 1050 1282 1050 c 1,9,10
 1256 1158 1256 1158 1221 1200 c 128,-1,11
 1186 1242 1186 1242 1110 1242 c 2,12,-1
 1000 1242 l 2,13,14
 946 1242 946 1242 923 1224 c 128,-1,15
 900 1206 900 1206 888 1156 c 2,16,-1
 694 156 l 2,17,18
 688 126 688 126 694 106 c 128,-1,19
 700 86 700 86 722 76 c 128,-1,20
 744 66 744 66 784 62 c 2,21,-1
 854 56 l 1,22,23
 856 50 856 50 856 37 c 128,-1,24
 856 24 856 24 853 12 c 128,-1,25
 850 0 850 0 848 -4 c 1,26,27
 668 0 668 0 588 0 c 0,28,29
 526 0 526 0 342 -4 c 1,30,31
 336 10 336 10 338 30 c 128,-1,32
 340 50 340 50 346 56 c 1,33,-1
 410 62 l 2,34,35
 472 68 472 68 499 89 c 128,-1,36
 526 110 526 110 536 156 c 2,37,-1
 732 1162 l 2,38,39
 740 1210 740 1210 724 1226 c 128,-1,40
 708 1242 708 1242 650 1242 c 2,41,-1
 508 1242 l 2,42,43
 426 1242 426 1242 380 1205 c 128,-1,44
 334 1168 334 1168 288 1064 c 1,45,46
 250 1064 250 1064 228 1082 c 1,47,48
 298 1250 298 1250 324 1348 c 1,49,50
 330 1346 330 1346 384 1333 c 128,-1,51
 438 1320 438 1320 468 1320 c 2,0,-1
EndSplineSet
Substitution2: "'c2sc' Capitals to Small Capitals lookup 12 subtable" t.sc
Position2: "'cpsp' Capital Spacing lookup 0 subtable" dx=4 dy=0 dh=10 dv=0
EndChar

StartChar: U
Encoding: 85 85 46
Width: 1298
GlyphClass: 2
Flags: W
AnchorPoint: "Anchor-6" 630 -224 basechar 0
AnchorPoint: "Anchor-5" 672 8 basechar 0
AnchorPoint: "Anchor-2" 996 1740 basechar 0
LayerCount: 2
Fore
SplineSet
626 -20 m 0,0,1
 586 -20 586 -20 546 -14 c 128,-1,2
 506 -8 506 -8 462 7 c 128,-1,3
 418 22 418 22 382 50 c 128,-1,4
 346 78 346 78 316 116 c 128,-1,5
 286 154 286 154 270 211 c 128,-1,6
 254 268 254 268 254 340 c 0,7,8
 254 406 254 406 268 484 c 2,9,-1
 404 1172 l 2,10,11
 406 1186 406 1186 406 1198 c 0,12,13
 406 1228 406 1228 384 1243 c 128,-1,14
 362 1258 362 1258 314 1262 c 2,15,-1
 262 1266 l 2,16,17
 246 1266 246 1266 250 1282 c 2,18,-1
 256 1320 l 1,19,-1
 262 1326 l 1,20,21
 446 1322 446 1322 510 1320 c 0,22,23
 578 1320 578 1320 762 1326 c 1,24,-1
 766 1320 l 1,25,-1
 758 1282 l 2,26,27
 754 1266 754 1266 740 1266 c 2,28,-1
 688 1262 l 2,29,30
 626 1258 626 1258 599 1236 c 128,-1,31
 572 1214 572 1214 562 1172 c 2,32,-1
 440 550 l 1,33,34
 416 410 416 410 416 350 c 0,35,36
 416 238 416 238 472 166 c 0,37,38
 554 64 554 64 684 64 c 0,39,40
 754 64 754 64 812 80 c 128,-1,41
 870 96 870 96 913 123 c 128,-1,42
 956 150 956 150 991 191 c 128,-1,43
 1026 232 1026 232 1050 273 c 128,-1,44
 1074 314 1074 314 1093 368 c 128,-1,45
 1112 422 1112 422 1123 466 c 128,-1,46
 1134 510 1134 510 1144 568 c 2,47,-1
 1262 1168 l 2,48,49
 1266 1184 1266 1184 1266 1196 c 0,50,51
 1266 1216 1266 1216 1256 1231 c 128,-1,52
 1246 1246 1246 1246 1226 1253 c 128,-1,53
 1206 1260 1206 1260 1174 1262 c 2,54,-1
 1120 1266 l 2,55,56
 1104 1266 1104 1266 1108 1282 c 2,57,-1
 1116 1320 l 1,58,-1
 1120 1326 l 1,59,60
 1304 1322 1304 1322 1336 1320 c 0,61,62
 1368 1320 1368 1320 1552 1326 c 1,63,-1
 1556 1320 l 1,64,-1
 1548 1282 l 2,65,66
 1544 1266 1544 1266 1530 1266 c 2,67,-1
 1478 1262 l 2,68,69
 1416 1258 1416 1258 1388 1235 c 128,-1,70
 1360 1212 1360 1212 1352 1168 c 2,71,-1
 1242 604 l 1,72,73
 1184 300 1184 300 1046 140 c 128,-1,74
 908 -20 908 -20 626 -20 c 0,0,1
EndSplineSet
Substitution2: "'c2sc' Capitals to Small Capitals lookup 12 subtable" u.sc
Position2: "'cpsp' Capital Spacing lookup 0 subtable" dx=4 dy=0 dh=10 dv=0
EndChar

StartChar: V
Encoding: 86 86 47
Width: 1222
GlyphClass: 2
Flags: W
AnchorPoint: "Anchor-6" 538 -226 basechar 0
AnchorPoint: "Anchor-5" 620 6 basechar 0
AnchorPoint: "Anchor-2" 986 1740 basechar 0
LayerCount: 2
Fore
SplineSet
1264 1132 m 2,0,1
 1330 1248 1330 1248 1476 1266 c 1,2,3
 1486 1274 1486 1274 1486 1294 c 128,-1,4
 1486 1314 1486 1314 1476 1326 c 1,5,6
 1324 1322 1324 1322 1284 1320 c 0,7,8
 1222 1320 1222 1320 1058 1326 c 1,9,10
 1048 1316 1048 1316 1048 1295 c 128,-1,11
 1048 1274 1048 1274 1058 1266 c 1,12,13
 1142 1260 1142 1260 1173 1233 c 128,-1,14
 1204 1206 1204 1206 1174 1148 c 2,15,-1
 696 260 l 1,16,17
 688 252 688 252 682 260 c 1,18,-1
 550 1172 l 2,19,20
 544 1220 544 1220 588 1241 c 128,-1,21
 632 1262 632 1262 698 1266 c 1,22,23
 708 1274 708 1274 708 1294 c 128,-1,24
 708 1314 708 1314 698 1326 c 1,25,26
 562 1322 562 1322 450 1320 c 0,27,28
 396 1320 396 1320 234 1326 c 1,29,30
 226 1316 226 1316 226 1295 c 128,-1,31
 226 1274 226 1274 234 1266 c 1,32,33
 280 1260 280 1260 294 1257 c 128,-1,34
 308 1254 308 1254 333 1241 c 128,-1,35
 358 1228 358 1228 368 1204 c 128,-1,36
 378 1180 378 1180 386 1138 c 2,37,-1
 550 22 l 2,38,39
 556 -26 556 -26 588 -24 c 0,40,41
 616 -24 616 -24 644 22 c 2,42,-1
 1264 1132 l 2,0,1
EndSplineSet
Substitution2: "'c2sc' Capitals to Small Capitals lookup 12 subtable" v.sc
AlternateSubs2: "'aalt' Access All Alternates lookup 2 subtable" V.alt
Position2: "'cpsp' Capital Spacing lookup 0 subtable" dx=4 dy=0 dh=10 dv=0
EndChar

StartChar: W
Encoding: 87 87 48
Width: 1860
GlyphClass: 2
Flags: W
AnchorPoint: "Anchor-6" 900 -220 basechar 0
AnchorPoint: "Anchor-5" 594 0 basechar 0
AnchorPoint: "Anchor-2" 1250 1740 basechar 0
LayerCount: 2
Fore
SplineSet
444 1118 m 2,0,1
 440 1144 440 1144 435 1166 c 128,-1,2
 430 1188 430 1188 420 1202 c 128,-1,3
 410 1216 410 1216 398 1226 c 128,-1,4
 386 1236 386 1236 367 1244 c 128,-1,5
 348 1252 348 1252 330 1257 c 128,-1,6
 312 1262 312 1262 284 1266 c 1,7,8
 276 1274 276 1274 276 1294 c 128,-1,9
 276 1314 276 1314 284 1326 c 1,10,11
 432 1322 432 1322 506 1320 c 0,12,13
 616 1320 616 1320 752 1326 c 1,14,15
 762 1316 762 1316 762 1295 c 128,-1,16
 762 1274 762 1274 752 1266 c 1,17,18
 686 1262 686 1262 644 1240 c 128,-1,19
 602 1218 602 1218 606 1172 c 2,20,-1
 676 446 l 1,21,-1
 690 312 l 1,22,-1
 768 442 l 1,23,-1
 1172 1196 l 1,24,-1
 1260 1196 l 1,25,26
 1274 1064 1274 1064 1282 996 c 2,27,-1
 1348 424 l 1,28,-1
 1362 300 l 1,29,-1
 1438 440 l 1,30,-1
 1820 1148 l 2,31,32
 1850 1204 1850 1204 1813 1232 c 128,-1,33
 1776 1260 1776 1260 1690 1266 c 1,34,35
 1682 1274 1682 1274 1682 1294 c 128,-1,36
 1682 1314 1682 1314 1690 1326 c 1,37,38
 1854 1322 1854 1322 1922 1320 c 0,39,40
 1988 1320 1988 1320 2122 1326 c 1,41,42
 2132 1316 2132 1316 2132 1295 c 128,-1,43
 2132 1274 2132 1274 2122 1266 c 1,44,45
 2046 1258 2046 1258 2002 1224 c 128,-1,46
 1958 1190 1958 1190 1926 1132 c 2,47,-1
 1308 22 l 2,48,49
 1294 -4 1294 -4 1286 -12 c 128,-1,50
 1278 -20 1278 -20 1266 -20 c 0,51,52
 1238 -20 1238 -20 1230 24 c 2,53,-1
 1144 752 l 2,54,55
 1140 782 1140 782 1137 807 c 128,-1,56
 1134 832 1134 832 1131 852 c 128,-1,57
 1128 872 1128 872 1126 888 c 0,58,59
 1124 894 1124 894 1116 894 c 1,60,61
 1110 886 1110 886 1098 863 c 128,-1,62
 1086 840 1086 840 1069 811 c 128,-1,63
 1052 782 1052 782 1040 758 c 2,64,-1
 638 24 l 2,65,66
 622 -4 622 -4 615 -12 c 128,-1,67
 608 -20 608 -20 596 -20 c 0,68,69
 580 -20 580 -20 576 -11 c 128,-1,70
 572 -2 572 -2 568 24 c 2,71,-1
 444 1118 l 2,0,1
EndSplineSet
Substitution2: "'c2sc' Capitals to Small Capitals lookup 12 subtable" w.sc
AlternateSubs2: "'aalt' Access All Alternates lookup 2 subtable" W.alt
Position2: "'cpsp' Capital Spacing lookup 0 subtable" dx=4 dy=0 dh=10 dv=0
EndChar

StartChar: X
Encoding: 88 88 49
Width: 1286
GlyphClass: 2
Flags: W
AnchorPoint: "Anchor-6" 588 -220 basechar 0
AnchorPoint: "Anchor-5" 208 0 basechar 0
AnchorPoint: "Anchor-2" 988 1740 basechar 0
LayerCount: 2
Fore
SplineSet
274 1280 m 2,0,-1
 282 1318 l 1,1,-1
 288 1326 l 1,2,3
 444 1322 444 1322 492 1320 c 0,4,5
 548 1320 548 1320 732 1326 c 1,6,7
 732 1320 732 1320 734 1318 c 2,8,-1
 728 1280 l 2,9,10
 726 1266 726 1266 714 1266 c 2,11,-1
 650 1262 l 2,12,13
 602 1260 602 1260 602 1230 c 0,14,15
 602 1214 602 1214 622 1172 c 2,16,-1
 786 812 l 2,17,18
 798 790 798 790 804 788 c 0,19,20
 814 788 814 788 836 814 c 2,21,-1
 1160 1172 l 2,22,23
 1204 1222 1204 1222 1202 1240 c 0,24,25
 1202 1260 1202 1260 1166 1262 c 2,26,-1
 1108 1266 l 2,27,28
 1094 1266 1094 1266 1096 1280 c 2,29,-1
 1104 1320 l 1,30,-1
 1108 1326 l 1,31,32
 1268 1322 1268 1322 1302 1320 c 0,33,34
 1334 1320 1334 1320 1496 1326 c 1,35,-1
 1500 1320 l 1,36,-1
 1490 1280 l 1,37,38
 1490 1266 1490 1266 1470 1266 c 0,39,40
 1414 1264 1414 1264 1369 1243 c 128,-1,41
 1324 1222 1324 1222 1298 1199 c 128,-1,42
 1272 1176 1272 1176 1228 1130 c 2,43,-1
 902 768 l 2,44,45
 870 732 870 732 862 706 c 0,46,47
 860 700 860 700 860 696 c 0,48,49
 860 676 860 676 880 638 c 2,50,-1
 1100 208 l 1,51,52
 1172 62 1172 62 1278 56 c 0,53,54
 1290 56 1290 56 1290 40 c 1,55,-1
 1282 0 l 1,56,-1
 1278 -4 l 1,57,58
 1118 0 1118 0 1072 0 c 0,59,60
 1010 0 1010 0 826 -4 c 1,61,-1
 820 0 l 1,62,-1
 828 40 l 2,63,64
 832 54 832 54 842 56 c 2,65,-1
 882 60 l 2,66,67
 900 62 900 62 913 64 c 128,-1,68
 926 66 926 66 934 69 c 128,-1,69
 942 72 942 72 945 77 c 128,-1,70
 948 82 948 82 948 90 c 0,71,72
 948 104 948 104 926 150 c 2,73,-1
 742 534 l 2,74,75
 730 556 730 556 716 558 c 0,76,77
 710 558 710 558 682 528 c 1,78,-1
 350 158 l 2,79,80
 312 112 312 112 312 90 c 0,81,82
 312 66 312 66 360 60 c 2,83,-1
 398 56 l 2,84,85
 408 54 408 54 408 40 c 1,86,-1
 400 0 l 1,87,-1
 394 -4 l 1,88,89
 210 0 210 0 172 0 c 0,90,91
 124 0 124 0 6 -4 c 1,92,-1
 6 0 l 1,93,-1
 14 40 l 2,94,95
 16 54 16 54 38 56 c 0,96,97
 92 58 92 58 145 87 c 128,-1,98
 198 116 198 116 228 144 c 128,-1,99
 258 172 258 172 294 212 c 2,100,-1
 638 596 l 2,101,102
 664 624 664 624 668 644 c 0,103,104
 670 650 670 650 670 656 c 0,105,106
 670 676 670 676 652 704 c 1,107,-1
 450 1124 l 2,108,109
 390 1248 390 1248 304 1266 c 1,110,111
 274 1274 274 1274 274 1280 c 2,0,-1
EndSplineSet
Substitution2: "'c2sc' Capitals to Small Capitals lookup 12 subtable" x.sc
Position2: "'cpsp' Capital Spacing lookup 0 subtable" dx=4 dy=0 dh=10 dv=0
EndChar

StartChar: Y
Encoding: 89 89 50
Width: 1130
GlyphClass: 2
Flags: W
AnchorPoint: "Anchor-6" 552 -224 basechar 0
AnchorPoint: "Anchor-5" 600 2 basechar 0
AnchorPoint: "Anchor-2" 890 1740 basechar 0
LayerCount: 2
Fore
SplineSet
688 156 m 2,0,1
 678 108 678 108 698 88 c 128,-1,2
 718 68 718 68 778 62 c 2,3,-1
 848 56 l 1,4,5
 850 50 850 50 850 37 c 128,-1,6
 850 24 850 24 847 12 c 128,-1,7
 844 0 844 0 842 -4 c 1,8,9
 662 0 662 0 582 0 c 0,10,11
 520 0 520 0 336 -4 c 1,12,13
 330 10 330 10 332 30 c 128,-1,14
 334 50 334 50 340 56 c 1,15,-1
 404 62 l 2,16,17
 466 68 466 68 494 90 c 128,-1,18
 522 112 522 112 530 156 c 2,19,-1
 602 530 l 2,20,21
 608 564 608 564 608 582 c 0,22,23
 608 600 608 600 602 618 c 2,24,-1
 414 1120 l 2,25,26
 382 1204 382 1204 361 1230 c 128,-1,27
 340 1256 340 1256 288 1262 c 2,28,-1
 258 1266 l 1,29,30
 254 1274 254 1274 252 1295 c 128,-1,31
 250 1316 250 1316 254 1326 c 1,32,33
 368 1322 368 1322 466 1320 c 0,34,35
 526 1320 526 1320 686 1326 c 1,36,37
 690 1320 690 1320 688 1297 c 128,-1,38
 686 1274 686 1274 682 1266 c 1,39,-1
 614 1260 l 2,40,41
 564 1256 564 1256 558 1238 c 128,-1,42
 552 1220 552 1220 572 1180 c 1,43,-1
 746 686 l 1,44,-1
 754 686 l 1,45,-1
 1078 1180 l 2,46,47
 1108 1226 1108 1226 1106 1241 c 128,-1,48
 1104 1256 1104 1256 1068 1260 c 2,49,-1
 1002 1266 l 1,50,51
 998 1272 998 1272 1000 1295 c 128,-1,52
 1002 1318 1002 1318 1006 1326 c 1,53,54
 1162 1322 1162 1322 1192 1320 c 0,55,56
 1238 1320 1238 1320 1356 1326 c 1,57,58
 1360 1320 1360 1320 1357 1297 c 128,-1,59
 1354 1274 1354 1274 1348 1266 c 1,60,-1
 1294 1262 l 2,61,62
 1244 1258 1244 1258 1218 1235 c 128,-1,63
 1192 1212 1192 1212 1154 1158 c 2,64,-1
 794 634 l 2,65,66
 778 608 778 608 766 548 c 2,67,-1
 688 156 l 2,0,1
EndSplineSet
Substitution2: "'c2sc' Capitals to Small Capitals lookup 12 subtable" y.sc
Position2: "'cpsp' Capital Spacing lookup 0 subtable" dx=4 dy=0 dh=10 dv=0
EndChar

StartChar: Z
Encoding: 90 90 51
Width: 1182
GlyphClass: 2
Flags: W
AnchorPoint: "Anchor-6" 546 -220 basechar 0
AnchorPoint: "Anchor-5" 588 8 basechar 0
AnchorPoint: "Anchor-2" 922 1740 basechar 0
LayerCount: 2
Fore
SplineSet
1082 -4 m 1,0,1
 886 0 886 0 834 0 c 2,2,-1
 116 0 l 2,3,4
 84 0 84 0 84 24 c 0,5,6
 84 50 84 50 110 78 c 1,7,-1
 1090 1186 l 2,8,9
 1110 1208 1110 1208 1112 1222 c 1,10,11
 1118 1238 1118 1238 1096 1240 c 2,12,-1
 644 1240 l 2,13,14
 544 1240 544 1240 489 1182 c 128,-1,15
 434 1124 434 1124 370 996 c 1,16,-1
 314 1006 l 1,17,18
 368 1146 368 1146 424 1348 c 1,19,20
 452 1346 452 1346 489 1333 c 128,-1,21
 526 1320 526 1320 578 1320 c 2,22,-1
 1208 1320 l 1,23,24
 1240 1324 1240 1324 1283 1333 c 128,-1,25
 1326 1342 1326 1342 1338 1342 c 0,26,27
 1378 1342 1378 1342 1378 1326 c 0,28,29
 1378 1290 1378 1290 1308 1210 c 2,30,-1
 364 148 l 1,31,32
 344 118 344 118 342 106 c 0,33,34
 336 80 336 80 386 80 c 2,35,-1
 844 80 l 2,36,37
 946 80 946 80 1014 150 c 128,-1,38
 1082 220 1082 220 1140 348 c 1,39,-1
 1200 338 l 1,40,41
 1120 138 1120 138 1082 -4 c 1,0,1
EndSplineSet
Substitution2: "'c2sc' Capitals to Small Capitals lookup 12 subtable" z.sc
Position2: "'cpsp' Capital Spacing lookup 0 subtable" dx=4 dy=0 dh=10 dv=0
EndChar

StartChar: bracketleft
Encoding: 91 91 52
Width: 684
GlyphClass: 2
Flags: W
LayerCount: 2
Fore
SplineSet
868 1412 m 1,0,-1
 854 1324 l 1,1,-1
 552 1324 l 1,2,-1
 264 -320 l 1,3,-1
 564 -320 l 1,4,-1
 548 -410 l 1,5,-1
 108 -410 l 1,6,-1
 428 1412 l 1,7,-1
 868 1412 l 1,0,-1
EndSplineSet
Substitution2: "'c2sc' Capitals to Small Capitals lookup 12 subtable" bracketleft.sc
Substitution2: "'case' Case-Sensitive Forms lookup 9 subtable" bracketleft.sc
AlternateSubs2: "'aalt' Access All Alternates lookup 2 subtable" bracketleft.sc
EndChar

StartChar: bracketright
Encoding: 93 93 53
Width: 684
GlyphClass: 2
Flags: W
LayerCount: 2
Fore
SplineSet
-6 -410 m 1,0,-1
 8 -320 l 1,1,-1
 310 -320 l 1,2,-1
 598 1324 l 1,3,-1
 300 1324 l 1,4,-1
 314 1412 l 1,5,-1
 754 1412 l 1,6,-1
 432 -410 l 1,7,-1
 -6 -410 l 1,0,-1
EndSplineSet
Substitution2: "'c2sc' Capitals to Small Capitals lookup 12 subtable" bracketright.sc
Substitution2: "'case' Case-Sensitive Forms lookup 9 subtable" bracketright.sc
AlternateSubs2: "'aalt' Access All Alternates lookup 2 subtable" bracketright.sc
EndChar

StartChar: grave
Encoding: 96 96 54
Width: 802
GlyphClass: 2
Flags: W
LayerCount: 2
Fore
SplineSet
616 1430 m 1,0,-1
 714 1174 l 2,1,2
 720 1156 720 1156 720 1143 c 128,-1,3
 720 1130 720 1130 718 1124 c 0,4,5
 714 1102 714 1102 686 1102 c 0,6,7
 668 1102 668 1102 632 1142 c 2,8,-1
 438 1366 l 1,9,-1
 446 1386 l 1,10,-1
 466 1398 l 2,11,12
 486 1410 486 1410 499 1416 c 128,-1,13
 512 1422 512 1422 537 1429 c 128,-1,14
 562 1436 562 1436 588 1436 c 0,15,16
 606 1436 606 1436 616 1430 c 1,0,-1
EndSplineSet
Substitution2: "'case' Case-Sensitive Forms lookup 9 subtable" uni0358
EndChar

StartChar: a
Encoding: 97 97 55
Width: 994
GlyphClass: 2
Flags: W
AnchorPoint: "Anchor-6" 356 -222 basechar 0
AnchorPoint: "Anchor-5" 340 -6 basechar 0
AnchorPoint: "Anchor-4" 846 32 basechar 0
AnchorPoint: "Anchor-2" 696 1326 basechar 0
LayerCount: 2
Fore
SplineSet
840 886 m 1,0,1
 856 882 856 882 984 882 c 1,2,-1
 842 246 l 2,3,4
 822 148 822 148 822 132 c 0,5,6
 822 104 822 104 846 102 c 0,7,8
 880 102 880 102 960 210 c 1,9,10
 986 210 986 210 1008 178 c 1,11,12
 918 -20 918 -20 746 -20 c 0,13,14
 662 -20 662 -20 662 72 c 0,15,16
 662 118 662 118 682 184 c 2,17,-1
 708 270 l 1,18,-1
 704 274 l 1,19,20
 506 -20 506 -20 358 -20 c 0,21,22
 160 -20 160 -20 160 256 c 0,23,24
 160 490 160 490 333 695 c 128,-1,25
 506 900 506 900 676 900 c 0,26,27
 730 898 730 898 840 886 c 1,0,1
738 448 m 1,28,29
 760 506 760 506 778 593 c 128,-1,30
 796 680 796 680 802 738 c 2,31,-1
 808 796 l 1,32,33
 746 834 746 834 682 836 c 0,34,35
 548 836 548 836 436 649 c 128,-1,36
 324 462 324 462 324 288 c 0,37,38
 324 92 324 92 414 92 c 0,39,40
 464 92 464 92 563 201 c 128,-1,41
 662 310 662 310 738 448 c 1,28,29
EndSplineSet
Substitution2: "'sinf' Scientific Inferiors lookup 11 subtable" a.inferior
Substitution2: "'sups' Superscript lookup 10 subtable" a.superior
Substitution2: "'smcp' Lowercase to Small Capitals lookup 6 subtable" a.sc
AlternateSubs2: "'aalt' Access All Alternates lookup 2 subtable" a.sc
EndChar

StartChar: b
Encoding: 98 98 56
Width: 978
GlyphClass: 2
Flags: W
AnchorPoint: "Anchor-6" 438 -222 basechar 0
LayerCount: 2
Fore
SplineSet
584 1194 m 2,0,-1
 472 688 l 1,1,-1
 476 686 l 1,2,3
 520 736 520 736 540 758 c 128,-1,4
 560 780 560 780 606 821 c 128,-1,5
 652 862 652 862 698 881 c 128,-1,6
 744 900 744 900 792 900 c 0,7,8
 922 900 922 900 965 838 c 128,-1,9
 1008 776 1008 776 1008 656 c 0,10,11
 1008 506 1008 506 894 332 c 128,-1,12
 780 158 780 158 632 56 c 0,13,14
 522 -20 522 -20 418 -20 c 0,15,16
 286 -20 286 -20 236 47 c 128,-1,17
 186 114 186 114 208 218 c 2,18,-1
 420 1154 l 2,19,20
 434 1218 434 1218 434 1256 c 0,21,22
 434 1314 434 1314 392 1312 c 1,23,-1
 328 1316 l 2,24,25
 318 1316 318 1316 318 1328 c 2,26,-1
 324 1376 l 1,27,28
 502 1388 502 1388 610 1430 c 1,29,30
 634 1430 634 1430 634 1410 c 1,31,32
 612 1328 612 1328 584 1194 c 2,0,-1
840 616 m 0,33,34
 840 802 840 802 732 802 c 0,35,36
 712 802 712 802 691 796 c 128,-1,37
 670 790 670 790 647 774 c 128,-1,38
 624 758 624 758 608 746 c 128,-1,39
 592 734 592 734 565 705 c 128,-1,40
 538 676 538 676 527 663 c 128,-1,41
 516 650 516 650 485 613 c 128,-1,42
 454 576 454 576 444 566 c 1,43,-1
 374 270 l 2,44,45
 322 50 322 50 428 52 c 0,46,47
 554 52 554 52 697 229 c 128,-1,48
 840 406 840 406 840 616 c 0,33,34
EndSplineSet
Substitution2: "'sinf' Scientific Inferiors lookup 11 subtable" b.inferior
Substitution2: "'sups' Superscript lookup 10 subtable" b.superior
Substitution2: "'smcp' Lowercase to Small Capitals lookup 6 subtable" b.sc
AlternateSubs2: "'aalt' Access All Alternates lookup 2 subtable" b.sc
EndChar

StartChar: c
Encoding: 99 99 57
Width: 796
GlyphClass: 2
Flags: W
AnchorPoint: "Anchor-6" 334 -232 basechar 0
AnchorPoint: "Anchor-5" 432 -4 basechar 0
AnchorPoint: "Anchor-4" 694 86 basechar 0
AnchorPoint: "Anchor-2" 702 1320 basechar 0
LayerCount: 2
Fore
SplineSet
428 -20 m 0,0,1
 302 -20 302 -20 232 78 c 0,2,3
 170 164 170 164 170 306 c 0,4,5
 170 440 170 440 215 556 c 128,-1,6
 260 672 260 672 338 756 c 0,7,8
 400 820 400 820 486 860 c 128,-1,9
 572 900 572 900 636 900 c 0,10,11
 700 900 700 900 745 886 c 128,-1,12
 790 872 790 872 814 854 c 128,-1,13
 838 836 838 836 850 806 c 128,-1,14
 862 776 862 776 864 755 c 128,-1,15
 866 734 866 734 866 702 c 0,16,17
 866 666 866 666 834 638 c 128,-1,18
 802 610 802 610 760 610 c 0,19,20
 744 610 744 610 730 619 c 128,-1,21
 716 628 716 628 710 644 c 128,-1,22
 704 660 704 660 704 676 c 0,23,24
 704 702 704 702 714 719 c 128,-1,25
 724 736 724 736 724 758 c 0,26,27
 724 788 724 788 708 807 c 128,-1,28
 692 826 692 826 675 831 c 128,-1,29
 658 836 658 836 638 836 c 0,30,31
 514 836 514 836 426 704 c 128,-1,32
 338 572 338 572 338 350 c 0,33,34
 338 264 338 264 350 223 c 128,-1,35
 362 182 362 182 390 148 c 0,36,37
 426 100 426 100 492 100 c 0,38,39
 568 100 568 100 631 140 c 128,-1,40
 694 180 694 180 762 258 c 1,41,42
 776 258 776 258 789 248 c 128,-1,43
 802 238 802 238 806 222 c 1,44,45
 754 152 754 152 698 99 c 128,-1,46
 642 46 642 46 571 13 c 128,-1,47
 500 -20 500 -20 428 -20 c 0,0,1
EndSplineSet
Substitution2: "'sinf' Scientific Inferiors lookup 11 subtable" c.inferior
Substitution2: "'sups' Superscript lookup 10 subtable" c.superior
Substitution2: "'smcp' Lowercase to Small Capitals lookup 6 subtable" c.sc
AlternateSubs2: "'aalt' Access All Alternates lookup 2 subtable" c.sc
EndChar

StartChar: d
Encoding: 100 100 58
Width: 1000
GlyphClass: 2
Flags: W
AnchorPoint: "Anchor-6" 452 -220 basechar 0
AnchorPoint: "Anchor-4" 638 40 basechar 0
AnchorPoint: "Anchor-2" 446 1320 basechar 0
LayerCount: 2
Fore
SplineSet
706 398 m 0,0,1
 800 570 800 570 800 648 c 0,2,3
 800 708 800 708 764 767 c 128,-1,4
 728 826 728 826 672 826 c 0,5,6
 582 826 582 826 501 741 c 128,-1,7
 420 656 420 656 375 537 c 128,-1,8
 330 418 330 418 330 308 c 0,9,10
 330 74 330 74 410 74 c 0,11,12
 468 74 468 74 548 164 c 128,-1,13
 628 254 628 254 706 398 c 0,0,1
706 238 m 1,14,-1
 700 242 l 1,15,16
 606 104 606 104 529 42 c 128,-1,17
 452 -20 452 -20 374 -20 c 0,18,19
 290 -20 290 -20 241 33 c 128,-1,20
 192 86 192 86 179 145 c 128,-1,21
 166 204 166 204 166 274 c 0,22,23
 166 508 166 508 331 704 c 128,-1,24
 496 900 496 900 666 900 c 0,25,26
 722 900 722 900 764 868 c 128,-1,27
 806 836 806 836 828 786 c 1,28,-1
 830 786 l 1,29,-1
 906 1154 l 2,30,31
 920 1224 920 1224 920 1256 c 0,32,33
 920 1314 920 1314 876 1312 c 1,34,-1
 814 1316 l 2,35,36
 804 1316 804 1316 802 1328 c 2,37,-1
 808 1376 l 1,38,39
 986 1388 986 1388 1096 1430 c 1,40,41
 1120 1430 1120 1430 1120 1410 c 1,42,43
 1100 1328 1100 1328 1070 1194 c 2,44,-1
 852 246 l 2,45,46
 832 148 832 148 832 132 c 0,47,48
 832 104 832 104 856 102 c 0,49,50
 890 102 890 102 970 210 c 1,51,52
 996 210 996 210 1018 178 c 1,53,54
 928 -20 928 -20 756 -20 c 0,55,56
 672 -20 672 -20 672 72 c 0,57,58
 672 102 672 102 692 184 c 2,59,-1
 706 238 l 1,14,-1
EndSplineSet
Substitution2: "'sinf' Scientific Inferiors lookup 11 subtable" d.inferior
Substitution2: "'sups' Superscript lookup 10 subtable" d.superior
Substitution2: "'smcp' Lowercase to Small Capitals lookup 6 subtable" d.sc
AlternateSubs2: "'aalt' Access All Alternates lookup 2 subtable" d.sc
EndChar

StartChar: e
Encoding: 101 101 59
Width: 820
GlyphClass: 2
Flags: W
AnchorPoint: "Anchor-6" 324 -222 basechar 0
AnchorPoint: "Anchor-4" 704 84 basechar 0
AnchorPoint: "Anchor-2" 680 1320 basechar 0
LayerCount: 2
Fore
SplineSet
728 758 m 0,0,1
 728 804 728 804 705 820 c 128,-1,2
 682 836 682 836 626 836 c 0,3,4
 442 836 442 836 356 486 c 1,5,6
 422 496 422 496 481 512 c 128,-1,7
 540 528 540 528 599 559 c 128,-1,8
 658 590 658 590 693 641 c 128,-1,9
 728 692 728 692 728 758 c 0,0,1
342 408 m 1,10,11
 340 392 340 392 340 338 c 0,12,13
 340 206 340 206 380 154 c 128,-1,14
 420 102 420 102 496 102 c 128,-1,15
 572 102 572 102 623 128 c 128,-1,16
 674 154 674 154 758 240 c 1,17,18
 790 240 790 240 804 206 c 1,19,20
 628 -22 628 -22 422 -20 c 0,21,22
 300 -20 300 -20 235 67 c 128,-1,23
 170 154 170 154 170 290 c 0,24,25
 170 370 170 370 187 453 c 128,-1,26
 204 536 204 536 244 617 c 128,-1,27
 284 698 284 698 342 760 c 128,-1,28
 400 822 400 822 486 861 c 128,-1,29
 572 900 572 900 674 900 c 0,30,31
 772 900 772 900 820 849 c 128,-1,32
 868 798 868 798 868 748 c 0,33,34
 868 722 868 722 867 709 c 128,-1,35
 866 696 866 696 857 665 c 128,-1,36
 848 634 848 634 830 613 c 128,-1,37
 812 592 812 592 774 561 c 128,-1,38
 736 530 736 530 681 507 c 128,-1,39
 626 484 626 484 539 457 c 128,-1,40
 452 430 452 430 342 408 c 1,10,11
EndSplineSet
Substitution2: "'sinf' Scientific Inferiors lookup 11 subtable" e.inferior
Substitution2: "'sups' Superscript lookup 10 subtable" e.superior
Substitution2: "'smcp' Lowercase to Small Capitals lookup 6 subtable" e.sc
AlternateSubs2: "'aalt' Access All Alternates lookup 2 subtable" e.sc
EndChar

StartChar: f
Encoding: 102 102 60
Width: 642
GlyphClass: 2
Flags: W
AnchorPoint: "Anchor-6" 454 -228 basechar 0
AnchorPoint: "Anchor-1" 840 1536 basechar 0
LayerCount: 2
Fore
SplineSet
386 798 m 1,0,-1
 218 798 l 2,1,2
 206 798 206 798 204 802 c 0,3,4
 204 812 204 812 212 838 c 0,5,6
 220 870 220 870 270 872 c 2,7,-1
 406 878 l 1,8,9
 470 1182 470 1182 568 1298 c 0,10,11
 626 1366 626 1366 703 1398 c 128,-1,12
 780 1430 780 1430 836 1430 c 0,13,14
 942 1430 942 1430 1007 1386 c 128,-1,15
 1072 1342 1072 1342 1072 1278 c 0,16,17
 1072 1256 1072 1256 1053 1232 c 128,-1,18
 1034 1208 1034 1208 994 1208 c 0,19,20
 918 1208 918 1208 900 1308 c 0,21,22
 894 1338 894 1338 875 1350 c 128,-1,23
 856 1362 856 1362 820 1362 c 0,24,25
 800 1362 800 1362 772 1349 c 128,-1,26
 744 1336 744 1336 709 1297 c 128,-1,27
 674 1258 674 1258 650 1198 c 0,28,29
 612 1110 612 1110 588 996 c 2,30,-1
 566 878 l 1,31,-1
 790 878 l 2,32,33
 804 878 804 878 804 868 c 1,34,-1
 794 824 l 2,35,36
 792 814 792 814 775 806 c 128,-1,37
 758 798 758 798 742 798 c 2,38,-1
 550 798 l 1,39,-1
 544 764 l 2,40,41
 512 574 512 574 448 266 c 0,42,43
 388 -26 388 -26 349 -163 c 128,-1,44
 310 -300 310 -300 266 -358 c 0,45,46
 174 -488 174 -488 28 -488 c 0,47,48
 -68 -488 -68 -488 -114 -460 c 128,-1,49
 -160 -432 -160 -432 -160 -394 c 0,50,51
 -160 -364 -160 -364 -141 -342 c 128,-1,52
 -122 -320 -122 -320 -84 -320 c 0,53,54
 -54 -320 -54 -320 -26 -340 c 128,-1,55
 2 -360 2 -360 18 -386 c 0,56,57
 38 -420 38 -420 68 -420 c 0,58,59
 90 -420 90 -420 117 -403 c 128,-1,60
 144 -386 144 -386 162 -358 c 0,61,62
 172 -342 172 -342 182 -316 c 128,-1,63
 192 -290 192 -290 201 -266 c 128,-1,64
 210 -242 210 -242 220 -204 c 128,-1,65
 230 -166 230 -166 236 -138 c 128,-1,66
 242 -110 242 -110 250 -64 c 128,-1,67
 258 -18 258 -18 262 7 c 128,-1,68
 266 32 266 32 273 84 c 128,-1,69
 280 136 280 136 283 155 c 128,-1,70
 286 174 286 174 293 225 c 128,-1,71
 300 276 300 276 302 288 c 0,72,73
 318 420 318 420 386 798 c 1,0,-1
EndSplineSet
Substitution2: "Single Substitution lookup 29 subtable" f.short
Substitution2: "'sinf' Scientific Inferiors lookup 11 subtable" f.inferior
Substitution2: "'sups' Superscript lookup 10 subtable" f.superior
Substitution2: "'smcp' Lowercase to Small Capitals lookup 6 subtable" f.sc
AlternateSubs2: "'aalt' Access All Alternates lookup 2 subtable" f.sc
Substitution2: "Single Substitution lookup 0 subtable" f.short
EndChar

StartChar: g
Encoding: 103 103 61
Width: 976
GlyphClass: 2
Flags: W
AnchorPoint: "Anchor-6" 404 -654 basechar 0
AnchorPoint: "Anchor-2" 738 1320 basechar 0
LayerCount: 2
Fore
SplineSet
330 -6 m 1,0,1
 152 -136 152 -136 152 -232 c 0,2,3
 152 -320 152 -320 238 -370 c 128,-1,4
 324 -420 324 -420 492 -420 c 0,5,6
 616 -420 616 -420 679 -373 c 128,-1,7
 742 -326 742 -326 742 -260 c 0,8,9
 742 -206 742 -206 704 -169 c 128,-1,10
 666 -132 666 -132 578 -90 c 0,11,12
 452 -32 452 -32 330 -6 c 1,0,1
850 596 m 0,13,14
 850 446 850 446 763 358 c 128,-1,15
 676 270 676 270 538 270 c 0,16,17
 454 270 454 270 400 306 c 1,18,19
 352 218 352 218 352 180 c 0,20,21
 352 152 352 152 367 132 c 128,-1,22
 382 112 382 112 416 98 c 128,-1,23
 450 84 450 84 483 76 c 128,-1,24
 516 68 516 68 572 54 c 128,-1,25
 628 40 628 40 666 28 c 0,26,27
 874 -34 874 -34 874 -204 c 0,28,29
 874 -486 874 -486 408 -488 c 0,30,31
 314 -488 314 -488 231 -471 c 128,-1,32
 148 -454 148 -454 81 -405 c 128,-1,33
 14 -356 14 -356 14 -278 c 0,34,35
 14 -134 14 -134 290 16 c 1,36,37
 236 46 236 46 238 114 c 0,38,39
 238 166 238 166 272 229 c 128,-1,40
 306 292 306 292 348 338 c 1,41,42
 254 450 254 450 254 580 c 0,43,44
 254 716 254 716 333 808 c 128,-1,45
 412 900 412 900 574 900 c 0,46,47
 700 900 700 900 774 814 c 1,48,49
 868 900 868 900 976 900 c 0,50,51
 1010 900 1010 900 1033 879 c 128,-1,52
 1056 858 1056 858 1056 829 c 128,-1,53
 1056 800 1056 800 1038 781 c 128,-1,54
 1020 762 1020 762 994 762 c 0,55,56
 960 762 960 762 936 796 c 0,57,58
 924 816 924 816 906 818 c 0,59,60
 894 818 894 818 862 802 c 128,-1,61
 830 786 830 786 808 766 c 1,62,63
 850 706 850 706 850 596 c 0,13,14
698 596 m 0,64,65
 698 704 698 704 663 771 c 128,-1,66
 628 838 628 838 566 838 c 0,67,68
 472 838 472 838 439 771 c 128,-1,69
 406 704 406 704 406 578 c 0,70,71
 406 332 406 332 548 332 c 0,72,73
 698 332 698 332 698 596 c 0,64,65
EndSplineSet
Substitution2: "'sinf' Scientific Inferiors lookup 11 subtable" g.inferior
Substitution2: "'sups' Superscript lookup 10 subtable" g.superior
Substitution2: "'smcp' Lowercase to Small Capitals lookup 6 subtable" g.sc
AlternateSubs2: "'aalt' Access All Alternates lookup 2 subtable" g.sc
EndChar

StartChar: h
Encoding: 104 104 62
Width: 1062
GlyphClass: 2
Flags: W
AnchorPoint: "Anchor-6" 468 -228 basechar 0
AnchorPoint: "Anchor-5" 262 18 basechar 0
AnchorPoint: "Anchor-4" 862 20 basechar 0
AnchorPoint: "Anchor-2" 838 1320 basechar 0
LayerCount: 2
Fore
SplineSet
360 148 m 2,0,1
 356 134 356 134 351 102 c 128,-1,2
 346 70 346 70 342 53 c 128,-1,3
 338 36 338 36 329 17 c 128,-1,4
 320 -2 320 -2 304 -11 c 128,-1,5
 288 -20 288 -20 266 -20 c 0,6,7
 182 -20 182 -20 182 34 c 0,8,9
 182 38 182 38 208 148 c 1,10,-1
 432 1154 l 2,11,12
 446 1218 446 1218 446 1256 c 0,13,14
 446 1314 446 1314 404 1312 c 1,15,-1
 340 1316 l 2,16,17
 330 1316 330 1316 330 1328 c 2,18,-1
 336 1376 l 1,19,20
 514 1388 514 1388 622 1430 c 1,21,22
 646 1430 646 1430 648 1410 c 1,23,24
 626 1328 626 1328 596 1194 c 2,25,-1
 472 638 l 1,26,27
 604 790 604 790 694 845 c 128,-1,28
 784 900 784 900 872 900 c 0,29,30
 1008 900 1008 900 1008 736 c 0,31,32
 1008 698 1008 698 980 580 c 2,33,-1
 904 254 l 2,34,35
 882 156 882 156 880 138 c 0,36,37
 880 104 880 104 902 102 c 0,38,39
 918 102 918 102 957 132 c 128,-1,40
 996 162 996 162 1034 204 c 1,41,42
 1068 204 1068 204 1082 170 c 1,43,44
 932 -20 932 -20 796 -20 c 0,45,46
 712 -20 712 -20 712 48 c 0,47,48
 712 98 712 98 748 236 c 2,49,-1
 826 564 l 2,50,51
 846 650 846 650 846 700 c 0,52,53
 846 746 846 746 829 761 c 128,-1,54
 812 776 812 776 774 776 c 0,55,56
 720 776 720 776 629 696 c 128,-1,57
 538 616 538 616 438 488 c 1,58,-1
 360 148 l 2,0,1
EndSplineSet
Substitution2: "'salt' Stylistic Alternatives lookup 22 subtable" h.alt
Substitution2: "'sinf' Scientific Inferiors lookup 11 subtable" h.inferior
Substitution2: "'sups' Superscript lookup 10 subtable" h.superior
Substitution2: "'smcp' Lowercase to Small Capitals lookup 6 subtable" h.sc
AlternateSubs2: "'aalt' Access All Alternates lookup 2 subtable" h.sc h.alt
EndChar

StartChar: i
Encoding: 105 105 63
Width: 564
GlyphClass: 2
Flags: W
AnchorPoint: "Anchor-6" 278 -220 basechar 0
AnchorPoint: "Anchor-5" 280 24 basechar 0
AnchorPoint: "Anchor-4" 428 20 basechar 0
LayerCount: 2
Fore
SplineSet
412 1167 m 128,-1,1
 412 1208 412 1208 442 1237 c 128,-1,2
 472 1266 472 1266 510 1266 c 128,-1,3
 548 1266 548 1266 578 1237 c 128,-1,4
 608 1208 608 1208 608 1167 c 128,-1,5
 608 1126 608 1126 578 1098 c 128,-1,6
 548 1070 548 1070 510 1070 c 128,-1,7
 472 1070 472 1070 442 1098 c 128,-1,0
 412 1126 412 1126 412 1167 c 128,-1,1
502 656 m 2,8,-1
 410 254 l 2,9,10
 388 156 388 156 388 138 c 0,11,12
 388 104 388 104 408 102 c 0,13,14
 424 102 424 102 463 132 c 128,-1,15
 502 162 502 162 540 204 c 1,16,17
 574 204 574 204 588 170 c 1,18,19
 438 -20 438 -20 304 -20 c 0,20,21
 220 -20 220 -20 220 48 c 0,22,23
 220 76 220 76 254 236 c 2,24,-1
 350 658 l 2,25,26
 368 736 368 736 368 762 c 0,27,28
 368 798 368 798 332 802 c 2,29,-1
 250 808 l 1,30,31
 228 840 228 840 248 866 c 1,32,33
 456 892 456 892 502 892 c 0,34,35
 546 892 546 892 544 850 c 0,36,37
 544 834 544 834 538 807 c 128,-1,38
 532 780 532 780 520 728 c 128,-1,39
 508 676 508 676 502 656 c 2,8,-1
EndSplineSet
Substitution2: "Single Substitution lookup 28 subtable" dotlessi
Substitution2: "'sinf' Scientific Inferiors lookup 11 subtable" i.inferior
Substitution2: "'sups' Superscript lookup 10 subtable" i.superior
Substitution2: "'smcp' Lowercase to Small Capitals lookup 7 subtable" i.sc
Substitution2: "'smcp' Lowercase to Small Capitals in Latin lookup 5 subtable" idotaccent.sc
AlternateSubs2: "'aalt' Access All Alternates lookup 2 subtable" i.sc
Substitution2: "Single Substitution lookup 1 subtable" dotlessi
EndChar

StartChar: j
Encoding: 106 106 64
Width: 530
GlyphClass: 2
Flags: W
LayerCount: 2
Fore
SplineSet
514 656 m 2,0,-1
 478 480 l 2,1,2
 450 340 450 340 425 240 c 128,-1,3
 400 140 400 140 367 31 c 128,-1,4
 334 -78 334 -78 299 -150 c 128,-1,5
 264 -222 264 -222 221 -283 c 128,-1,6
 178 -344 178 -344 125 -373 c 128,-1,7
 72 -402 72 -402 8 -402 c 0,8,9
 -64 -402 -64 -402 -112 -376 c 128,-1,10
 -160 -350 -160 -350 -160 -304 c 0,11,12
 -160 -274 -160 -274 -141 -257 c 128,-1,13
 -122 -240 -122 -240 -100 -240 c 0,14,15
 -66 -240 -66 -240 -43 -253 c 128,-1,16
 -20 -266 -20 -266 -11 -284 c 128,-1,17
 -2 -302 -2 -302 12 -315 c 128,-1,18
 26 -328 26 -328 46 -328 c 0,19,20
 82 -328 82 -328 124 -280 c 128,-1,21
 166 -232 166 -232 196 -114 c 0,22,23
 216 -32 216 -32 248 125 c 128,-1,24
 280 282 280 282 296 360 c 2,25,-1
 362 658 l 2,26,27
 378 734 378 734 378 762 c 0,28,29
 378 800 378 800 342 802 c 2,30,-1
 260 808 l 1,31,32
 238 840 238 840 258 866 c 1,33,34
 436 892 436 892 512 892 c 0,35,36
 552 892 552 892 552 850 c 0,37,38
 552 836 552 836 514 656 c 2,0,-1
422 1168 m 128,-1,40
 422 1208 422 1208 451 1237 c 128,-1,41
 480 1266 480 1266 521 1266 c 128,-1,42
 562 1266 562 1266 590 1237 c 128,-1,43
 618 1208 618 1208 618 1168 c 128,-1,44
 618 1128 618 1128 590 1099 c 128,-1,45
 562 1070 562 1070 521 1070 c 128,-1,46
 480 1070 480 1070 451 1099 c 128,-1,39
 422 1128 422 1128 422 1168 c 128,-1,40
EndSplineSet
Substitution2: "Single Substitution lookup 28 subtable" dotlessj
Substitution2: "'sinf' Scientific Inferiors lookup 11 subtable" j.inferior
Substitution2: "'sups' Superscript lookup 10 subtable" j.superior
Substitution2: "'smcp' Lowercase to Small Capitals lookup 6 subtable" j.sc
AlternateSubs2: "'aalt' Access All Alternates lookup 2 subtable" j.sc idotaccent.sc
Substitution2: "Single Substitution lookup 1 subtable" dotlessj
EndChar

StartChar: k
Encoding: 107 107 65
Width: 994
GlyphClass: 2
Flags: W
AnchorPoint: "Anchor-6" 456 -220 basechar 0
AnchorPoint: "Anchor-5" 256 18 basechar 0
AnchorPoint: "Anchor-2" 830 1324 basechar 0
LayerCount: 2
Fore
SplineSet
182 148 m 1,0,-1
 408 1154 l 2,1,2
 422 1218 422 1218 422 1256 c 0,3,4
 422 1314 422 1314 378 1312 c 1,5,-1
 316 1316 l 2,6,7
 306 1316 306 1316 306 1328 c 2,8,-1
 312 1376 l 1,9,10
 376 1380 376 1380 467 1398 c 128,-1,11
 558 1416 558 1416 598 1430 c 1,12,13
 622 1430 622 1430 622 1410 c 1,14,15
 602 1328 602 1328 572 1194 c 2,16,-1
 424 558 l 1,17,18
 472 558 472 558 544 620 c 2,19,-1
 626 690 l 1,20,21
 862 898 862 898 964 900 c 0,22,23
 1064 900 1064 900 1064 828 c 0,24,25
 1064 784 1064 784 1031 754 c 128,-1,26
 998 724 998 724 970 724 c 0,27,28
 934 724 934 724 907 739 c 128,-1,29
 880 754 880 754 856 754 c 0,30,31
 800 754 800 754 660 626 c 2,32,-1
 552 532 l 1,33,-1
 552 524 l 1,34,35
 584 516 584 516 605 500 c 128,-1,36
 626 484 626 484 636 468 c 128,-1,37
 646 452 646 452 666 414 c 0,38,39
 676 394 676 394 711 311 c 128,-1,40
 746 228 746 228 778 164 c 0,41,42
 780 160 780 160 785 149 c 128,-1,43
 790 138 790 138 792 134 c 128,-1,44
 794 130 794 130 799 121 c 128,-1,45
 804 112 804 112 808 109 c 128,-1,46
 812 106 812 106 818 100 c 128,-1,47
 824 94 824 94 828 92 c 128,-1,48
 832 90 832 90 838 88 c 128,-1,49
 844 86 844 86 852 86 c 0,50,51
 890 86 890 86 958 184 c 1,52,53
 980 184 980 184 1004 158 c 1,54,55
 902 -20 902 -20 796 -20 c 0,56,57
 734 -20 734 -20 691 28 c 128,-1,58
 648 76 648 76 594 190 c 0,59,60
 576 230 576 230 545 324 c 128,-1,61
 514 418 514 418 494 452 c 0,62,63
 476 484 476 484 452 486 c 0,64,65
 426 486 426 486 408 480 c 1,66,-1
 334 148 l 2,67,68
 332 136 332 136 326 103 c 128,-1,69
 320 70 320 70 316 54 c 128,-1,70
 312 38 312 38 302 18 c 128,-1,71
 292 -2 292 -2 277 -11 c 128,-1,72
 262 -20 262 -20 240 -20 c 0,73,74
 156 -20 156 -20 156 34 c 0,75,76
 156 40 156 40 182 148 c 1,0,-1
EndSplineSet
Substitution2: "'sinf' Scientific Inferiors lookup 11 subtable" k.inferior
Substitution2: "'sups' Superscript lookup 10 subtable" k.superior
Substitution2: "'smcp' Lowercase to Small Capitals lookup 6 subtable" k.sc
AlternateSubs2: "'aalt' Access All Alternates lookup 2 subtable" k.sc
EndChar

StartChar: l
Encoding: 108 108 66
Width: 544
GlyphClass: 2
Flags: W
AnchorPoint: "Anchor-6" 236 -220 basechar 0
AnchorPoint: "Anchor-5" 268 20 basechar 0
LayerCount: 2
Fore
SplineSet
586 1194 m 2,0,-1
 376 260 l 2,1,2
 352 152 352 152 352 132 c 0,3,4
 352 104 352 104 376 102 c 0,5,6
 396 102 396 102 441 135 c 128,-1,7
 486 168 486 168 528 222 c 1,8,9
 558 222 558 222 574 186 c 1,10,11
 450 -20 450 -20 276 -20 c 0,12,13
 190 -20 190 -20 190 70 c 0,14,15
 190 116 190 116 220 244 c 2,16,-1
 422 1154 l 2,17,18
 436 1218 436 1218 436 1256 c 0,19,20
 436 1314 436 1314 394 1312 c 1,21,-1
 330 1316 l 2,22,23
 320 1316 320 1316 320 1328 c 2,24,-1
 326 1376 l 1,25,26
 504 1388 504 1388 612 1430 c 1,27,28
 636 1430 636 1430 636 1410 c 1,29,30
 614 1328 614 1328 586 1194 c 2,0,-1
EndSplineSet
Substitution2: "'sinf' Scientific Inferiors lookup 11 subtable" l.inferior
Substitution2: "'sups' Superscript lookup 10 subtable" l.superior
Substitution2: "'smcp' Lowercase to Small Capitals lookup 6 subtable" l.sc
AlternateSubs2: "'aalt' Access All Alternates lookup 2 subtable" l.sc
EndChar

StartChar: m
Encoding: 109 109 67
Width: 1602
GlyphClass: 2
Flags: W
AnchorPoint: "Anchor-6" 782 -216 basechar 0
AnchorPoint: "Anchor-5" 322 18 basechar 0
AnchorPoint: "Anchor-2" 1070 1320 basechar 0
LayerCount: 2
Fore
SplineSet
372 658 m 2,0,1
 390 744 390 744 392 762 c 0,2,3
 392 798 392 798 354 802 c 2,4,-1
 272 808 l 1,5,6
 250 840 250 840 270 866 c 1,7,8
 478 892 478 892 524 892 c 0,9,10
 564 892 564 892 566 850 c 0,11,12
 566 834 566 834 559 806 c 128,-1,13
 552 778 552 778 539 728 c 128,-1,14
 526 678 526 678 520 656 c 2,15,-1
 516 636 l 1,16,-1
 520 634 l 1,17,18
 724 898 724 898 922 900 c 0,19,20
 1040 900 1040 900 1040 720 c 0,21,22
 1040 666 1040 666 1032 624 c 1,23,24
 1102 712 1102 712 1152 765 c 128,-1,25
 1202 818 1202 818 1271 859 c 128,-1,26
 1340 900 1340 900 1410 900 c 0,27,28
 1434 900 1434 900 1455 889 c 128,-1,29
 1476 878 1476 878 1495 858 c 128,-1,30
 1514 838 1514 838 1524 803 c 128,-1,31
 1534 768 1534 768 1534 720 c 0,32,33
 1534 648 1534 648 1514 572 c 2,34,-1
 1418 206 l 2,35,36
 1408 168 1408 168 1406 124 c 0,37,38
 1406 102 1406 102 1422 102 c 0,39,40
 1448 102 1448 102 1488 139 c 128,-1,41
 1528 176 1528 176 1564 236 c 1,42,43
 1602 236 1602 236 1610 206 c 1,44,45
 1516 -22 1516 -22 1306 -20 c 0,46,47
 1292 -20 1292 -20 1277 -12 c 128,-1,48
 1262 -4 1262 -4 1252 12 c 128,-1,49
 1242 28 1242 28 1242 48 c 0,50,51
 1242 88 1242 88 1278 234 c 2,52,-1
 1358 556 l 2,53,54
 1376 628 1376 628 1376 700 c 0,55,56
 1376 730 1376 730 1369 747 c 128,-1,57
 1362 764 1362 764 1350 770 c 128,-1,58
 1338 776 1338 776 1316 776 c 0,59,60
 1264 776 1264 776 1193 710 c 128,-1,61
 1122 644 1122 644 998 468 c 1,62,-1
 920 148 l 2,63,64
 916 134 916 134 911 102 c 128,-1,65
 906 70 906 70 902 53 c 128,-1,66
 898 36 898 36 888 17 c 128,-1,67
 878 -2 878 -2 863 -11 c 128,-1,68
 848 -20 848 -20 826 -20 c 0,69,70
 742 -20 742 -20 742 34 c 0,71,72
 742 38 742 38 768 148 c 2,73,-1
 866 564 l 2,74,75
 882 636 882 636 882 700 c 0,76,77
 882 746 882 746 871 761 c 128,-1,78
 860 776 860 776 830 776 c 0,79,80
 772 776 772 776 686 706 c 128,-1,81
 600 636 600 636 490 478 c 1,82,-1
 408 148 l 2,83,84
 404 132 404 132 398 102 c 128,-1,85
 392 72 392 72 387 54 c 128,-1,86
 382 36 382 36 374 17 c 128,-1,87
 366 -2 366 -2 351 -11 c 128,-1,88
 336 -20 336 -20 314 -20 c 0,89,90
 230 -20 230 -20 230 34 c 0,91,92
 230 38 230 38 256 148 c 2,93,-1
 372 658 l 2,0,1
EndSplineSet
Substitution2: "'sinf' Scientific Inferiors lookup 11 subtable" m.inferior
Substitution2: "'sups' Superscript lookup 10 subtable" m.superior
Substitution2: "'smcp' Lowercase to Small Capitals lookup 6 subtable" m.sc
AlternateSubs2: "'aalt' Access All Alternates lookup 2 subtable" m.sc
EndChar

StartChar: n
Encoding: 110 110 68
Width: 1060
GlyphClass: 2
Flags: W
AnchorPoint: "Anchor-6" 482 -228 basechar 0
AnchorPoint: "Anchor-5" 262 18 basechar 0
AnchorPoint: "Anchor-2" 806 1324 basechar 0
LayerCount: 2
Fore
SplineSet
886 254 m 2,0,1
 864 156 864 156 864 138 c 0,2,3
 864 104 864 104 884 102 c 0,4,5
 900 102 900 102 939 132 c 128,-1,6
 978 162 978 162 1018 204 c 1,7,8
 1052 204 1052 204 1064 170 c 1,9,10
 914 -20 914 -20 774 -20 c 0,11,12
 690 -20 690 -20 690 48 c 0,13,14
 690 98 690 98 724 236 c 2,15,-1
 802 564 l 2,16,17
 828 676 828 676 830 702 c 0,18,19
 830 748 830 748 812 762 c 128,-1,20
 794 776 794 776 758 776 c 0,21,22
 664 776 664 776 442 488 c 1,23,-1
 364 148 l 2,24,25
 360 134 360 134 355 102 c 128,-1,26
 350 70 350 70 346 53 c 128,-1,27
 342 36 342 36 333 17 c 128,-1,28
 324 -2 324 -2 308 -11 c 128,-1,29
 292 -20 292 -20 270 -20 c 0,30,31
 182 -20 182 -20 182 34 c 0,32,33
 182 38 182 38 208 148 c 1,34,-1
 324 658 l 2,35,36
 342 744 342 744 342 762 c 0,37,38
 342 800 342 800 306 802 c 2,39,-1
 224 808 l 1,40,41
 202 840 202 840 222 866 c 1,42,43
 400 892 400 892 480 892 c 0,44,45
 520 892 520 892 520 850 c 0,46,47
 520 778 520 778 478 656 c 2,48,-1
 472 636 l 1,49,-1
 474 634 l 1,50,51
 610 792 610 792 690 846 c 128,-1,52
 770 900 770 900 856 900 c 0,53,54
 992 900 992 900 992 736 c 0,55,56
 992 698 992 698 964 580 c 2,57,-1
 886 254 l 2,0,1
EndSplineSet
Substitution2: "'sinf' Scientific Inferiors lookup 11 subtable" n.inferior
Substitution2: "'sups' Superscript lookup 10 subtable" n.superior
Substitution2: "'smcp' Lowercase to Small Capitals lookup 6 subtable" n.sc
AlternateSubs2: "'aalt' Access All Alternates lookup 2 subtable" n.sc
EndChar

StartChar: o
Encoding: 111 111 69
Width: 914
GlyphClass: 2
Flags: W
AnchorPoint: "Anchor-6" 380 -220 basechar 0
AnchorPoint: "Anchor-5" 472 -6 basechar 0
AnchorPoint: "Anchor-4" 760 90 basechar 0
AnchorPoint: "Anchor-2" 736 1320 basechar 0
AnchorPoint: "Anchor-0" 1004 812 basechar 0
LayerCount: 2
Fore
SplineSet
330 348 m 0,0,1
 330 296 330 296 337 251 c 128,-1,2
 344 206 344 206 355 176 c 128,-1,3
 366 146 366 146 381 122 c 128,-1,4
 396 98 396 98 413 84 c 128,-1,5
 430 70 430 70 445 63 c 128,-1,6
 460 56 460 56 478 56 c 0,7,8
 614 56 614 56 694 180 c 0,9,10
 782 316 782 316 782 552 c 0,11,12
 782 676 782 676 750 742 c 0,13,14
 704 832 704 832 626 832 c 0,15,16
 526 832 526 832 454 747 c 128,-1,17
 382 662 382 662 356 557 c 128,-1,18
 330 452 330 452 330 348 c 0,0,1
160 332 m 0,19,20
 160 428 160 428 192 525 c 128,-1,21
 224 622 224 622 283 707 c 128,-1,22
 342 792 342 792 441 846 c 128,-1,23
 540 900 540 900 664 900 c 0,24,25
 952 900 952 900 952 568 c 0,26,27
 952 390 952 390 862 239 c 128,-1,28
 772 88 772 88 634 18 c 0,29,30
 556 -20 556 -20 446 -20 c 0,31,32
 372 -20 372 -20 317 6 c 128,-1,33
 262 32 262 32 232 70 c 128,-1,34
 202 108 202 108 185 162 c 128,-1,35
 168 216 168 216 164 254 c 128,-1,36
 160 292 160 292 160 332 c 0,19,20
EndSplineSet
Substitution2: "'sinf' Scientific Inferiors lookup 11 subtable" o.inferior
Substitution2: "'sups' Superscript lookup 10 subtable" o.superior
Substitution2: "'smcp' Lowercase to Small Capitals lookup 6 subtable" o.sc
AlternateSubs2: "'aalt' Access All Alternates lookup 2 subtable" o.sc
EndChar

StartChar: p
Encoding: 112 112 70
Width: 1000
GlyphClass: 2
Flags: W
AnchorPoint: "Anchor-6" 508 -226 basechar 0
AnchorPoint: "Anchor-2" 842 1324 basechar 0
LayerCount: 2
Fore
SplineSet
544 828 m 1,0,1
 664 900 664 900 780 900 c 0,2,3
 1042 900 1042 900 1042 592 c 0,4,5
 1042 372 1042 372 876 170 c 0,6,7
 720 -20 720 -20 522 -20 c 0,8,9
 436 -20 436 -20 372 48 c 1,10,-1
 282 -330 l 2,11,12
 274 -362 274 -362 287 -382 c 128,-1,13
 300 -402 300 -402 314 -407 c 128,-1,14
 328 -412 328 -412 350 -414 c 2,15,-1
 390 -420 l 2,16,17
 402 -422 402 -422 402 -436 c 2,18,-1
 402 -478 l 1,19,-1
 398 -482 l 1,20,21
 258 -478 258 -478 178 -478 c 1,22,-1
 -34 -488 l 1,23,-1
 -38 -484 l 1,24,-1
 -38 -444 l 2,25,26
 -38 -432 -38 -432 -18 -428 c 2,27,-1
 20 -422 l 2,28,29
 112 -408 112 -408 130 -330 c 2,30,-1
 340 610 l 1,31,32
 238 526 238 526 192 466 c 1,33,34
 140 466 140 466 130 510 c 1,35,36
 200 598 200 598 364 716 c 1,37,-1
 392 838 l 2,38,39
 394 850 394 850 400 884 c 128,-1,40
 406 918 406 918 410 932 c 128,-1,41
 414 946 414 946 423 968 c 128,-1,42
 432 990 432 990 447 998 c 128,-1,43
 462 1006 462 1006 486 1006 c 0,44,45
 572 1006 572 1006 572 950 c 0,46,47
 572 940 572 940 567 917 c 128,-1,48
 562 894 562 894 554 867 c 128,-1,49
 546 840 546 840 544 828 c 1,0,1
874 560 m 0,50,51
 874 806 874 806 714 804 c 0,52,53
 634 804 634 804 526 736 c 1,54,-1
 392 138 l 1,55,56
 454 52 454 52 542 52 c 0,57,58
 600 52 600 52 657 93 c 128,-1,59
 714 134 714 134 756 196 c 0,60,61
 814 284 814 284 844 383 c 128,-1,62
 874 482 874 482 874 560 c 0,50,51
EndSplineSet
Substitution2: "'sinf' Scientific Inferiors lookup 11 subtable" p.inferior
Substitution2: "'sups' Superscript lookup 10 subtable" p.superior
Substitution2: "'smcp' Lowercase to Small Capitals lookup 6 subtable" p.sc
AlternateSubs2: "'aalt' Access All Alternates lookup 2 subtable" p.sc
EndChar

StartChar: q
Encoding: 113 113 71
Width: 1004
GlyphClass: 2
Flags: W
AnchorPoint: "Anchor-6" 346 -226 basechar 0
AnchorPoint: "Anchor-2" 756 1320 basechar 0
LayerCount: 2
Fore
SplineSet
830 676 m 0,0,1
 830 740 830 740 795 783 c 128,-1,2
 760 826 760 826 704 826 c 0,3,4
 552 826 552 826 445 670 c 128,-1,5
 338 514 338 514 338 324 c 0,6,7
 338 224 338 224 366 145 c 128,-1,8
 394 66 394 66 448 66 c 0,9,10
 508 66 508 66 612 168 c 128,-1,11
 716 270 716 270 752 368 c 0,12,13
 780 452 780 452 805 552 c 128,-1,14
 830 652 830 652 830 676 c 0,0,1
604 -330 m 2,15,-1
 740 202 l 1,16,-1
 734 204 l 1,17,18
 644 80 644 80 566 30 c 128,-1,19
 488 -20 488 -20 406 -20 c 0,20,21
 336 -20 336 -20 287 7 c 128,-1,22
 238 34 238 34 213 84 c 128,-1,23
 188 134 188 134 177 186 c 128,-1,24
 166 238 166 238 166 302 c 0,25,26
 166 428 166 428 218 543 c 128,-1,27
 270 658 270 658 350 733 c 128,-1,28
 430 808 430 808 522 854 c 128,-1,29
 614 900 614 900 696 900 c 0,30,31
 814 900 814 900 892 790 c 1,32,-1
 952 874 l 2,33,34
 978 912 978 912 1016 914 c 0,35,36
 1038 914 1038 914 1038 892 c 0,37,38
 1038 880 1038 880 1034 862 c 2,39,-1
 760 -330 l 1,40,41
 754 -344 754 -344 757 -356 c 128,-1,42
 760 -368 760 -368 761 -377 c 128,-1,43
 762 -386 762 -386 770 -392 c 128,-1,44
 778 -398 778 -398 783 -401 c 128,-1,45
 788 -404 788 -404 797 -407 c 128,-1,46
 806 -410 806 -410 813 -411 c 128,-1,47
 820 -412 820 -412 828 -414 c 2,48,-1
 866 -420 l 2,49,50
 878 -422 878 -422 878 -436 c 2,51,-1
 878 -478 l 1,52,-1
 874 -482 l 1,53,54
 734 -478 734 -478 656 -478 c 1,55,-1
 440 -488 l 1,56,-1
 436 -484 l 1,57,-1
 436 -444 l 2,58,59
 436 -432 436 -432 456 -428 c 2,60,-1
 496 -422 l 2,61,62
 546 -414 546 -414 570 -394 c 128,-1,63
 594 -374 594 -374 604 -330 c 2,15,-1
EndSplineSet
Substitution2: "'sinf' Scientific Inferiors lookup 11 subtable" q.inferior
Substitution2: "'sups' Superscript lookup 10 subtable" q.superior
Substitution2: "'smcp' Lowercase to Small Capitals lookup 6 subtable" q.sc
AlternateSubs2: "'aalt' Access All Alternates lookup 2 subtable" q.sc
EndChar

StartChar: r
Encoding: 114 114 72
Width: 730
GlyphClass: 2
Flags: W
AnchorPoint: "Anchor-6" 232 -226 basechar 0
AnchorPoint: "Anchor-5" 274 14 basechar 0
AnchorPoint: "Anchor-2" 638 1324 basechar 0
LayerCount: 2
Fore
SplineSet
452 584 m 1,0,-1
 460 582 l 1,1,2
 528 728 528 728 612 814 c 128,-1,3
 696 900 696 900 772 900 c 0,4,5
 826 900 826 900 852 870 c 128,-1,6
 878 840 878 840 878 802 c 0,7,8
 878 758 878 758 852 723 c 128,-1,9
 826 688 826 688 786 688 c 0,10,11
 754 688 754 688 716 732 c 0,12,13
 696 756 696 756 674 756 c 0,14,15
 616 756 616 756 414 388 c 1,16,-1
 354 148 l 2,17,18
 350 134 350 134 344 101 c 128,-1,19
 338 68 338 68 333 52 c 128,-1,20
 328 36 328 36 319 16 c 128,-1,21
 310 -4 310 -4 295 -12 c 128,-1,22
 280 -20 280 -20 260 -20 c 0,23,24
 182 -20 182 -20 182 34 c 0,25,26
 182 48 182 48 186 66 c 128,-1,27
 190 84 190 84 197 108 c 128,-1,28
 204 132 204 132 208 148 c 2,29,-1
 322 658 l 2,30,31
 336 716 336 716 336 762 c 0,32,33
 336 798 336 798 300 802 c 2,34,-1
 218 808 l 1,35,36
 196 840 196 840 216 866 c 1,37,38
 424 892 424 892 460 892 c 0,39,40
 504 892 504 892 504 842 c 0,41,42
 504 814 504 814 468 656 c 2,43,-1
 452 584 l 1,0,-1
EndSplineSet
Substitution2: "'sinf' Scientific Inferiors lookup 11 subtable" r.inferior
Substitution2: "'sups' Superscript lookup 10 subtable" r.superior
Substitution2: "'smcp' Lowercase to Small Capitals lookup 6 subtable" r.sc
AlternateSubs2: "'aalt' Access All Alternates lookup 2 subtable" r.sc
EndChar

StartChar: s
Encoding: 115 115 73
Width: 722
GlyphClass: 2
Flags: W
AnchorPoint: "Anchor-6" 346 -228 basechar 0
AnchorPoint: "Anchor-5" 378 -2 basechar 0
AnchorPoint: "Anchor-4" 566 26 basechar 0
AnchorPoint: "Anchor-2" 670 1320 basechar 0
LayerCount: 2
Fore
SplineSet
356 -20 m 1,0,1
 254 -14 254 -14 187 33 c 128,-1,2
 120 80 120 80 120 140 c 0,3,4
 120 164 120 164 139 187 c 128,-1,5
 158 210 158 210 196 210 c 0,6,7
 236 210 236 210 261 178 c 128,-1,8
 286 146 286 146 292 102 c 0,9,10
 296 70 296 70 317 59 c 128,-1,11
 338 48 338 48 380 48 c 0,12,13
 456 48 456 48 506 83 c 128,-1,14
 556 118 556 118 556 198 c 0,15,16
 556 298 556 298 430 382 c 0,17,18
 252 502 252 502 252 644 c 0,19,20
 252 744 252 744 332 822 c 128,-1,21
 412 900 412 900 538 900 c 0,22,23
 630 900 630 900 701 846 c 128,-1,24
 772 792 772 792 772 736 c 0,25,26
 772 666 772 666 698 666 c 0,27,28
 662 666 662 666 635 699 c 128,-1,29
 608 732 608 732 604 772 c 0,30,31
 596 832 596 832 512 832 c 0,32,33
 450 832 450 832 416 789 c 128,-1,34
 382 746 382 746 382 686 c 0,35,36
 382 612 382 612 464 558 c 0,37,38
 600 468 600 468 654 394 c 128,-1,39
 708 320 708 320 708 242 c 0,40,41
 708 126 708 126 621 53 c 128,-1,42
 534 -20 534 -20 388 -20 c 2,43,-1
 356 -20 l 1,0,1
EndSplineSet
Substitution2: "'sinf' Scientific Inferiors lookup 11 subtable" s.inferior
Substitution2: "'sups' Superscript lookup 10 subtable" s.superior
Substitution2: "'smcp' Lowercase to Small Capitals lookup 6 subtable" s.sc
AlternateSubs2: "'aalt' Access All Alternates lookup 2 subtable" s.sc
EndChar

StartChar: t
Encoding: 116 116 74
Width: 628
GlyphClass: 2
Flags: W
AnchorPoint: "Anchor-6" 272 -220 basechar 0
AnchorPoint: "Anchor-5" 306 -6 basechar 0
AnchorPoint: "Anchor-4" 432 30 basechar 0
LayerCount: 2
Fore
SplineSet
380 878 m 1,0,-1
 408 980 l 2,1,2
 412 996 412 996 419 1037 c 128,-1,3
 426 1078 426 1078 432 1096 c 128,-1,4
 438 1114 438 1114 455 1131 c 128,-1,5
 472 1148 472 1148 498 1148 c 0,6,7
 580 1148 580 1148 580 1094 c 0,8,9
 580 1090 580 1090 552 970 c 2,10,-1
 532 878 l 1,11,-1
 736 878 l 1,12,13
 752 866 752 866 743 836 c 128,-1,14
 734 806 734 806 714 798 c 1,15,-1
 514 798 l 1,16,-1
 394 260 l 2,17,18
 372 160 372 160 371 131 c 128,-1,19
 370 102 370 102 398 102 c 0,20,21
 450 102 450 102 562 230 c 1,22,23
 598 230 598 230 606 190 c 1,24,25
 554 98 554 98 467 39 c 128,-1,26
 380 -20 380 -20 310 -20 c 0,27,28
 258 -20 258 -20 233 0 c 128,-1,29
 208 20 208 20 208 74 c 0,30,31
 208 114 208 114 238 242 c 2,32,-1
 362 798 l 1,33,-1
 220 798 l 2,34,35
 208 798 208 798 206 802 c 0,36,37
 206 812 206 812 216 838 c 0,38,39
 224 870 224 870 272 872 c 2,40,-1
 380 878 l 1,0,-1
EndSplineSet
Substitution2: "'sinf' Scientific Inferiors lookup 11 subtable" t.inferior
Substitution2: "'sups' Superscript lookup 10 subtable" t.superior
Substitution2: "'smcp' Lowercase to Small Capitals lookup 6 subtable" t.sc
AlternateSubs2: "'aalt' Access All Alternates lookup 2 subtable" t.sc
EndChar

StartChar: u
Encoding: 117 117 75
Width: 1066
GlyphClass: 2
Flags: W
AnchorPoint: "Anchor-6" 462 -228 basechar 0
AnchorPoint: "Anchor-5" 436 0 basechar 0
AnchorPoint: "Anchor-4" 898 14 basechar 0
AnchorPoint: "Anchor-2" 790 1324 basechar 0
LayerCount: 2
Fore
SplineSet
1036 720 m 2,0,-1
 922 254 l 2,1,2
 900 156 900 156 900 138 c 0,3,4
 900 104 900 104 920 102 c 0,5,6
 936 102 936 102 975 132 c 128,-1,7
 1014 162 1014 162 1052 204 c 1,8,9
 1086 204 1086 204 1100 170 c 1,10,11
 950 -20 950 -20 816 -20 c 0,12,13
 740 -20 740 -20 740 48 c 0,14,15
 740 114 740 114 774 236 c 2,16,-1
 796 316 l 1,17,-1
 790 320 l 1,18,19
 666 138 666 138 580 59 c 128,-1,20
 494 -20 494 -20 382 -20 c 0,21,22
 322 -20 322 -20 284 21 c 128,-1,23
 246 62 246 62 246 144 c 0,24,25
 246 206 246 206 266 280 c 2,26,-1
 356 624 l 2,27,28
 382 722 382 722 382 742 c 0,29,30
 382 776 382 776 362 776 c 0,31,32
 346 776 346 776 302 746 c 128,-1,33
 258 716 258 716 222 674 c 1,34,35
 188 674 188 674 174 708 c 1,36,37
 324 898 324 898 484 900 c 0,38,39
 558 900 558 900 558 832 c 0,40,41
 558 816 558 816 514 644 c 1,42,-1
 426 310 l 2,43,44
 408 238 408 238 408 178 c 0,45,46
 408 102 408 102 468 102 c 0,47,48
 540 102 540 102 619 196 c 128,-1,49
 698 290 698 290 824 506 c 1,50,-1
 882 732 l 2,51,52
 886 748 886 748 895 789 c 128,-1,53
 904 830 904 830 909 847 c 128,-1,54
 914 864 914 864 932 882 c 128,-1,55
 950 900 950 900 976 900 c 0,56,57
 1062 900 1062 900 1062 844 c 0,58,59
 1062 834 1062 834 1057 811 c 128,-1,60
 1052 788 1052 788 1045 760 c 128,-1,61
 1038 732 1038 732 1036 720 c 2,0,-1
EndSplineSet
Substitution2: "'sinf' Scientific Inferiors lookup 11 subtable" u.inferior
Substitution2: "'sups' Superscript lookup 10 subtable" u.superior
Substitution2: "'smcp' Lowercase to Small Capitals lookup 6 subtable" u.sc
AlternateSubs2: "'aalt' Access All Alternates lookup 2 subtable" u.sc
EndChar

StartChar: v
Encoding: 118 118 76
Width: 966
GlyphClass: 2
Flags: W
LayerCount: 2
Fore
SplineSet
624 156 m 1,0,-1
 632 152 l 1,1,2
 666 178 666 178 762 304 c 1,3,4
 800 360 800 360 835 424 c 128,-1,5
 870 488 870 488 893 551 c 128,-1,6
 916 614 916 614 916 658 c 0,7,8
 916 718 916 718 872 782 c 0,9,10
 862 798 862 798 862 824 c 0,11,12
 862 900 862 900 956 900 c 0,13,14
 1062 900 1062 900 1062 802 c 0,15,16
 1062 712 1062 712 1008 584 c 0,17,18
 996 552 996 552 976 517 c 128,-1,19
 956 482 956 482 942 456 c 128,-1,20
 928 430 928 430 904 394 c 128,-1,21
 880 358 880 358 870 344 c 128,-1,22
 860 330 860 330 837 297 c 128,-1,23
 814 264 814 264 814 262 c 0,24,25
 744 164 744 164 642 50 c 0,26,27
 574 -24 574 -24 552 -24 c 0,28,29
 508 -24 508 -24 488 106 c 2,30,-1
 402 606 l 2,31,32
 382 730 382 730 354 732 c 256,33,34
 328 732 328 732 296 708 c 128,-1,35
 264 684 264 684 210 632 c 1,36,37
 176 636 176 636 168 670 c 1,38,39
 226 758 226 758 301 829 c 128,-1,40
 376 900 376 900 426 900 c 0,41,42
 482 900 482 900 507 842 c 128,-1,43
 532 784 532 784 556 632 c 2,44,-1
 624 156 l 1,0,-1
EndSplineSet
Substitution2: "'sinf' Scientific Inferiors lookup 11 subtable" v.inferior
Substitution2: "'sups' Superscript lookup 10 subtable" v.superior
Substitution2: "'smcp' Lowercase to Small Capitals lookup 6 subtable" v.sc
AlternateSubs2: "'aalt' Access All Alternates lookup 2 subtable" v.sc
EndChar

StartChar: w
Encoding: 119 119 77
Width: 1408
GlyphClass: 2
Flags: W
AnchorPoint: "Anchor-6" 728 -226 basechar 0
AnchorPoint: "Anchor-2" 712 1324 basechar 0
AnchorPoint: "Anchor-1" 1478 1188 basechar 0
LayerCount: 2
Fore
SplineSet
542 -24 m 0,0,1
 510 -24 510 -24 488 106 c 2,2,-1
 402 606 l 2,3,4
 382 730 382 730 354 732 c 256,5,6
 328 732 328 732 296 708 c 128,-1,7
 264 684 264 684 210 632 c 1,8,9
 176 636 176 636 168 670 c 1,10,11
 226 758 226 758 301 829 c 128,-1,12
 376 900 376 900 426 900 c 0,13,14
 480 900 480 900 505 842 c 128,-1,15
 530 784 530 784 556 632 c 2,16,-1
 624 196 l 1,17,-1
 630 192 l 1,18,19
 670 258 670 258 755 416 c 128,-1,20
 840 574 840 574 898 708 c 1,21,22
 944 730 944 730 998 734 c 1,23,24
 1016 688 1016 688 1048 550 c 0,25,26
 1092 370 1092 370 1120 196 c 1,27,-1
 1134 192 l 1,28,29
 1184 244 1184 244 1226 304 c 0,30,31
 1284 382 1284 382 1321 485 c 128,-1,32
 1358 588 1358 588 1358 658 c 0,33,34
 1358 718 1358 718 1314 780 c 0,35,36
 1304 798 1304 798 1304 824 c 0,37,38
 1304 900 1304 900 1398 900 c 0,39,40
 1504 900 1504 900 1506 802 c 0,41,42
 1506 712 1506 712 1450 584 c 0,43,44
 1368 390 1368 390 1276 258 c 0,45,46
 1180 122 1180 122 1122 52 c 0,47,48
 1060 -24 1060 -24 1028 -24 c 0,49,50
 998 -24 998 -24 980 94 c 0,51,52
 950 306 950 306 902 528 c 1,53,-1
 888 526 l 1,54,55
 784 300 784 300 628 56 c 0,56,57
 606 22 606 22 580 -1 c 128,-1,58
 554 -24 554 -24 542 -24 c 0,0,1
EndSplineSet
Substitution2: "'sinf' Scientific Inferiors lookup 11 subtable" w.inferior
Substitution2: "'sups' Superscript lookup 10 subtable" w.superior
Substitution2: "'smcp' Lowercase to Small Capitals lookup 6 subtable" w.sc
AlternateSubs2: "'aalt' Access All Alternates lookup 2 subtable" w.sc
EndChar

StartChar: x
Encoding: 120 120 78
Width: 972
GlyphClass: 2
Flags: W
AnchorPoint: "Anchor-6" 458 -226 basechar 0
AnchorPoint: "Anchor-5" 172 16 basechar 0
AnchorPoint: "Anchor-2" 750 1324 basechar 0
LayerCount: 2
Fore
SplineSet
440 632 m 2,0,1
 418 696 418 696 406 718 c 0,2,3
 392 740 392 740 348 742 c 0,4,5
 308 742 308 742 212 698 c 1,6,7
 192 718 192 718 186 762 c 1,8,9
 246 806 246 806 335 853 c 128,-1,10
 424 900 424 900 456 900 c 0,11,12
 492 900 492 900 515 868 c 128,-1,13
 538 836 538 836 566 752 c 2,14,-1
 622 572 l 1,15,-1
 724 718 l 2,16,17
 798 822 798 822 857 861 c 128,-1,18
 916 900 916 900 996 900 c 0,19,20
 1034 900 1034 900 1066 877 c 128,-1,21
 1098 854 1098 854 1098 818 c 0,22,23
 1098 784 1098 784 1076 757 c 128,-1,24
 1054 730 1054 730 1032 730 c 0,25,26
 992 730 992 730 965 750 c 128,-1,27
 938 770 938 770 904 770 c 0,28,29
 844 770 844 770 806 714 c 2,30,-1
 652 486 l 1,31,-1
 762 156 l 2,32,33
 786 80 786 80 812 80 c 0,34,35
 848 80 848 80 914 164 c 1,36,37
 948 158 948 158 962 124 c 1,38,39
 876 -22 876 -22 738 -20 c 0,40,41
 688 -20 688 -20 665 4 c 128,-1,42
 642 28 642 28 620 94 c 2,43,-1
 540 344 l 1,44,-1
 400 140 l 2,45,46
 334 46 334 46 289 13 c 128,-1,47
 244 -20 244 -20 190 -20 c 0,48,49
 150 -20 150 -20 111 0 c 128,-1,50
 72 20 72 20 72 58 c 0,51,52
 72 90 72 90 93 113 c 128,-1,53
 114 136 114 136 150 136 c 0,54,55
 180 136 180 136 208 122 c 0,56,57
 232 110 232 110 263 110 c 128,-1,58
 294 110 294 110 322 150 c 2,59,-1
 512 430 l 1,60,-1
 440 632 l 2,0,1
EndSplineSet
Substitution2: "'sinf' Scientific Inferiors lookup 11 subtable" x.inferior
Substitution2: "'sups' Superscript lookup 10 subtable" x.superior
Substitution2: "'smcp' Lowercase to Small Capitals lookup 6 subtable" x.sc
AlternateSubs2: "'aalt' Access All Alternates lookup 2 subtable" x.sc
EndChar

StartChar: y
Encoding: 121 121 79
Width: 1030
GlyphClass: 2
Flags: W
AnchorPoint: "Anchor-6" 754 -220 basechar 0
AnchorPoint: "Anchor-2" 752 1318 basechar 0
LayerCount: 2
Fore
SplineSet
720 0 m 2,0,-1
 628 -144 l 2,1,2
 530 -296 530 -296 419 -388 c 128,-1,3
 308 -480 308 -480 226 -480 c 0,4,5
 188 -480 188 -480 144 -459 c 128,-1,6
 100 -438 100 -438 100 -394 c 256,7,8
 100 -348 100 -348 130 -318 c 128,-1,9
 160 -288 160 -288 194 -288 c 0,10,11
 206 -288 206 -288 231 -299 c 128,-1,12
 256 -310 256 -310 266 -318 c 0,13,14
 312 -354 312 -354 338 -354 c 0,15,16
 360 -354 360 -354 419 -290 c 128,-1,17
 478 -226 478 -226 536 -126 c 1,18,19
 554 -86 554 -86 518 197 c 128,-1,20
 482 480 482 480 436 632 c 0,21,22
 418 698 418 698 406 718 c 0,23,24
 392 740 392 740 348 742 c 0,25,26
 308 742 308 742 212 698 c 1,27,28
 192 718 192 718 186 760 c 1,29,30
 246 806 246 806 335 853 c 128,-1,31
 424 900 424 900 456 900 c 0,32,33
 492 900 492 900 516 866 c 128,-1,34
 540 832 540 832 564 748 c 0,35,36
 608 574 608 574 625 423 c 128,-1,37
 642 272 642 272 652 62 c 1,38,-1
 664 56 l 1,39,-1
 824 304 l 1,40,41
 978 548 978 548 976 658 c 0,42,43
 976 718 976 718 934 780 c 0,44,45
 922 798 922 798 922 824 c 0,46,47
 922 900 922 900 1018 900 c 0,48,49
 1124 900 1124 900 1124 802 c 0,50,51
 1124 712 1124 712 1070 584 c 0,52,53
 1046 524 1046 524 972 400 c 128,-1,54
 898 276 898 276 810 138 c 128,-1,55
 722 0 722 0 720 0 c 2,0,-1
EndSplineSet
Substitution2: "'sinf' Scientific Inferiors lookup 11 subtable" y.inferior
Substitution2: "'sups' Superscript lookup 10 subtable" y.superior
Substitution2: "'smcp' Lowercase to Small Capitals lookup 6 subtable" y.sc
AlternateSubs2: "'aalt' Access All Alternates lookup 2 subtable" y.sc
EndChar

StartChar: z
Encoding: 122 122 80
Width: 892
GlyphClass: 2
Flags: W
AnchorPoint: "Anchor-6" 382 -228 basechar 0
AnchorPoint: "Anchor-5" 426 8 basechar 0
AnchorPoint: "Anchor-2" 738 1324 basechar 0
LayerCount: 2
Fore
SplineSet
898 910 m 1,0,-1
 956 878 l 1,1,2
 950 868 950 868 942 857 c 128,-1,3
 934 846 934 846 923 833 c 128,-1,4
 912 820 912 820 900 807 c 128,-1,5
 888 794 888 794 872 776 c 128,-1,6
 856 758 856 758 844 742 c 0,7,8
 776 658 776 658 584 451 c 128,-1,9
 392 244 392 244 360 208 c 1,10,11
 424 208 424 208 469 197 c 128,-1,12
 514 186 514 186 532 173 c 128,-1,13
 550 160 550 160 579 149 c 128,-1,14
 608 138 608 138 642 138 c 0,15,16
 676 138 676 138 700 145 c 128,-1,17
 724 152 724 152 761 182 c 128,-1,18
 798 212 798 212 836 272 c 1,19,20
 868 272 868 272 886 252 c 1,21,22
 816 94 816 94 760 37 c 128,-1,23
 704 -20 704 -20 634 -20 c 0,24,25
 544 -20 544 -20 458 30 c 0,26,27
 372 84 372 84 304 84 c 0,28,29
 286 84 286 84 252 55 c 128,-1,30
 218 26 218 26 186 -24 c 1,31,32
 164 -22 164 -22 140 -12 c 1,33,34
 122 -8 122 -8 110 14 c 1,35,36
 120 52 120 52 238 186 c 1,37,-1
 730 730 l 1,38,39
 706 726 706 726 666 724 c 0,40,41
 640 724 640 724 564 734 c 128,-1,42
 488 744 488 744 436 744 c 0,43,44
 364 744 364 744 330 721 c 128,-1,45
 296 698 296 698 264 628 c 1,46,47
 226 628 226 628 208 646 c 1,48,49
 234 740 234 740 295 820 c 128,-1,50
 356 900 356 900 408 900 c 0,51,52
 466 900 466 900 624 872 c 1,53,54
 760 844 760 844 786 844 c 0,55,56
 840 844 840 844 898 910 c 1,0,-1
EndSplineSet
Substitution2: "'sinf' Scientific Inferiors lookup 11 subtable" z.inferior
Substitution2: "'sups' Superscript lookup 10 subtable" z.superior
Substitution2: "'smcp' Lowercase to Small Capitals lookup 6 subtable" z.sc
AlternateSubs2: "'aalt' Access All Alternates lookup 2 subtable" z.sc
EndChar

StartChar: asciitilde
Encoding: 126 126 81
Width: 918
GlyphClass: 2
Flags: W
LayerCount: 2
Fore
SplineSet
130 428 m 1,0,1
 168 530 168 530 257 610 c 128,-1,2
 346 690 346 690 436 690 c 0,3,4
 484 690 484 690 577 624 c 128,-1,5
 670 558 670 558 714 558 c 0,6,7
 768 558 768 558 834 591 c 128,-1,8
 900 624 900 624 942 694 c 1,9,-1
 974 682 l 1,10,11
 926 582 926 582 863 522 c 128,-1,12
 800 462 800 462 760 449 c 128,-1,13
 720 436 720 436 686 436 c 0,14,15
 630 436 630 436 543 503 c 128,-1,16
 456 570 456 570 404 570 c 0,17,18
 346 570 346 570 272 529 c 128,-1,19
 198 488 198 488 154 422 c 1,20,-1
 130 428 l 1,0,1
EndSplineSet
EndChar

StartChar: sterling
Encoding: 163 163 83
Width: 896
GlyphClass: 2
Flags: W
LayerCount: 2
Fore
SplineSet
336 174 m 0,0,1
 466 174 466 174 542 116 c 1,2,3
 592 78 592 78 652 78 c 0,4,5
 702 78 702 78 764 102 c 128,-1,6
 826 126 826 126 868 174 c 1,7,-1
 902 148 l 1,8,9
 858 70 858 70 780 23 c 128,-1,10
 702 -24 702 -24 598 -24 c 0,11,12
 518 -24 518 -24 416 40 c 0,13,14
 332 94 332 94 274 94 c 0,15,16
 228 94 228 94 205 78 c 128,-1,17
 182 62 182 62 178 40 c 0,18,19
 172 4 172 4 142 -15 c 128,-1,20
 112 -34 112 -34 82 -34 c 0,21,22
 62 -34 62 -34 48 -19 c 128,-1,23
 34 -4 34 -4 38 14 c 0,24,25
 50 76 50 76 156 124 c 1,26,27
 174 136 174 136 196 158 c 0,28,29
 322 268 322 268 378 544 c 1,30,-1
 390 598 l 1,31,-1
 254 598 l 1,32,-1
 270 680 l 1,33,-1
 406 680 l 1,34,-1
 408 696 l 1,35,36
 432 818 432 818 484 906 c 128,-1,37
 536 994 536 994 632 1072 c 1,38,39
 756 1178 756 1178 912 1178 c 0,40,41
 962 1178 962 1178 1010 1155 c 128,-1,42
 1058 1132 1058 1132 1048 1088 c 1,43,44
 1042 1052 1042 1052 1016 1031 c 128,-1,45
 990 1010 990 1010 952 1010 c 0,46,47
 922 1010 922 1010 892 1046 c 1,48,49
 846 1092 846 1092 804 1092 c 0,50,51
 734 1092 734 1092 667 1006 c 128,-1,52
 600 920 600 920 576 794 c 2,53,-1
 552 680 l 1,54,-1
 820 680 l 1,55,-1
 804 598 l 1,56,-1
 536 598 l 1,57,-1
 534 588 l 1,58,59
 476 278 476 278 328 180 c 0,60,61
 326 178 326 178 322 176 c 128,-1,62
 318 174 318 174 316 172 c 1,63,64
 328 174 328 174 336 174 c 0,0,1
EndSplineSet
EndChar

StartChar: guillemotleft
Encoding: 171 171 84
Width: 950
GlyphClass: 2
Flags: W
LayerCount: 2
Fore
SplineSet
354 440 m 1,0,1
 448 324 448 324 548 96 c 1,2,-1
 480 48 l 1,3,4
 336 280 336 280 220 392 c 0,5,6
 198 414 198 414 184 424 c 1,7,-1
 190 456 l 1,8,-1
 240 490 l 1,9,10
 416 612 416 612 648 834 c 1,11,-1
 694 784 l 1,12,13
 488 546 488 546 354 440 c 1,0,1
688 440 m 1,14,15
 782 324 782 324 882 96 c 1,16,-1
 816 48 l 1,17,18
 672 280 672 280 556 392 c 0,19,20
 534 414 534 414 520 424 c 1,21,-1
 526 456 l 1,22,-1
 576 490 l 1,23,24
 752 612 752 612 984 834 c 1,25,-1
 1028 784 l 1,26,27
 822 546 822 546 688 440 c 1,14,15
EndSplineSet
Substitution2: "'c2sc' Capitals to Small Capitals lookup 12 subtable" guillemotleft.sc
Substitution2: "'case' Case-Sensitive Forms lookup 9 subtable" guillemotleft.sc
AlternateSubs2: "'aalt' Access All Alternates lookup 2 subtable" guillemotleft.sc
EndChar

StartChar: periodcentered
Encoding: 183 183 85
Width: 512
GlyphClass: 2
Flags: W
LayerCount: 2
Fore
SplineSet
365 408 m 128,-1,1
 322 408 322 408 288 442 c 128,-1,2
 254 476 254 476 254 519 c 128,-1,3
 254 562 254 562 288 595 c 128,-1,4
 322 628 322 628 365 628 c 128,-1,5
 408 628 408 628 442 595 c 128,-1,6
 476 562 476 562 476 519 c 128,-1,7
 476 476 476 476 442 442 c 128,-1,0
 408 408 408 408 365 408 c 128,-1,1
EndSplineSet
EndChar

StartChar: guillemotright
Encoding: 187 187 86
Width: 950
GlyphClass: 2
Flags: W
LayerCount: 2
Fore
SplineSet
798 440 m 1,0,1
 704 556 704 556 604 784 c 1,2,-1
 674 834 l 1,3,4
 818 602 818 602 934 490 c 0,5,6
 956 468 956 468 968 456 c 1,7,-1
 962 424 l 1,8,-1
 914 392 l 1,9,10
 738 270 738 270 506 48 c 1,11,-1
 458 96 l 1,12,13
 664 334 664 334 798 440 c 1,0,1
464 440 m 1,14,15
 370 556 370 556 270 784 c 1,16,-1
 338 834 l 1,17,18
 482 602 482 602 598 490 c 0,19,20
 620 468 620 468 632 456 c 1,21,-1
 626 424 l 1,22,-1
 578 392 l 1,23,24
 402 270 402 270 170 48 c 1,25,-1
 124 96 l 1,26,27
 330 334 330 334 464 440 c 1,14,15
EndSplineSet
Substitution2: "'c2sc' Capitals to Small Capitals lookup 12 subtable" guillemotright.sc
Substitution2: "'case' Case-Sensitive Forms lookup 9 subtable" guillemotright.sc
AlternateSubs2: "'aalt' Access All Alternates lookup 2 subtable" guillemotright.sc
EndChar

StartChar: onequarter
Encoding: 188 188 87
Width: 1350
GlyphClass: 3
Flags: W
LayerCount: 2
Fore
SplineSet
1284 1108 m 1,0,-1
 1368 1092 l 1,1,-1
 286 -86 l 1,2,-1
 200 -70 l 1,3,-1
 1284 1108 l 1,0,-1
502 1172 m 0,4,5
 454 1172 454 1172 378 1138 c 1,6,-1
 370 1194 l 1,7,8
 506 1242 506 1242 630 1308 c 1,9,-1
 664 1308 l 1,10,-1
 560 774 l 2,11,12
 552 742 552 742 563 720 c 128,-1,13
 574 698 574 698 596 698 c 2,14,-1
 654 698 l 2,15,16
 666 698 666 698 664 688 c 2,17,-1
 656 646 l 1,18,19
 550 648 550 648 480 648 c 2,20,-1
 278 646 l 1,21,-1
 286 688 l 1,22,23
 290 698 290 698 304 698 c 2,24,-1
 376 698 l 2,25,26
 400 698 400 698 423 720 c 128,-1,27
 446 742 446 742 454 774 c 2,28,-1
 514 1086 l 2,29,30
 518 1112 518 1112 520 1127 c 128,-1,31
 522 1142 522 1142 521 1153 c 128,-1,32
 520 1164 520 1164 516 1168 c 128,-1,33
 512 1172 512 1172 502 1172 c 0,4,5
1156 394 m 1,34,35
 930 172 930 172 890 106 c 1,36,-1
 1092 106 l 1,37,-1
 1156 394 l 1,34,35
1064 -12 m 2,38,-1
 1076 36 l 1,39,-1
 834 36 l 2,40,41
 798 36 798 36 796 62 c 0,42,43
 796 74 796 74 806 94 c 1,44,45
 822 118 822 118 834 130 c 0,46,47
 924 238 924 238 1130 430 c 0,48,49
 1178 474 1178 474 1216 494 c 0,50,51
 1218 496 1218 496 1246 496 c 0,52,53
 1254 496 1254 496 1261 495 c 128,-1,54
 1268 494 1268 494 1275 489 c 128,-1,55
 1282 484 1282 484 1280 476 c 2,56,-1
 1198 106 l 1,57,-1
 1312 106 l 1,58,-1
 1284 36 l 1,59,-1
 1182 36 l 1,60,-1
 1172 -12 l 1,61,62
 1162 -46 1162 -46 1169 -67 c 128,-1,63
 1176 -88 1176 -88 1195 -96 c 128,-1,64
 1214 -104 1214 -104 1256 -106 c 1,65,66
 1264 -138 1264 -138 1242 -166 c 1,67,68
 1180 -164 1180 -164 1084 -164 c 0,69,70
 984 -164 984 -164 922 -166 c 1,71,72
 918 -158 918 -158 922 -138 c 128,-1,73
 926 -118 926 -118 936 -106 c 1,74,75
 1004 -102 1004 -102 1028 -87 c 128,-1,76
 1052 -72 1052 -72 1064 -12 c 2,38,-1
EndSplineSet
Ligature2: "'frac' Diagonal Fractions lookup 8 subtable" one slash four
EndChar

StartChar: onehalf
Encoding: 189 189 88
Width: 1350
GlyphClass: 3
Flags: W
LayerCount: 2
Fore
SplineSet
1244 1108 m 1,0,-1
 1328 1092 l 1,1,-1
 246 -86 l 1,2,-1
 160 -70 l 1,3,-1
 1244 1108 l 1,0,-1
506 1172 m 0,4,5
 458 1172 458 1172 382 1138 c 1,6,-1
 374 1194 l 1,7,8
 510 1242 510 1242 634 1308 c 1,9,-1
 668 1308 l 1,10,-1
 564 774 l 2,11,12
 556 742 556 742 567 720 c 128,-1,13
 578 698 578 698 600 698 c 2,14,-1
 658 698 l 2,15,16
 670 698 670 698 668 688 c 2,17,-1
 660 646 l 1,18,19
 554 648 554 648 484 648 c 2,20,-1
 282 646 l 1,21,-1
 290 688 l 1,22,23
 294 698 294 698 308 698 c 2,24,-1
 380 698 l 2,25,26
 404 698 404 698 427 720 c 128,-1,27
 450 742 450 742 458 774 c 2,28,-1
 518 1086 l 2,29,30
 522 1112 522 1112 524 1127 c 128,-1,31
 526 1142 526 1142 525 1153 c 128,-1,32
 524 1164 524 1164 520 1168 c 128,-1,33
 516 1172 516 1172 506 1172 c 0,4,5
954 294 m 0,34,35
 936 294 936 294 922 307 c 128,-1,36
 908 320 908 320 908 336 c 0,37,38
 908 342 908 342 910 344 c 0,39,40
 920 398 920 398 985 450 c 128,-1,41
 1050 502 1050 502 1160 502 c 0,42,43
 1240 502 1240 502 1295 470 c 128,-1,44
 1350 438 1350 438 1350 368 c 0,45,46
 1350 346 1350 346 1346 332 c 0,47,48
 1334 266 1334 266 1279 211 c 128,-1,49
 1224 156 1224 156 1116 88 c 0,50,51
 962 -8 962 -8 946 -96 c 1,52,-1
 1112 -96 l 2,53,54
 1182 -96 1182 -96 1256 40 c 1,55,-1
 1302 30 l 1,56,57
 1262 -60 1262 -60 1228 -162 c 1,58,-1
 806 -162 l 1,59,60
 826 -50 826 -50 1042 98 c 0,61,62
 1132 160 1132 160 1171 206 c 128,-1,63
 1210 252 1210 252 1224 330 c 0,64,65
 1228 350 1228 350 1228 360 c 0,66,67
 1228 408 1228 408 1201 430 c 128,-1,68
 1174 452 1174 452 1140 452 c 0,69,70
 1028 452 1028 452 1020 394 c 0,71,72
 1018 384 1018 384 1019 368 c 128,-1,73
 1020 352 1020 352 1018 344 c 0,74,75
 1014 322 1014 322 992 308 c 128,-1,76
 970 294 970 294 954 294 c 0,34,35
EndSplineSet
Ligature2: "'frac' Diagonal Fractions lookup 8 subtable" one slash two
EndChar

StartChar: threequarters
Encoding: 190 190 89
Width: 1350
GlyphClass: 3
Flags: W
LayerCount: 2
Fore
SplineSet
1284 1108 m 1,0,-1
 1368 1092 l 1,1,-1
 286 -86 l 1,2,-1
 200 -70 l 1,3,-1
 1284 1108 l 1,0,-1
1102 398 m 1,4,5
 876 176 876 176 838 110 c 1,6,-1
 1038 110 l 1,7,-1
 1102 398 l 1,4,5
1012 -8 m 2,8,-1
 1022 40 l 1,9,-1
 780 40 l 2,10,11
 744 40 744 40 744 66 c 0,12,13
 744 78 744 78 754 98 c 1,14,15
 770 122 770 122 780 134 c 0,16,17
 870 242 870 242 1078 434 c 0,18,19
 1126 478 1126 478 1164 498 c 0,20,21
 1166 500 1166 500 1192 500 c 0,22,23
 1200 500 1200 500 1207 499 c 128,-1,24
 1214 498 1214 498 1221 493 c 128,-1,25
 1228 488 1228 488 1226 480 c 2,26,-1
 1144 110 l 1,27,-1
 1260 110 l 1,28,-1
 1230 40 l 1,29,-1
 1128 40 l 1,30,-1
 1118 -8 l 2,31,32
 1106 -62 1106 -62 1124 -80 c 128,-1,33
 1142 -98 1142 -98 1202 -102 c 1,34,35
 1210 -134 1210 -134 1188 -162 c 1,36,37
 1126 -160 1126 -160 1030 -160 c 0,38,39
 930 -160 930 -160 868 -162 c 1,40,41
 864 -154 864 -154 868 -134 c 128,-1,42
 872 -114 872 -114 882 -102 c 1,43,44
 950 -98 950 -98 975 -83 c 128,-1,45
 1000 -68 1000 -68 1012 -8 c 2,8,-1
630 1174 m 0,46,47
 630 1178 630 1178 631 1185 c 128,-1,48
 632 1192 632 1192 632 1196 c 0,49,50
 632 1256 632 1256 564 1256 c 0,51,52
 542 1256 542 1256 516 1249 c 128,-1,53
 490 1242 490 1242 466 1225 c 128,-1,54
 442 1208 442 1208 436 1184 c 0,55,56
 422 1124 422 1124 372 1124 c 0,57,58
 354 1124 354 1124 345 1132 c 128,-1,59
 336 1140 336 1140 334 1148 c 128,-1,60
 332 1156 332 1156 332 1162 c 0,61,62
 338 1202 338 1202 410 1253 c 128,-1,63
 482 1304 482 1304 598 1304 c 0,64,65
 632 1304 632 1304 661 1297 c 128,-1,66
 690 1290 690 1290 710 1278 c 128,-1,67
 730 1266 730 1266 740 1247 c 128,-1,68
 750 1228 750 1228 750 1206 c 0,69,70
 750 1192 750 1192 748 1184 c 0,71,72
 732 1102 732 1102 616 1044 c 1,73,74
 668 1038 668 1038 709 1002 c 128,-1,75
 750 966 750 966 750 902 c 0,76,77
 750 890 750 890 746 864 c 0,78,79
 726 760 726 760 626 694 c 128,-1,80
 526 628 526 628 402 628 c 0,81,82
 342 628 342 628 287 650 c 128,-1,83
 232 672 232 672 232 700 c 0,84,85
 232 718 232 718 252 732 c 128,-1,86
 272 746 272 746 290 746 c 0,87,88
 316 746 316 746 338 716 c 1,89,90
 360 680 360 680 432 680 c 0,91,92
 450 680 450 680 475 687 c 128,-1,93
 500 694 500 694 531 711 c 128,-1,94
 562 728 562 728 587 763 c 128,-1,95
 612 798 612 798 622 848 c 0,96,97
 624 860 624 860 624 878 c 0,98,99
 624 918 624 918 598 942 c 128,-1,100
 572 966 572 966 545 972 c 128,-1,101
 518 978 518 978 488 978 c 0,102,103
 478 978 478 978 444 974 c 1,104,-1
 450 1024 l 1,105,106
 522 1034 522 1034 570 1073 c 128,-1,107
 618 1112 618 1112 630 1174 c 0,46,47
EndSplineSet
Ligature2: "'frac' Diagonal Fractions lookup 8 subtable" three slash four
EndChar

StartChar: Agrave
Encoding: 192 192 90
Width: 1366
GlyphClass: 2
Flags: W
LayerCount: 2
Fore
SplineSet
1224 1474 m 0,0,1
 1224 1436 1224 1436 1186 1436 c 0,2,3
 1160 1436 1160 1436 1104 1460 c 2,4,-1
 816 1590 l 1,5,-1
 994 1682 l 1,6,-1
 1202 1510 l 2,7,8
 1224 1490 1224 1490 1224 1474 c 0,0,1
628 580 m 2,9,-1
 970 580 l 1,10,-1
 886 1126 l 1,11,-1
 882 1126 l 1,12,-1
 586 606 l 2,13,14
 582 598 582 598 582 594 c 0,15,16
 580 580 580 580 628 580 c 2,9,-1
330 162 m 2,17,18
 316 138 316 138 316 114 c 0,19,20
 316 64 316 64 390 60 c 2,21,-1
 444 56 l 2,22,23
 458 56 458 56 456 38 c 2,24,-1
 452 0 l 1,25,-1
 446 -4 l 1,26,27
 302 0 302 0 190 0 c 0,28,29
 156 0 156 0 8 -4 c 1,30,-1
 6 0 l 1,31,-1
 12 38 l 2,32,33
 14 54 14 54 30 56 c 0,34,35
 102 60 102 60 149 90 c 128,-1,36
 196 120 196 120 250 208 c 2,37,-1
 894 1274 l 2,38,39
 910 1302 910 1302 923 1318 c 128,-1,40
 936 1334 936 1334 948 1341 c 128,-1,41
 960 1348 960 1348 974 1348 c 0,42,43
 994 1348 994 1348 1002 1333 c 128,-1,44
 1010 1318 1010 1318 1016 1286 c 2,45,-1
 1204 176 l 2,46,47
 1212 116 1212 116 1240 90 c 128,-1,48
 1268 64 1268 64 1328 58 c 2,49,-1
 1348 56 l 2,50,51
 1366 56 1366 56 1364 38 c 2,52,-1
 1360 0 l 1,53,-1
 1356 -4 l 1,54,55
 1212 0 1212 0 1124 0 c 0,56,57
 1012 0 1012 0 864 -4 c 1,58,-1
 862 0 l 1,59,-1
 866 38 l 2,60,61
 868 54 868 54 882 56 c 2,62,-1
 940 60 l 2,63,64
 1040 68 1040 68 1040 130 c 0,65,66
 1040 138 1040 138 1038 148 c 2,67,-1
 988 494 l 1,68,-1
 578 494 l 2,69,70
 544 494 544 494 528 487 c 128,-1,71
 512 480 512 480 502 458 c 2,72,-1
 330 162 l 2,17,18
EndSplineSet
Substitution2: "'c2sc' Capitals to Small Capitals lookup 12 subtable" agrave.sc
AlternateSubs2: "'aalt' Access All Alternates lookup 2 subtable" agrave.sc
Position2: "'cpsp' Capital Spacing lookup 0 subtable" dx=4 dy=0 dh=10 dv=0
EndChar

StartChar: Aacute
Encoding: 193 193 91
Width: 1366
GlyphClass: 2
Flags: W
LayerCount: 2
Fore
SplineSet
812 1436 m 0,0,1
 788 1436 788 1436 786 1458 c 0,2,3
 786 1482 786 1482 830 1510 c 2,4,-1
 1118 1682 l 1,5,-1
 1252 1590 l 1,6,-1
 906 1460 l 1,7,8
 832 1436 832 1436 812 1436 c 0,0,1
628 580 m 2,9,-1
 970 580 l 1,10,-1
 886 1126 l 1,11,-1
 882 1126 l 1,12,-1
 586 606 l 2,13,14
 582 598 582 598 582 594 c 0,15,16
 580 580 580 580 628 580 c 2,9,-1
330 162 m 2,17,18
 316 138 316 138 316 114 c 0,19,20
 316 64 316 64 390 60 c 2,21,-1
 444 56 l 2,22,23
 458 56 458 56 456 38 c 2,24,-1
 452 0 l 1,25,-1
 446 -4 l 1,26,27
 302 0 302 0 190 0 c 0,28,29
 156 0 156 0 8 -4 c 1,30,-1
 6 0 l 1,31,-1
 12 38 l 2,32,33
 14 54 14 54 30 56 c 0,34,35
 102 60 102 60 149 90 c 128,-1,36
 196 120 196 120 250 208 c 2,37,-1
 894 1274 l 2,38,39
 910 1302 910 1302 923 1318 c 128,-1,40
 936 1334 936 1334 948 1341 c 128,-1,41
 960 1348 960 1348 974 1348 c 0,42,43
 994 1348 994 1348 1002 1333 c 128,-1,44
 1010 1318 1010 1318 1016 1286 c 2,45,-1
 1204 176 l 2,46,47
 1212 116 1212 116 1240 90 c 128,-1,48
 1268 64 1268 64 1328 58 c 2,49,-1
 1348 56 l 2,50,51
 1366 56 1366 56 1364 38 c 2,52,-1
 1360 0 l 1,53,-1
 1356 -4 l 1,54,55
 1212 0 1212 0 1124 0 c 0,56,57
 1012 0 1012 0 864 -4 c 1,58,-1
 862 0 l 1,59,-1
 866 38 l 2,60,61
 868 54 868 54 882 56 c 2,62,-1
 940 60 l 2,63,64
 1040 68 1040 68 1040 130 c 0,65,66
 1040 138 1040 138 1038 148 c 2,67,-1
 988 494 l 1,68,-1
 578 494 l 2,69,70
 544 494 544 494 528 487 c 128,-1,71
 512 480 512 480 502 458 c 2,72,-1
 330 162 l 2,17,18
EndSplineSet
Substitution2: "'c2sc' Capitals to Small Capitals lookup 12 subtable" aacute.sc
AlternateSubs2: "'aalt' Access All Alternates lookup 2 subtable" aacute.sc
Position2: "'cpsp' Capital Spacing lookup 0 subtable" dx=4 dy=0 dh=10 dv=0
EndChar

StartChar: Acircumflex
Encoding: 194 194 92
Width: 1366
GlyphClass: 2
Flags: W
LayerCount: 2
Fore
SplineSet
1098 1672 m 1,0,1
 1160 1568 1160 1568 1260 1478 c 1,2,-1
 1216 1436 l 1,3,4
 1102 1496 1102 1496 1028 1562 c 1,5,6
 910 1486 910 1486 780 1436 c 1,7,-1
 762 1478 l 1,8,9
 882 1556 882 1556 1010 1672 c 1,10,-1
 1098 1672 l 1,0,1
628 580 m 2,11,-1
 970 580 l 1,12,-1
 886 1126 l 1,13,-1
 882 1126 l 1,14,-1
 586 606 l 2,15,16
 582 598 582 598 582 594 c 0,17,18
 580 580 580 580 628 580 c 2,11,-1
330 162 m 2,19,20
 316 138 316 138 316 114 c 0,21,22
 316 64 316 64 390 60 c 2,23,-1
 444 56 l 2,24,25
 458 56 458 56 456 38 c 2,26,-1
 452 0 l 1,27,-1
 446 -4 l 1,28,29
 302 0 302 0 190 0 c 0,30,31
 156 0 156 0 8 -4 c 1,32,-1
 6 0 l 1,33,-1
 12 38 l 2,34,35
 14 54 14 54 30 56 c 0,36,37
 102 60 102 60 149 90 c 128,-1,38
 196 120 196 120 250 208 c 2,39,-1
 894 1274 l 2,40,41
 910 1302 910 1302 923 1318 c 128,-1,42
 936 1334 936 1334 948 1341 c 128,-1,43
 960 1348 960 1348 974 1348 c 0,44,45
 994 1348 994 1348 1002 1333 c 128,-1,46
 1010 1318 1010 1318 1016 1286 c 2,47,-1
 1204 176 l 2,48,49
 1212 116 1212 116 1240 90 c 128,-1,50
 1268 64 1268 64 1328 58 c 2,51,-1
 1348 56 l 2,52,53
 1366 56 1366 56 1364 38 c 2,54,-1
 1360 0 l 1,55,-1
 1356 -4 l 1,56,57
 1212 0 1212 0 1124 0 c 0,58,59
 1012 0 1012 0 864 -4 c 1,60,-1
 862 0 l 1,61,-1
 866 38 l 2,62,63
 868 54 868 54 882 56 c 2,64,-1
 940 60 l 2,65,66
 1040 68 1040 68 1040 130 c 0,67,68
 1040 138 1040 138 1038 148 c 2,69,-1
 988 494 l 1,70,-1
 578 494 l 2,71,72
 544 494 544 494 528 487 c 128,-1,73
 512 480 512 480 502 458 c 2,74,-1
 330 162 l 2,19,20
EndSplineSet
Substitution2: "'c2sc' Capitals to Small Capitals lookup 12 subtable" acircumflex.sc
AlternateSubs2: "'aalt' Access All Alternates lookup 2 subtable" acircumflex.sc
Position2: "'cpsp' Capital Spacing lookup 0 subtable" dx=4 dy=0 dh=10 dv=0
EndChar

StartChar: Atilde
Encoding: 195 195 93
Width: 1366
GlyphClass: 2
Flags: W
LayerCount: 2
Fore
SplineSet
1118 1528 m 0,0,1
 1152 1528 1152 1528 1180 1550 c 128,-1,2
 1208 1572 1208 1572 1242 1634 c 1,3,-1
 1288 1622 l 1,4,5
 1214 1438 1214 1438 1074 1438 c 0,6,7
 1022 1438 1022 1438 952 1490 c 1,8,9
 888 1536 888 1536 852 1536 c 0,10,11
 812 1536 812 1536 785 1512 c 128,-1,12
 758 1488 758 1488 732 1438 c 1,13,-1
 684 1448 l 1,14,15
 724 1540 724 1540 772 1585 c 128,-1,16
 820 1630 820 1630 884 1630 c 256,17,18
 950 1630 950 1630 1020 1572 c 1,19,20
 1070 1528 1070 1528 1118 1528 c 0,0,1
628 580 m 2,21,-1
 970 580 l 1,22,-1
 886 1126 l 1,23,-1
 882 1126 l 1,24,-1
 586 606 l 2,25,26
 582 598 582 598 582 594 c 0,27,28
 580 580 580 580 628 580 c 2,21,-1
330 162 m 2,29,30
 316 138 316 138 316 114 c 0,31,32
 316 64 316 64 390 60 c 2,33,-1
 444 56 l 2,34,35
 458 56 458 56 456 38 c 2,36,-1
 452 0 l 1,37,-1
 446 -4 l 1,38,39
 302 0 302 0 190 0 c 0,40,41
 156 0 156 0 8 -4 c 1,42,-1
 6 0 l 1,43,-1
 12 38 l 2,44,45
 14 54 14 54 30 56 c 0,46,47
 102 60 102 60 149 90 c 128,-1,48
 196 120 196 120 250 208 c 2,49,-1
 894 1274 l 2,50,51
 910 1302 910 1302 923 1318 c 128,-1,52
 936 1334 936 1334 948 1341 c 128,-1,53
 960 1348 960 1348 974 1348 c 0,54,55
 994 1348 994 1348 1002 1333 c 128,-1,56
 1010 1318 1010 1318 1016 1286 c 2,57,-1
 1204 176 l 2,58,59
 1212 116 1212 116 1240 90 c 128,-1,60
 1268 64 1268 64 1328 58 c 2,61,-1
 1348 56 l 2,62,63
 1366 56 1366 56 1364 38 c 2,64,-1
 1360 0 l 1,65,-1
 1356 -4 l 1,66,67
 1212 0 1212 0 1124 0 c 0,68,69
 1012 0 1012 0 864 -4 c 1,70,-1
 862 0 l 1,71,-1
 866 38 l 2,72,73
 868 54 868 54 882 56 c 2,74,-1
 940 60 l 2,75,76
 1040 68 1040 68 1040 130 c 0,77,78
 1040 138 1040 138 1038 148 c 2,79,-1
 988 494 l 1,80,-1
 578 494 l 2,81,82
 544 494 544 494 528 487 c 128,-1,83
 512 480 512 480 502 458 c 2,84,-1
 330 162 l 2,29,30
EndSplineSet
Substitution2: "'c2sc' Capitals to Small Capitals lookup 12 subtable" atilde.sc
AlternateSubs2: "'aalt' Access All Alternates lookup 2 subtable" atilde.sc
Position2: "'cpsp' Capital Spacing lookup 0 subtable" dx=4 dy=0 dh=10 dv=0
EndChar

StartChar: AE
Encoding: 198 198 94
Width: 1696
GlyphClass: 2
Flags: W
AnchorPoint: "Anchor-6" 1124 -220 basechar 0
AnchorPoint: "Anchor-5" 1124 8 basechar 0
AnchorPoint: "Anchor-2" 1132 1648 basechar 0
LayerCount: 2
Fore
SplineSet
654 624 m 1,0,-1
 964 624 l 1,1,-1
 1074 1178 l 1,2,3
 1080 1222 1080 1222 1072 1224 c 1,4,-1
 654 624 l 1,0,-1
926 0 m 1,5,-1
 672 -4 l 1,6,-1
 668 0 l 1,7,-1
 676 36 l 2,8,9
 680 54 680 54 694 56 c 2,10,-1
 748 60 l 2,11,12
 858 68 858 68 872 152 c 1,13,-1
 950 544 l 1,14,-1
 600 544 l 1,15,-1
 318 140 l 2,16,17
 292 102 292 102 286 87 c 128,-1,18
 280 72 280 72 291 67 c 128,-1,19
 302 62 302 62 340 60 c 2,20,-1
 396 56 l 2,21,22
 406 56 406 56 406 44 c 1,23,-1
 398 0 l 1,24,-1
 396 -4 l 1,25,26
 262 0 262 0 184 0 c 2,27,-1
 6 -4 l 1,28,-1
 4 0 l 1,29,-1
 12 38 l 2,30,31
 14 50 14 50 34 56 c 1,32,-1
 80 60 l 2,33,34
 136 64 136 64 161 83 c 128,-1,35
 186 102 186 102 236 174 c 2,36,-1
 940 1182 l 1,37,38
 960 1218 960 1218 946 1239 c 128,-1,39
 932 1260 932 1260 900 1262 c 2,40,-1
 840 1266 l 2,41,42
 824 1266 824 1266 828 1280 c 2,43,-1
 836 1320 l 1,44,-1
 840 1324 l 1,45,-1
 1184 1320 l 1,46,-1
 1336 1320 l 1,47,-1
 1772 1320 l 1,48,49
 1758 1162 1758 1162 1754 1006 c 1,50,-1
 1694 996 l 1,51,52
 1688 1052 1688 1052 1684 1078 c 128,-1,53
 1680 1104 1680 1104 1667 1141 c 128,-1,54
 1654 1178 1654 1178 1637 1195 c 128,-1,55
 1620 1212 1620 1212 1589 1226 c 128,-1,56
 1558 1240 1558 1240 1516 1240 c 2,57,-1
 1318 1240 l 2,58,59
 1286 1240 1286 1240 1261 1213 c 128,-1,60
 1236 1186 1236 1186 1230 1148 c 2,61,-1
 1150 744 l 1,62,-1
 1352 744 l 2,63,64
 1402 744 1402 744 1425 764 c 128,-1,65
 1448 784 1448 784 1468 834 c 2,66,-1
 1492 894 l 2,67,68
 1500 910 1500 910 1512 912 c 2,69,-1
 1554 912 l 2,70,71
 1560 912 1560 912 1560 904 c 1,72,73
 1520 774 1520 774 1506 708 c 0,74,75
 1500 678 1500 678 1495 638 c 128,-1,76
 1490 598 1490 598 1487 559 c 128,-1,77
 1484 520 1484 520 1482 512 c 1,78,-1
 1478 506 l 1,79,-1
 1434 506 l 2,80,81
 1420 506 1420 506 1420 520 c 2,82,-1
 1422 584 l 1,83,84
 1420 632 1420 632 1402 653 c 128,-1,85
 1384 674 1384 674 1338 674 c 2,86,-1
 1136 674 l 1,87,-1
 1036 152 l 2,88,89
 1024 80 1024 80 1094 80 c 2,90,-1
 1350 80 l 2,91,92
 1452 80 1452 80 1522 152 c 128,-1,93
 1592 224 1592 224 1650 352 c 1,94,-1
 1708 342 l 1,95,96
 1626 140 1626 140 1592 0 c 1,97,-1
 926 0 l 1,5,-1
EndSplineSet
Substitution2: "'c2sc' Capitals to Small Capitals lookup 12 subtable" ae.sc
AlternateSubs2: "'aalt' Access All Alternates lookup 2 subtable" ae.sc
Position2: "'cpsp' Capital Spacing lookup 0 subtable" dx=4 dy=0 dh=10 dv=0
EndChar

StartChar: Egrave
Encoding: 200 200 95
Width: 1076
GlyphClass: 2
Flags: W
LayerCount: 2
Fore
SplineSet
976 1468 m 0,0,1
 976 1430 976 1430 938 1430 c 0,2,3
 912 1430 912 1430 856 1454 c 2,4,-1
 568 1584 l 1,5,-1
 746 1676 l 1,6,-1
 954 1504 l 2,7,8
 976 1484 976 1484 976 1468 c 0,0,1
1132 1324 m 0,9,10
 1132 1194 1132 1194 1116 1026 c 1,11,-1
 1058 1016 l 1,12,13
 1044 1136 1044 1136 1010 1188 c 128,-1,14
 976 1240 976 1240 874 1240 c 2,15,-1
 670 1240 l 2,16,17
 598 1240 598 1240 584 1170 c 2,18,-1
 502 740 l 1,19,-1
 752 740 l 2,20,21
 802 740 802 740 827 760 c 128,-1,22
 852 780 852 780 866 826 c 2,23,-1
 880 876 l 2,24,25
 884 892 884 892 900 892 c 2,26,-1
 942 892 l 1,27,-1
 948 884 l 1,28,29
 916 762 916 762 906 700 c 1,30,31
 888 612 888 612 878 522 c 1,32,-1
 868 516 l 1,33,-1
 826 516 l 2,34,35
 810 516 810 516 816 532 c 1,36,-1
 820 584 l 2,37,38
 822 594 822 594 822 600 c 0,39,40
 822 624 822 624 812 638 c 128,-1,41
 802 652 802 652 784 657 c 128,-1,42
 766 662 766 662 736 662 c 2,43,-1
 486 662 l 1,44,-1
 386 148 l 2,45,46
 384 136 384 136 382 126 c 0,47,48
 382 78 382 78 444 80 c 2,49,-1
 710 80 l 2,50,51
 904 80 904 80 1028 348 c 1,52,-1
 1088 338 l 1,53,54
 1064 278 1064 278 948 -4 c 1,55,56
 792 0 792 0 698 0 c 2,57,-1
 276 0 l 2,58,59
 210 0 210 0 26 -4 c 1,60,-1
 22 0 l 1,61,-1
 30 40 l 2,62,63
 34 54 34 54 50 56 c 2,64,-1
 108 60 l 2,65,66
 166 64 166 64 192 84 c 128,-1,67
 218 104 218 104 228 148 c 2,68,-1
 426 1170 l 2,69,70
 430 1186 430 1186 430 1198 c 0,71,72
 430 1228 430 1228 410 1243 c 128,-1,73
 390 1258 390 1258 342 1262 c 2,74,-1
 284 1266 l 2,75,76
 268 1266 268 1266 272 1280 c 2,77,-1
 280 1320 l 1,78,-1
 284 1326 l 1,79,80
 468 1322 468 1322 532 1320 c 2,81,-1
 1030 1320 l 2,82,83
 1078 1320 1078 1320 1124 1330 c 0,84,85
 1132 1330 1132 1330 1132 1324 c 0,9,10
EndSplineSet
Substitution2: "'c2sc' Capitals to Small Capitals lookup 12 subtable" egrave.sc
AlternateSubs2: "'aalt' Access All Alternates lookup 2 subtable" egrave.sc
Position2: "'cpsp' Capital Spacing lookup 0 subtable" dx=4 dy=0 dh=10 dv=0
EndChar

StartChar: Eacute
Encoding: 201 201 96
Width: 1076
GlyphClass: 2
Flags: W
AnchorPoint: "Anchor-2" 586 1356 basechar 0
LayerCount: 2
Fore
SplineSet
564 1426 m 0,0,1
 540 1426 540 1426 539 1448 c 128,-1,2
 538 1470 538 1470 582 1500 c 1,3,-1
 870 1672 l 1,4,-1
 1004 1580 l 1,5,-1
 658 1450 l 1,6,7
 584 1426 584 1426 564 1426 c 0,0,1
1132 1324 m 0,8,9
 1132 1194 1132 1194 1116 1026 c 1,10,-1
 1058 1016 l 1,11,12
 1044 1136 1044 1136 1010 1188 c 128,-1,13
 976 1240 976 1240 874 1240 c 2,14,-1
 670 1240 l 2,15,16
 598 1240 598 1240 584 1170 c 2,17,-1
 502 740 l 1,18,-1
 752 740 l 2,19,20
 802 740 802 740 827 760 c 128,-1,21
 852 780 852 780 866 826 c 2,22,-1
 880 876 l 2,23,24
 884 892 884 892 900 892 c 2,25,-1
 942 892 l 1,26,-1
 948 884 l 1,27,28
 916 762 916 762 906 700 c 1,29,30
 888 612 888 612 878 522 c 1,31,-1
 868 516 l 1,32,-1
 826 516 l 2,33,34
 810 516 810 516 816 532 c 1,35,-1
 820 584 l 2,36,37
 822 594 822 594 822 600 c 0,38,39
 822 624 822 624 812 638 c 128,-1,40
 802 652 802 652 784 657 c 128,-1,41
 766 662 766 662 736 662 c 2,42,-1
 486 662 l 1,43,-1
 386 148 l 2,44,45
 384 136 384 136 382 126 c 0,46,47
 382 78 382 78 444 80 c 2,48,-1
 710 80 l 2,49,50
 904 80 904 80 1028 348 c 1,51,-1
 1088 338 l 1,52,53
 1064 278 1064 278 948 -4 c 1,54,55
 792 0 792 0 698 0 c 2,56,-1
 276 0 l 2,57,58
 210 0 210 0 26 -4 c 1,59,-1
 22 0 l 1,60,-1
 30 40 l 2,61,62
 34 54 34 54 50 56 c 2,63,-1
 108 60 l 2,64,65
 166 64 166 64 192 84 c 128,-1,66
 218 104 218 104 228 148 c 2,67,-1
 426 1170 l 2,68,69
 430 1186 430 1186 430 1198 c 0,70,71
 430 1228 430 1228 410 1243 c 128,-1,72
 390 1258 390 1258 342 1262 c 2,73,-1
 284 1266 l 2,74,75
 268 1266 268 1266 272 1280 c 2,76,-1
 280 1320 l 1,77,-1
 284 1326 l 1,78,79
 468 1322 468 1322 532 1320 c 2,80,-1
 1030 1320 l 2,81,82
 1078 1320 1078 1320 1124 1330 c 0,83,84
 1132 1330 1132 1330 1132 1324 c 0,8,9
EndSplineSet
Substitution2: "'c2sc' Capitals to Small Capitals lookup 12 subtable" eacute.sc
AlternateSubs2: "'aalt' Access All Alternates lookup 2 subtable" eacute.sc
Position2: "'cpsp' Capital Spacing lookup 0 subtable" dx=4 dy=0 dh=10 dv=0
EndChar

StartChar: Ecircumflex
Encoding: 202 202 97
Width: 1076
GlyphClass: 2
Flags: W
LayerCount: 2
Fore
SplineSet
910 1660 m 1,0,1
 972 1556 972 1556 1072 1468 c 1,2,-1
 1028 1426 l 1,3,4
 914 1486 914 1486 840 1552 c 1,5,6
 722 1476 722 1476 592 1426 c 1,7,-1
 574 1468 l 1,8,9
 694 1546 694 1546 822 1660 c 1,10,-1
 910 1660 l 1,0,1
1132 1324 m 0,11,12
 1132 1194 1132 1194 1116 1026 c 1,13,-1
 1058 1016 l 1,14,15
 1044 1136 1044 1136 1010 1188 c 128,-1,16
 976 1240 976 1240 874 1240 c 2,17,-1
 670 1240 l 2,18,19
 598 1240 598 1240 584 1170 c 2,20,-1
 502 740 l 1,21,-1
 752 740 l 2,22,23
 802 740 802 740 827 760 c 128,-1,24
 852 780 852 780 866 826 c 2,25,-1
 880 876 l 2,26,27
 884 892 884 892 900 892 c 2,28,-1
 942 892 l 1,29,-1
 948 884 l 1,30,31
 916 762 916 762 906 700 c 1,32,33
 888 612 888 612 878 522 c 1,34,-1
 868 516 l 1,35,-1
 826 516 l 2,36,37
 810 516 810 516 816 532 c 1,38,-1
 820 584 l 2,39,40
 822 594 822 594 822 600 c 0,41,42
 822 624 822 624 812 638 c 128,-1,43
 802 652 802 652 784 657 c 128,-1,44
 766 662 766 662 736 662 c 2,45,-1
 486 662 l 1,46,-1
 386 148 l 2,47,48
 384 136 384 136 382 126 c 0,49,50
 382 78 382 78 444 80 c 2,51,-1
 710 80 l 2,52,53
 904 80 904 80 1028 348 c 1,54,-1
 1088 338 l 1,55,56
 1064 278 1064 278 948 -4 c 1,57,58
 792 0 792 0 698 0 c 2,59,-1
 276 0 l 2,60,61
 210 0 210 0 26 -4 c 1,62,-1
 22 0 l 1,63,-1
 30 40 l 2,64,65
 34 54 34 54 50 56 c 2,66,-1
 108 60 l 2,67,68
 166 64 166 64 192 84 c 128,-1,69
 218 104 218 104 228 148 c 2,70,-1
 426 1170 l 2,71,72
 430 1186 430 1186 430 1198 c 0,73,74
 430 1228 430 1228 410 1243 c 128,-1,75
 390 1258 390 1258 342 1262 c 2,76,-1
 284 1266 l 2,77,78
 268 1266 268 1266 272 1280 c 2,79,-1
 280 1320 l 1,80,-1
 284 1326 l 1,81,82
 468 1322 468 1322 532 1320 c 2,83,-1
 1030 1320 l 2,84,85
 1078 1320 1078 1320 1124 1330 c 0,86,87
 1132 1330 1132 1330 1132 1324 c 0,11,12
EndSplineSet
Substitution2: "'c2sc' Capitals to Small Capitals lookup 12 subtable" ecircumflex.sc
AlternateSubs2: "'aalt' Access All Alternates lookup 2 subtable" ecircumflex.sc
Position2: "'cpsp' Capital Spacing lookup 0 subtable" dx=4 dy=0 dh=10 dv=0
EndChar

StartChar: Edieresis
Encoding: 203 203 98
Width: 1076
GlyphClass: 2
Flags: W
LayerCount: 2
Fore
SplineSet
562 1520 m 0,0,1
 570 1558 570 1558 602 1585 c 128,-1,2
 634 1612 634 1612 674 1612 c 0,3,4
 706 1612 706 1612 728 1591 c 128,-1,5
 750 1570 750 1570 750 1538 c 0,6,7
 750 1536 750 1536 749 1530 c 128,-1,8
 748 1524 748 1524 748 1520 c 0,9,10
 740 1482 740 1482 708 1455 c 128,-1,11
 676 1428 676 1428 636 1428 c 0,12,13
 604 1428 604 1428 582 1449 c 128,-1,14
 560 1470 560 1470 560 1504 c 0,15,16
 560 1506 560 1506 561 1511 c 128,-1,17
 562 1516 562 1516 562 1520 c 0,0,1
950 1522 m 0,18,19
 958 1558 958 1558 990 1586 c 128,-1,20
 1022 1614 1022 1614 1060 1614 c 0,21,22
 1092 1614 1092 1614 1114 1592 c 128,-1,23
 1136 1570 1136 1570 1136 1540 c 0,24,25
 1136 1526 1136 1526 1134 1522 c 0,26,27
 1128 1484 1128 1484 1096 1456 c 128,-1,28
 1064 1428 1064 1428 1026 1428 c 0,29,30
 992 1428 992 1428 970 1449 c 128,-1,31
 948 1470 948 1470 948 1506 c 0,32,33
 948 1516 948 1516 950 1522 c 0,18,19
1132 1324 m 0,34,35
 1132 1194 1132 1194 1116 1026 c 1,36,-1
 1058 1016 l 1,37,38
 1044 1136 1044 1136 1010 1188 c 128,-1,39
 976 1240 976 1240 874 1240 c 2,40,-1
 670 1240 l 2,41,42
 598 1240 598 1240 584 1170 c 2,43,-1
 502 740 l 1,44,-1
 752 740 l 2,45,46
 802 740 802 740 827 760 c 128,-1,47
 852 780 852 780 866 826 c 2,48,-1
 880 876 l 2,49,50
 884 892 884 892 900 892 c 2,51,-1
 942 892 l 1,52,-1
 948 884 l 1,53,54
 916 762 916 762 906 700 c 1,55,56
 888 612 888 612 878 522 c 1,57,-1
 868 516 l 1,58,-1
 826 516 l 2,59,60
 810 516 810 516 816 532 c 1,61,-1
 820 584 l 2,62,63
 822 594 822 594 822 600 c 0,64,65
 822 624 822 624 812 638 c 128,-1,66
 802 652 802 652 784 657 c 128,-1,67
 766 662 766 662 736 662 c 2,68,-1
 486 662 l 1,69,-1
 386 148 l 2,70,71
 384 136 384 136 382 126 c 0,72,73
 382 78 382 78 444 80 c 2,74,-1
 710 80 l 2,75,76
 904 80 904 80 1028 348 c 1,77,-1
 1088 338 l 1,78,79
 1064 278 1064 278 948 -4 c 1,80,81
 792 0 792 0 698 0 c 2,82,-1
 276 0 l 2,83,84
 210 0 210 0 26 -4 c 1,85,-1
 22 0 l 1,86,-1
 30 40 l 2,87,88
 34 54 34 54 50 56 c 2,89,-1
 108 60 l 2,90,91
 166 64 166 64 192 84 c 128,-1,92
 218 104 218 104 228 148 c 2,93,-1
 426 1170 l 2,94,95
 430 1186 430 1186 430 1198 c 0,96,97
 430 1228 430 1228 410 1243 c 128,-1,98
 390 1258 390 1258 342 1262 c 2,99,-1
 284 1266 l 2,100,101
 268 1266 268 1266 272 1280 c 2,102,-1
 280 1320 l 1,103,-1
 284 1326 l 1,104,105
 468 1322 468 1322 532 1320 c 2,106,-1
 1030 1320 l 2,107,108
 1078 1320 1078 1320 1124 1330 c 0,109,110
 1132 1330 1132 1330 1132 1324 c 0,34,35
EndSplineSet
Substitution2: "'c2sc' Capitals to Small Capitals lookup 12 subtable" edieresis.sc
AlternateSubs2: "'aalt' Access All Alternates lookup 2 subtable" edieresis.sc
Position2: "'cpsp' Capital Spacing lookup 0 subtable" dx=4 dy=0 dh=10 dv=0
EndChar

StartChar: Igrave
Encoding: 204 204 99
Width: 572
GlyphClass: 2
Flags: W
LayerCount: 2
Fore
SplineSet
678 1464 m 0,0,1
 678 1426 678 1426 638 1426 c 0,2,3
 612 1426 612 1426 558 1450 c 2,4,-1
 268 1580 l 1,5,-1
 446 1672 l 1,6,-1
 656 1500 l 2,7,8
 678 1480 678 1480 678 1464 c 0,0,1
436 1166 m 2,9,10
 440 1188 440 1188 438 1204 c 128,-1,11
 436 1220 436 1220 426 1232 c 128,-1,12
 416 1244 416 1244 396 1251 c 128,-1,13
 376 1258 376 1258 346 1260 c 2,14,-1
 276 1266 l 1,15,16
 272 1274 272 1274 275 1296 c 128,-1,17
 278 1318 278 1318 282 1326 c 1,18,19
 462 1322 462 1322 542 1320 c 0,20,21
 604 1320 604 1320 788 1326 c 1,22,23
 794 1312 794 1312 792 1292 c 128,-1,24
 790 1272 790 1272 784 1266 c 1,25,-1
 720 1260 l 2,26,27
 680 1256 680 1256 653 1244 c 128,-1,28
 626 1232 626 1232 613 1214 c 128,-1,29
 600 1196 600 1196 594 1166 c 2,30,-1
 396 156 l 2,31,32
 386 108 386 108 406 88 c 128,-1,33
 426 68 426 68 486 62 c 2,34,-1
 556 56 l 1,35,36
 558 50 558 50 558 37 c 128,-1,37
 558 24 558 24 554 12 c 128,-1,38
 550 0 550 0 548 -4 c 1,39,40
 368 0 368 0 288 0 c 0,41,42
 226 0 226 0 44 -4 c 1,43,44
 38 10 38 10 39 30 c 128,-1,45
 40 50 40 50 48 56 c 1,46,-1
 110 62 l 2,47,48
 172 68 172 68 201 89 c 128,-1,49
 230 110 230 110 238 156 c 2,50,-1
 436 1166 l 2,9,10
EndSplineSet
Substitution2: "'c2sc' Capitals to Small Capitals lookup 12 subtable" igrave.sc
AlternateSubs2: "'aalt' Access All Alternates lookup 2 subtable" igrave.sc
Position2: "'cpsp' Capital Spacing lookup 0 subtable" dx=4 dy=0 dh=10 dv=0
EndChar

StartChar: Iacute
Encoding: 205 205 100
Width: 572
GlyphClass: 2
Flags: W
LayerCount: 2
Fore
SplineSet
428 1426 m 0,0,1
 404 1426 404 1426 404 1448 c 128,-1,2
 404 1470 404 1470 446 1500 c 1,3,-1
 736 1672 l 1,4,-1
 868 1580 l 1,5,-1
 522 1450 l 1,6,7
 448 1426 448 1426 428 1426 c 0,0,1
436 1166 m 2,8,9
 440 1188 440 1188 438 1204 c 128,-1,10
 436 1220 436 1220 426 1232 c 128,-1,11
 416 1244 416 1244 396 1251 c 128,-1,12
 376 1258 376 1258 346 1260 c 2,13,-1
 276 1266 l 1,14,15
 272 1274 272 1274 275 1296 c 128,-1,16
 278 1318 278 1318 282 1326 c 1,17,18
 462 1322 462 1322 542 1320 c 0,19,20
 604 1320 604 1320 788 1326 c 1,21,22
 794 1312 794 1312 792 1292 c 128,-1,23
 790 1272 790 1272 784 1266 c 1,24,-1
 720 1260 l 2,25,26
 680 1256 680 1256 653 1244 c 128,-1,27
 626 1232 626 1232 613 1214 c 128,-1,28
 600 1196 600 1196 594 1166 c 2,29,-1
 396 156 l 2,30,31
 386 108 386 108 406 88 c 128,-1,32
 426 68 426 68 486 62 c 2,33,-1
 556 56 l 1,34,35
 558 50 558 50 558 37 c 128,-1,36
 558 24 558 24 554 12 c 128,-1,37
 550 0 550 0 548 -4 c 1,38,39
 368 0 368 0 288 0 c 0,40,41
 226 0 226 0 44 -4 c 1,42,43
 38 10 38 10 39 30 c 128,-1,44
 40 50 40 50 48 56 c 1,45,-1
 110 62 l 2,46,47
 172 68 172 68 201 89 c 128,-1,48
 230 110 230 110 238 156 c 2,49,-1
 436 1166 l 2,8,9
EndSplineSet
Substitution2: "'c2sc' Capitals to Small Capitals lookup 12 subtable" iacute.sc
AlternateSubs2: "'aalt' Access All Alternates lookup 2 subtable" iacute.sc
Position2: "'cpsp' Capital Spacing lookup 0 subtable" dx=4 dy=0 dh=10 dv=0
EndChar

StartChar: Icircumflex
Encoding: 206 206 101
Width: 572
GlyphClass: 2
Flags: W
LayerCount: 2
Fore
SplineSet
654 1660 m 1,0,1
 716 1556 716 1556 816 1468 c 1,2,-1
 772 1426 l 1,3,4
 658 1486 658 1486 584 1552 c 1,5,6
 466 1476 466 1476 336 1426 c 1,7,-1
 318 1468 l 1,8,9
 438 1546 438 1546 566 1660 c 1,10,-1
 654 1660 l 1,0,1
436 1166 m 2,11,12
 440 1188 440 1188 438 1204 c 128,-1,13
 436 1220 436 1220 426 1232 c 128,-1,14
 416 1244 416 1244 396 1251 c 128,-1,15
 376 1258 376 1258 346 1260 c 2,16,-1
 276 1266 l 1,17,18
 272 1274 272 1274 275 1296 c 128,-1,19
 278 1318 278 1318 282 1326 c 1,20,21
 462 1322 462 1322 542 1320 c 0,22,23
 604 1320 604 1320 788 1326 c 1,24,25
 794 1312 794 1312 792 1292 c 128,-1,26
 790 1272 790 1272 784 1266 c 1,27,-1
 720 1260 l 2,28,29
 680 1256 680 1256 653 1244 c 128,-1,30
 626 1232 626 1232 613 1214 c 128,-1,31
 600 1196 600 1196 594 1166 c 2,32,-1
 396 156 l 2,33,34
 386 108 386 108 406 88 c 128,-1,35
 426 68 426 68 486 62 c 2,36,-1
 556 56 l 1,37,38
 558 50 558 50 558 37 c 128,-1,39
 558 24 558 24 554 12 c 128,-1,40
 550 0 550 0 548 -4 c 1,41,42
 368 0 368 0 288 0 c 0,43,44
 226 0 226 0 44 -4 c 1,45,46
 38 10 38 10 39 30 c 128,-1,47
 40 50 40 50 48 56 c 1,48,-1
 110 62 l 2,49,50
 172 68 172 68 201 89 c 128,-1,51
 230 110 230 110 238 156 c 2,52,-1
 436 1166 l 2,11,12
EndSplineSet
Substitution2: "'c2sc' Capitals to Small Capitals lookup 12 subtable" icircumflex.sc
AlternateSubs2: "'aalt' Access All Alternates lookup 2 subtable" icircumflex.sc
Position2: "'cpsp' Capital Spacing lookup 0 subtable" dx=4 dy=0 dh=10 dv=0
EndChar

StartChar: Idieresis
Encoding: 207 207 102
Width: 572
GlyphClass: 2
Flags: W
LayerCount: 2
Fore
SplineSet
302 1520 m 0,0,1
 310 1558 310 1558 342 1585 c 128,-1,2
 374 1612 374 1612 414 1612 c 0,3,4
 446 1612 446 1612 468 1591 c 128,-1,5
 490 1570 490 1570 490 1538 c 0,6,7
 490 1536 490 1536 489 1530 c 128,-1,8
 488 1524 488 1524 488 1520 c 0,9,10
 480 1482 480 1482 448 1455 c 128,-1,11
 416 1428 416 1428 376 1428 c 0,12,13
 344 1428 344 1428 322 1449 c 128,-1,14
 300 1470 300 1470 300 1504 c 0,15,16
 300 1506 300 1506 301 1511 c 128,-1,17
 302 1516 302 1516 302 1520 c 0,0,1
690 1522 m 0,18,19
 698 1558 698 1558 730 1586 c 128,-1,20
 762 1614 762 1614 800 1614 c 0,21,22
 832 1614 832 1614 854 1592 c 128,-1,23
 876 1570 876 1570 876 1540 c 0,24,25
 876 1526 876 1526 874 1522 c 0,26,27
 868 1484 868 1484 836 1456 c 128,-1,28
 804 1428 804 1428 766 1428 c 0,29,30
 734 1428 734 1428 711 1449 c 128,-1,31
 688 1470 688 1470 688 1506 c 0,32,33
 688 1516 688 1516 690 1522 c 0,18,19
436 1166 m 2,34,35
 440 1188 440 1188 438 1204 c 128,-1,36
 436 1220 436 1220 426 1232 c 128,-1,37
 416 1244 416 1244 396 1251 c 128,-1,38
 376 1258 376 1258 346 1260 c 2,39,-1
 276 1266 l 1,40,41
 272 1274 272 1274 275 1296 c 128,-1,42
 278 1318 278 1318 282 1326 c 1,43,44
 462 1322 462 1322 542 1320 c 0,45,46
 604 1320 604 1320 788 1326 c 1,47,48
 794 1312 794 1312 792 1292 c 128,-1,49
 790 1272 790 1272 784 1266 c 1,50,-1
 720 1260 l 2,51,52
 680 1256 680 1256 653 1244 c 128,-1,53
 626 1232 626 1232 613 1214 c 128,-1,54
 600 1196 600 1196 594 1166 c 2,55,-1
 396 156 l 2,56,57
 386 108 386 108 406 88 c 128,-1,58
 426 68 426 68 486 62 c 2,59,-1
 556 56 l 1,60,61
 558 50 558 50 558 37 c 128,-1,62
 558 24 558 24 554 12 c 128,-1,63
 550 0 550 0 548 -4 c 1,64,65
 368 0 368 0 288 0 c 0,66,67
 226 0 226 0 44 -4 c 1,68,69
 38 10 38 10 39 30 c 128,-1,70
 40 50 40 50 48 56 c 1,71,-1
 110 62 l 2,72,73
 172 68 172 68 201 89 c 128,-1,74
 230 110 230 110 238 156 c 2,75,-1
 436 1166 l 2,34,35
EndSplineSet
Substitution2: "'c2sc' Capitals to Small Capitals lookup 12 subtable" idieresis.sc
AlternateSubs2: "'aalt' Access All Alternates lookup 2 subtable" idieresis.sc
Position2: "'cpsp' Capital Spacing lookup 0 subtable" dx=4 dy=0 dh=10 dv=0
EndChar

StartChar: Ograve
Encoding: 210 210 103
Width: 1368
GlyphClass: 2
Flags: W
AnchorPoint: "Anchor-0" 1270 1242 basechar 0
LayerCount: 2
Fore
SplineSet
1032 1464 m 0,0,1
 1032 1426 1032 1426 994 1426 c 0,2,3
 968 1426 968 1426 912 1450 c 2,4,-1
 622 1580 l 1,5,-1
 800 1672 l 1,6,-1
 1010 1500 l 2,7,8
 1032 1480 1032 1480 1032 1464 c 0,0,1
892 1278 m 0,9,10
 822 1278 822 1278 748 1242 c 128,-1,11
 674 1206 674 1206 602 1137 c 128,-1,12
 530 1068 530 1068 471 946 c 128,-1,13
 412 824 412 824 382 670 c 0,14,15
 364 580 364 580 364 500 c 0,16,17
 364 292 364 292 470 171 c 128,-1,18
 576 50 576 50 732 50 c 0,19,20
 906 50 906 50 1048 208 c 128,-1,21
 1190 366 1190 366 1244 634 c 0,22,23
 1264 744 1264 744 1264 840 c 0,24,25
 1264 1052 1264 1052 1163 1165 c 128,-1,26
 1062 1278 1062 1278 892 1278 c 0,9,10
1432 674 m 0,27,28
 1372 364 1372 364 1165 172 c 128,-1,29
 958 -20 958 -20 678 -20 c 0,30,31
 454 -20 454 -20 316 115 c 128,-1,32
 178 250 178 250 178 480 c 0,33,34
 178 554 178 554 194 634 c 0,35,36
 254 938 254 938 463 1143 c 128,-1,37
 672 1348 672 1348 932 1348 c 0,38,39
 1160 1348 1160 1348 1303 1205 c 128,-1,40
 1446 1062 1446 1062 1446 826 c 0,41,42
 1446 752 1446 752 1432 674 c 0,27,28
EndSplineSet
Substitution2: "'c2sc' Capitals to Small Capitals lookup 12 subtable" ograve.sc
AlternateSubs2: "'aalt' Access All Alternates lookup 2 subtable" ograve.sc
Position2: "'cpsp' Capital Spacing lookup 0 subtable" dx=4 dy=0 dh=10 dv=0
EndChar

StartChar: Oacute
Encoding: 211 211 104
Width: 1368
GlyphClass: 2
Flags: W
AnchorPoint: "Anchor-0" 1270 1242 basechar 0
LayerCount: 2
Fore
SplineSet
780 1426 m 0,0,1
 756 1426 756 1426 756 1448 c 128,-1,2
 756 1470 756 1470 798 1500 c 1,3,-1
 1088 1672 l 1,4,-1
 1220 1580 l 1,5,-1
 874 1450 l 1,6,7
 800 1426 800 1426 780 1426 c 0,0,1
892 1278 m 0,8,9
 822 1278 822 1278 748 1242 c 128,-1,10
 674 1206 674 1206 602 1137 c 128,-1,11
 530 1068 530 1068 471 946 c 128,-1,12
 412 824 412 824 382 670 c 0,13,14
 364 580 364 580 364 500 c 0,15,16
 364 292 364 292 470 171 c 128,-1,17
 576 50 576 50 732 50 c 0,18,19
 906 50 906 50 1048 208 c 128,-1,20
 1190 366 1190 366 1244 634 c 0,21,22
 1264 744 1264 744 1264 840 c 0,23,24
 1264 1052 1264 1052 1163 1165 c 128,-1,25
 1062 1278 1062 1278 892 1278 c 0,8,9
1432 674 m 0,26,27
 1372 364 1372 364 1165 172 c 128,-1,28
 958 -20 958 -20 678 -20 c 0,29,30
 454 -20 454 -20 316 115 c 128,-1,31
 178 250 178 250 178 480 c 0,32,33
 178 554 178 554 194 634 c 0,34,35
 254 938 254 938 463 1143 c 128,-1,36
 672 1348 672 1348 932 1348 c 0,37,38
 1160 1348 1160 1348 1303 1205 c 128,-1,39
 1446 1062 1446 1062 1446 826 c 0,40,41
 1446 752 1446 752 1432 674 c 0,26,27
EndSplineSet
Substitution2: "'c2sc' Capitals to Small Capitals lookup 12 subtable" oacute.sc
AlternateSubs2: "'aalt' Access All Alternates lookup 2 subtable" oacute.sc
Position2: "'cpsp' Capital Spacing lookup 0 subtable" dx=4 dy=0 dh=10 dv=0
EndChar

StartChar: Ocircumflex
Encoding: 212 212 105
Width: 1368
GlyphClass: 2
Flags: W
AnchorPoint: "Anchor-0" 1270 1242 basechar 0
LayerCount: 2
Fore
SplineSet
1026 1660 m 1,0,1
 1088 1556 1088 1556 1188 1468 c 1,2,-1
 1144 1426 l 1,3,4
 1030 1486 1030 1486 956 1552 c 1,5,6
 838 1476 838 1476 708 1426 c 1,7,-1
 690 1468 l 1,8,9
 810 1546 810 1546 938 1660 c 1,10,-1
 1026 1660 l 1,0,1
892 1278 m 0,11,12
 822 1278 822 1278 748 1242 c 128,-1,13
 674 1206 674 1206 602 1137 c 128,-1,14
 530 1068 530 1068 471 946 c 128,-1,15
 412 824 412 824 382 670 c 0,16,17
 364 580 364 580 364 500 c 0,18,19
 364 292 364 292 470 171 c 128,-1,20
 576 50 576 50 732 50 c 0,21,22
 906 50 906 50 1048 208 c 128,-1,23
 1190 366 1190 366 1244 634 c 0,24,25
 1264 744 1264 744 1264 840 c 0,26,27
 1264 1052 1264 1052 1163 1165 c 128,-1,28
 1062 1278 1062 1278 892 1278 c 0,11,12
1432 674 m 0,29,30
 1372 364 1372 364 1165 172 c 128,-1,31
 958 -20 958 -20 678 -20 c 0,32,33
 454 -20 454 -20 316 115 c 128,-1,34
 178 250 178 250 178 480 c 0,35,36
 178 554 178 554 194 634 c 0,37,38
 254 938 254 938 463 1143 c 128,-1,39
 672 1348 672 1348 932 1348 c 0,40,41
 1160 1348 1160 1348 1303 1205 c 128,-1,42
 1446 1062 1446 1062 1446 826 c 0,43,44
 1446 752 1446 752 1432 674 c 0,29,30
EndSplineSet
Substitution2: "'c2sc' Capitals to Small Capitals lookup 12 subtable" ocircumflex.sc
AlternateSubs2: "'aalt' Access All Alternates lookup 2 subtable" ocircumflex.sc
Position2: "'cpsp' Capital Spacing lookup 0 subtable" dx=4 dy=0 dh=10 dv=0
EndChar

StartChar: Otilde
Encoding: 213 213 106
Width: 1368
GlyphClass: 2
Flags: W
AnchorPoint: "Anchor-0" 1270 1242 basechar 0
LayerCount: 2
Fore
SplineSet
1090 1518 m 0,0,1
 1112 1518 1112 1518 1130 1526 c 128,-1,2
 1148 1534 1148 1534 1169 1558 c 128,-1,3
 1190 1582 1190 1582 1212 1624 c 1,4,-1
 1260 1612 l 1,5,6
 1186 1428 1186 1428 1044 1428 c 0,7,8
 992 1428 992 1428 924 1480 c 1,9,10
 860 1526 860 1526 824 1526 c 0,11,12
 784 1526 784 1526 757 1502 c 128,-1,13
 730 1478 730 1478 702 1428 c 1,14,-1
 656 1438 l 1,15,16
 696 1530 696 1530 743 1575 c 128,-1,17
 790 1620 790 1620 856 1620 c 256,18,19
 922 1620 922 1620 992 1562 c 1,20,21
 1042 1518 1042 1518 1090 1518 c 0,0,1
892 1278 m 0,22,23
 822 1278 822 1278 748 1242 c 128,-1,24
 674 1206 674 1206 602 1137 c 128,-1,25
 530 1068 530 1068 471 946 c 128,-1,26
 412 824 412 824 382 670 c 0,27,28
 364 580 364 580 364 500 c 0,29,30
 364 292 364 292 470 171 c 128,-1,31
 576 50 576 50 732 50 c 0,32,33
 906 50 906 50 1048 208 c 128,-1,34
 1190 366 1190 366 1244 634 c 0,35,36
 1264 744 1264 744 1264 840 c 0,37,38
 1264 1052 1264 1052 1163 1165 c 128,-1,39
 1062 1278 1062 1278 892 1278 c 0,22,23
1432 674 m 0,40,41
 1372 364 1372 364 1165 172 c 128,-1,42
 958 -20 958 -20 678 -20 c 0,43,44
 454 -20 454 -20 316 115 c 128,-1,45
 178 250 178 250 178 480 c 0,46,47
 178 554 178 554 194 634 c 0,48,49
 254 938 254 938 463 1143 c 128,-1,50
 672 1348 672 1348 932 1348 c 0,51,52
 1160 1348 1160 1348 1303 1205 c 128,-1,53
 1446 1062 1446 1062 1446 826 c 0,54,55
 1446 752 1446 752 1432 674 c 0,40,41
EndSplineSet
Substitution2: "'c2sc' Capitals to Small Capitals lookup 12 subtable" otilde.sc
AlternateSubs2: "'aalt' Access All Alternates lookup 2 subtable" otilde.sc
Position2: "'cpsp' Capital Spacing lookup 0 subtable" dx=4 dy=0 dh=10 dv=0
EndChar

StartChar: Odieresis
Encoding: 214 214 107
Width: 1368
GlyphClass: 2
Flags: W
LayerCount: 2
Fore
SplineSet
428 1445 m 128,-1,1
 428 1486 428 1486 458 1515 c 128,-1,2
 488 1544 488 1544 527 1544 c 128,-1,3
 566 1544 566 1544 595 1515 c 128,-1,4
 624 1486 624 1486 624 1445 c 128,-1,5
 624 1404 624 1404 595 1376 c 128,-1,6
 566 1348 566 1348 527 1348 c 128,-1,7
 488 1348 488 1348 458 1376 c 128,-1,0
 428 1404 428 1404 428 1445 c 128,-1,1
1266 1445 m 128,-1,9
 1266 1486 1266 1486 1295 1515 c 128,-1,10
 1324 1544 1324 1544 1364 1544 c 128,-1,11
 1404 1544 1404 1544 1433 1515 c 128,-1,12
 1462 1486 1462 1486 1462 1445 c 128,-1,13
 1462 1404 1462 1404 1433 1376 c 128,-1,14
 1404 1348 1404 1348 1364 1348 c 128,-1,15
 1324 1348 1324 1348 1295 1376 c 128,-1,8
 1266 1404 1266 1404 1266 1445 c 128,-1,9
892 1278 m 0,16,17
 822 1278 822 1278 748 1242 c 128,-1,18
 674 1206 674 1206 602 1137 c 128,-1,19
 530 1068 530 1068 471 946 c 128,-1,20
 412 824 412 824 382 670 c 0,21,22
 364 580 364 580 364 500 c 0,23,24
 364 292 364 292 470 171 c 128,-1,25
 576 50 576 50 732 50 c 0,26,27
 906 50 906 50 1048 208 c 128,-1,28
 1190 366 1190 366 1244 634 c 0,29,30
 1264 744 1264 744 1264 840 c 0,31,32
 1264 1052 1264 1052 1163 1165 c 128,-1,33
 1062 1278 1062 1278 892 1278 c 0,16,17
1432 674 m 0,34,35
 1372 364 1372 364 1165 172 c 128,-1,36
 958 -20 958 -20 678 -20 c 0,37,38
 454 -20 454 -20 316 115 c 128,-1,39
 178 250 178 250 178 480 c 0,40,41
 178 554 178 554 194 634 c 0,42,43
 254 938 254 938 463 1143 c 128,-1,44
 672 1348 672 1348 932 1348 c 0,45,46
 1160 1348 1160 1348 1303 1205 c 128,-1,47
 1446 1062 1446 1062 1446 826 c 0,48,49
 1446 752 1446 752 1432 674 c 0,34,35
EndSplineSet
Substitution2: "'ss01' Style Set 1 lookup 23 subtable" Odieresis.alt
Substitution2: "'c2sc' Capitals to Small Capitals lookup 12 subtable" odieresis.sc
AlternateSubs2: "'aalt' Access All Alternates lookup 2 subtable" odieresis.sc
Position2: "'cpsp' Capital Spacing lookup 0 subtable" dx=4 dy=0 dh=10 dv=0
EndChar

StartChar: Ugrave
Encoding: 217 217 108
Width: 1298
GlyphClass: 2
Flags: W
LayerCount: 2
Fore
SplineSet
1202 1464 m 0,0,1
 1202 1426 1202 1426 1164 1426 c 0,2,3
 1138 1426 1138 1426 1082 1450 c 2,4,-1
 792 1580 l 1,5,-1
 970 1672 l 1,6,-1
 1180 1500 l 2,7,8
 1202 1480 1202 1480 1202 1464 c 0,0,1
626 -20 m 0,9,10
 586 -20 586 -20 546 -14 c 128,-1,11
 506 -8 506 -8 462 7 c 128,-1,12
 418 22 418 22 382 50 c 128,-1,13
 346 78 346 78 316 116 c 128,-1,14
 286 154 286 154 270 211 c 128,-1,15
 254 268 254 268 254 340 c 0,16,17
 254 406 254 406 268 484 c 2,18,-1
 404 1172 l 2,19,20
 406 1186 406 1186 406 1198 c 0,21,22
 406 1228 406 1228 384 1243 c 128,-1,23
 362 1258 362 1258 314 1262 c 2,24,-1
 262 1266 l 2,25,26
 246 1266 246 1266 250 1282 c 2,27,-1
 256 1320 l 1,28,-1
 262 1326 l 1,29,30
 446 1322 446 1322 510 1320 c 0,31,32
 578 1320 578 1320 762 1326 c 1,33,-1
 766 1320 l 1,34,-1
 758 1282 l 2,35,36
 754 1266 754 1266 740 1266 c 2,37,-1
 688 1262 l 2,38,39
 626 1258 626 1258 599 1236 c 128,-1,40
 572 1214 572 1214 562 1172 c 2,41,-1
 440 550 l 1,42,43
 416 410 416 410 416 350 c 0,44,45
 416 238 416 238 472 166 c 0,46,47
 554 64 554 64 684 64 c 0,48,49
 754 64 754 64 812 80 c 128,-1,50
 870 96 870 96 913 123 c 128,-1,51
 956 150 956 150 991 191 c 128,-1,52
 1026 232 1026 232 1050 273 c 128,-1,53
 1074 314 1074 314 1093 368 c 128,-1,54
 1112 422 1112 422 1123 466 c 128,-1,55
 1134 510 1134 510 1144 568 c 2,56,-1
 1262 1168 l 2,57,58
 1266 1184 1266 1184 1266 1196 c 0,59,60
 1266 1216 1266 1216 1256 1231 c 128,-1,61
 1246 1246 1246 1246 1226 1253 c 128,-1,62
 1206 1260 1206 1260 1174 1262 c 2,63,-1
 1120 1266 l 2,64,65
 1104 1266 1104 1266 1108 1282 c 2,66,-1
 1116 1320 l 1,67,-1
 1120 1326 l 1,68,69
 1304 1322 1304 1322 1336 1320 c 0,70,71
 1368 1320 1368 1320 1552 1326 c 1,72,-1
 1556 1320 l 1,73,-1
 1548 1282 l 2,74,75
 1544 1266 1544 1266 1530 1266 c 2,76,-1
 1478 1262 l 2,77,78
 1416 1258 1416 1258 1388 1235 c 128,-1,79
 1360 1212 1360 1212 1352 1168 c 2,80,-1
 1242 604 l 1,81,82
 1184 300 1184 300 1046 140 c 128,-1,83
 908 -20 908 -20 626 -20 c 0,9,10
EndSplineSet
Substitution2: "'c2sc' Capitals to Small Capitals lookup 12 subtable" ugrave.sc
AlternateSubs2: "'aalt' Access All Alternates lookup 2 subtable" ugrave.sc
Position2: "'cpsp' Capital Spacing lookup 0 subtable" dx=4 dy=0 dh=10 dv=0
EndChar

StartChar: Uacute
Encoding: 218 218 109
Width: 1298
GlyphClass: 2
Flags: W
LayerCount: 2
Fore
SplineSet
788 1426 m 0,0,1
 764 1426 764 1426 764 1448 c 128,-1,2
 764 1470 764 1470 806 1500 c 1,3,-1
 1096 1672 l 1,4,-1
 1228 1580 l 1,5,-1
 882 1450 l 1,6,7
 808 1426 808 1426 788 1426 c 0,0,1
626 -20 m 0,8,9
 586 -20 586 -20 546 -14 c 128,-1,10
 506 -8 506 -8 462 7 c 128,-1,11
 418 22 418 22 382 50 c 128,-1,12
 346 78 346 78 316 116 c 128,-1,13
 286 154 286 154 270 211 c 128,-1,14
 254 268 254 268 254 340 c 0,15,16
 254 406 254 406 268 484 c 2,17,-1
 404 1172 l 2,18,19
 406 1186 406 1186 406 1198 c 0,20,21
 406 1228 406 1228 384 1243 c 128,-1,22
 362 1258 362 1258 314 1262 c 2,23,-1
 262 1266 l 2,24,25
 246 1266 246 1266 250 1282 c 2,26,-1
 256 1320 l 1,27,-1
 262 1326 l 1,28,29
 446 1322 446 1322 510 1320 c 0,30,31
 578 1320 578 1320 762 1326 c 1,32,-1
 766 1320 l 1,33,-1
 758 1282 l 2,34,35
 754 1266 754 1266 740 1266 c 2,36,-1
 688 1262 l 2,37,38
 626 1258 626 1258 599 1236 c 128,-1,39
 572 1214 572 1214 562 1172 c 2,40,-1
 440 550 l 1,41,42
 416 410 416 410 416 350 c 0,43,44
 416 238 416 238 472 166 c 0,45,46
 554 64 554 64 684 64 c 0,47,48
 754 64 754 64 812 80 c 128,-1,49
 870 96 870 96 913 123 c 128,-1,50
 956 150 956 150 991 191 c 128,-1,51
 1026 232 1026 232 1050 273 c 128,-1,52
 1074 314 1074 314 1093 368 c 128,-1,53
 1112 422 1112 422 1123 466 c 128,-1,54
 1134 510 1134 510 1144 568 c 2,55,-1
 1262 1168 l 2,56,57
 1266 1184 1266 1184 1266 1196 c 0,58,59
 1266 1216 1266 1216 1256 1231 c 128,-1,60
 1246 1246 1246 1246 1226 1253 c 128,-1,61
 1206 1260 1206 1260 1174 1262 c 2,62,-1
 1120 1266 l 2,63,64
 1104 1266 1104 1266 1108 1282 c 2,65,-1
 1116 1320 l 1,66,-1
 1120 1326 l 1,67,68
 1304 1322 1304 1322 1336 1320 c 0,69,70
 1368 1320 1368 1320 1552 1326 c 1,71,-1
 1556 1320 l 1,72,-1
 1548 1282 l 2,73,74
 1544 1266 1544 1266 1530 1266 c 2,75,-1
 1478 1262 l 2,76,77
 1416 1258 1416 1258 1388 1235 c 128,-1,78
 1360 1212 1360 1212 1352 1168 c 2,79,-1
 1242 604 l 1,80,81
 1184 300 1184 300 1046 140 c 128,-1,82
 908 -20 908 -20 626 -20 c 0,8,9
EndSplineSet
Substitution2: "'c2sc' Capitals to Small Capitals lookup 12 subtable" uacute.sc
AlternateSubs2: "'aalt' Access All Alternates lookup 2 subtable" uacute.sc
Position2: "'cpsp' Capital Spacing lookup 0 subtable" dx=4 dy=0 dh=10 dv=0
EndChar

StartChar: Ucircumflex
Encoding: 219 219 110
Width: 1298
GlyphClass: 2
Flags: W
LayerCount: 2
Fore
SplineSet
1076 1660 m 1,0,1
 1138 1556 1138 1556 1236 1468 c 1,2,-1
 1194 1426 l 1,3,4
 1080 1486 1080 1486 1006 1552 c 1,5,6
 888 1476 888 1476 758 1426 c 1,7,-1
 740 1468 l 1,8,9
 860 1546 860 1546 988 1660 c 1,10,-1
 1076 1660 l 1,0,1
626 -20 m 0,11,12
 586 -20 586 -20 546 -14 c 128,-1,13
 506 -8 506 -8 462 7 c 128,-1,14
 418 22 418 22 382 50 c 128,-1,15
 346 78 346 78 316 116 c 128,-1,16
 286 154 286 154 270 211 c 128,-1,17
 254 268 254 268 254 340 c 0,18,19
 254 406 254 406 268 484 c 2,20,-1
 404 1172 l 2,21,22
 406 1186 406 1186 406 1198 c 0,23,24
 406 1228 406 1228 384 1243 c 128,-1,25
 362 1258 362 1258 314 1262 c 2,26,-1
 262 1266 l 2,27,28
 246 1266 246 1266 250 1282 c 2,29,-1
 256 1320 l 1,30,-1
 262 1326 l 1,31,32
 446 1322 446 1322 510 1320 c 0,33,34
 578 1320 578 1320 762 1326 c 1,35,-1
 766 1320 l 1,36,-1
 758 1282 l 2,37,38
 754 1266 754 1266 740 1266 c 2,39,-1
 688 1262 l 2,40,41
 626 1258 626 1258 599 1236 c 128,-1,42
 572 1214 572 1214 562 1172 c 2,43,-1
 440 550 l 1,44,45
 416 410 416 410 416 350 c 0,46,47
 416 238 416 238 472 166 c 0,48,49
 554 64 554 64 684 64 c 0,50,51
 754 64 754 64 812 80 c 128,-1,52
 870 96 870 96 913 123 c 128,-1,53
 956 150 956 150 991 191 c 128,-1,54
 1026 232 1026 232 1050 273 c 128,-1,55
 1074 314 1074 314 1093 368 c 128,-1,56
 1112 422 1112 422 1123 466 c 128,-1,57
 1134 510 1134 510 1144 568 c 2,58,-1
 1262 1168 l 2,59,60
 1266 1184 1266 1184 1266 1196 c 0,61,62
 1266 1216 1266 1216 1256 1231 c 128,-1,63
 1246 1246 1246 1246 1226 1253 c 128,-1,64
 1206 1260 1206 1260 1174 1262 c 2,65,-1
 1120 1266 l 2,66,67
 1104 1266 1104 1266 1108 1282 c 2,68,-1
 1116 1320 l 1,69,-1
 1120 1326 l 1,70,71
 1304 1322 1304 1322 1336 1320 c 0,72,73
 1368 1320 1368 1320 1552 1326 c 1,74,-1
 1556 1320 l 1,75,-1
 1548 1282 l 2,76,77
 1544 1266 1544 1266 1530 1266 c 2,78,-1
 1478 1262 l 2,79,80
 1416 1258 1416 1258 1388 1235 c 128,-1,81
 1360 1212 1360 1212 1352 1168 c 2,82,-1
 1242 604 l 1,83,84
 1184 300 1184 300 1046 140 c 128,-1,85
 908 -20 908 -20 626 -20 c 0,11,12
EndSplineSet
Substitution2: "'c2sc' Capitals to Small Capitals lookup 12 subtable" ucircumflex.sc
AlternateSubs2: "'aalt' Access All Alternates lookup 2 subtable" ucircumflex.sc
Position2: "'cpsp' Capital Spacing lookup 0 subtable" dx=4 dy=0 dh=10 dv=0
EndChar

StartChar: Udieresis
Encoding: 220 220 111
Width: 1298
GlyphClass: 2
Flags: W
LayerCount: 2
Fore
SplineSet
624 -20 m 0,0,1
 566 -20 566 -20 512 -8 c 128,-1,2
 458 4 458 4 400 37 c 128,-1,3
 342 70 342 70 308 126 c 128,-1,4
 274 182 274 182 257 270 c 128,-1,5
 240 358 240 358 268 484 c 1,6,-1
 400 1154 l 2,7,8
 410 1210 410 1210 375 1235 c 128,-1,9
 340 1260 340 1260 282 1266 c 0,10,11
 264 1266 264 1266 268 1284 c 2,12,-1
 276 1320 l 1,13,-1
 280 1326 l 1,14,15
 424 1322 424 1322 510 1320 c 0,16,17
 576 1320 576 1320 674 1326 c 0,18,19
 696 1326 696 1326 690 1294 c 0,20,21
 686 1272 686 1272 660 1266 c 0,22,23
 572 1244 572 1244 552 1136 c 1,24,-1
 438 550 l 2,25,26
 422 460 422 460 416 411 c 128,-1,27
 410 362 410 362 421 290 c 128,-1,28
 432 218 432 218 472 166 c 0,29,30
 550 64 550 64 684 64 c 0,31,32
 800 64 800 64 886 108 c 128,-1,33
 972 152 972 152 1023 233 c 128,-1,34
 1074 314 1074 314 1099 389 c 128,-1,35
 1124 464 1124 464 1144 568 c 2,36,-1
 1250 1106 l 2,37,38
 1276 1250 1276 1250 1198 1266 c 0,39,40
 1168 1272 1168 1272 1174 1292 c 1,41,42
 1178 1324 1178 1324 1210 1326 c 0,43,44
 1308 1322 1308 1322 1336 1320 c 0,45,46
 1388 1320 1388 1320 1534 1326 c 1,47,-1
 1536 1320 l 1,48,-1
 1530 1284 l 2,49,50
 1526 1268 1526 1268 1476 1266 c 0,51,52
 1370 1258 1370 1258 1344 1132 c 1,53,-1
 1242 604 l 2,54,55
 1214 456 1214 456 1172 351 c 128,-1,56
 1130 246 1130 246 1060 158 c 128,-1,57
 990 70 990 70 881 25 c 128,-1,58
 772 -20 772 -20 624 -20 c 0,0,1
708 1448 m 128,-1,60
 708 1486 708 1486 737 1515 c 128,-1,61
 766 1544 766 1544 805 1544 c 128,-1,62
 844 1544 844 1544 873 1515 c 128,-1,63
 902 1486 902 1486 902 1448 c 128,-1,64
 902 1410 902 1410 873 1381 c 128,-1,65
 844 1352 844 1352 805 1352 c 128,-1,66
 766 1352 766 1352 737 1381 c 128,-1,59
 708 1410 708 1410 708 1448 c 128,-1,60
1004 1448 m 128,-1,68
 1004 1486 1004 1486 1032 1515 c 128,-1,69
 1060 1544 1060 1544 1099 1544 c 128,-1,70
 1138 1544 1138 1544 1167 1515 c 128,-1,71
 1196 1486 1196 1486 1196 1448 c 128,-1,72
 1196 1410 1196 1410 1167 1381 c 128,-1,73
 1138 1352 1138 1352 1099 1352 c 128,-1,74
 1060 1352 1060 1352 1032 1381 c 128,-1,67
 1004 1410 1004 1410 1004 1448 c 128,-1,68
EndSplineSet
Substitution2: "'ss01' Style Set 1 lookup 23 subtable" Udieresis.alt
Substitution2: "'c2sc' Capitals to Small Capitals lookup 12 subtable" udieresis.sc
AlternateSubs2: "'aalt' Access All Alternates lookup 2 subtable" udieresis.sc
Position2: "'cpsp' Capital Spacing lookup 0 subtable" dx=4 dy=0 dh=10 dv=0
EndChar

StartChar: agrave
Encoding: 224 224 112
Width: 994
GlyphClass: 2
Flags: W
LayerCount: 2
Fore
SplineSet
764 1374 m 1,0,-1
 854 1116 l 2,1,2
 862 1092 862 1092 858 1068 c 0,3,4
 856 1064 856 1064 851 1057 c 128,-1,5
 846 1050 846 1050 838 1047 c 128,-1,6
 830 1044 830 1044 822 1044 c 0,7,8
 808 1044 808 1044 770 1086 c 2,9,-1
 582 1308 l 1,10,-1
 592 1332 l 1,11,12
 664 1380 664 1380 734 1378 c 0,13,14
 748 1378 748 1378 764 1374 c 1,0,-1
840 886 m 1,15,16
 854 882 854 882 873 881 c 128,-1,17
 892 880 892 880 908 880 c 128,-1,18
 924 880 924 880 947 881 c 128,-1,19
 970 882 970 882 984 882 c 1,20,-1
 842 246 l 2,21,22
 822 148 822 148 822 132 c 256,23,24
 822 116 822 116 830 109 c 128,-1,25
 838 102 838 102 846 102 c 0,26,27
 880 102 880 102 960 210 c 1,28,29
 986 210 986 210 1008 178 c 1,30,31
 918 -20 918 -20 746 -20 c 0,32,33
 662 -20 662 -20 662 72 c 0,34,35
 662 118 662 118 682 184 c 2,36,-1
 708 270 l 1,37,-1
 704 274 l 1,38,39
 506 -20 506 -20 358 -20 c 0,40,41
 160 -20 160 -20 160 256 c 0,42,43
 160 372 160 372 210 491 c 128,-1,44
 260 610 260 610 336 698 c 128,-1,45
 412 786 412 786 503 843 c 128,-1,46
 594 900 594 900 676 900 c 0,47,48
 730 898 730 898 840 886 c 1,15,16
738 448 m 1,49,50
 760 506 760 506 778 593 c 128,-1,51
 796 680 796 680 802 740 c 2,52,-1
 808 796 l 1,53,54
 746 834 746 834 682 836 c 0,55,56
 592 836 592 836 507 744 c 128,-1,57
 422 652 422 652 373 526 c 128,-1,58
 324 400 324 400 324 288 c 0,59,60
 324 92 324 92 414 92 c 0,61,62
 464 92 464 92 563 201 c 128,-1,63
 662 310 662 310 738 448 c 1,49,50
EndSplineSet
Substitution2: "'smcp' Lowercase to Small Capitals lookup 6 subtable" agrave.sc
AlternateSubs2: "'aalt' Access All Alternates lookup 2 subtable" agrave.sc
EndChar

StartChar: aacute
Encoding: 225 225 113
Width: 994
GlyphClass: 2
Flags: W
LayerCount: 2
Fore
SplineSet
754 1364 m 1,0,1
 766 1368 766 1368 782 1368 c 0,2,3
 846 1368 846 1368 886 1320 c 1,4,-1
 886 1298 l 1,5,-1
 606 1076 l 2,6,7
 558 1038 558 1038 536 1036 c 0,8,9
 526 1036 526 1036 519 1044 c 128,-1,10
 512 1052 512 1052 514 1062 c 0,11,12
 518 1082 518 1082 548 1120 c 2,13,-1
 754 1364 l 1,0,1
840 886 m 1,14,15
 854 882 854 882 873 881 c 128,-1,16
 892 880 892 880 908 880 c 128,-1,17
 924 880 924 880 947 881 c 128,-1,18
 970 882 970 882 984 882 c 1,19,-1
 842 246 l 2,20,21
 822 148 822 148 822 132 c 256,22,23
 822 116 822 116 830 109 c 128,-1,24
 838 102 838 102 846 102 c 0,25,26
 880 102 880 102 960 210 c 1,27,28
 986 210 986 210 1008 178 c 1,29,30
 918 -20 918 -20 746 -20 c 0,31,32
 662 -20 662 -20 662 72 c 0,33,34
 662 118 662 118 682 184 c 2,35,-1
 708 270 l 1,36,-1
 704 274 l 1,37,38
 506 -20 506 -20 358 -20 c 0,39,40
 160 -20 160 -20 160 256 c 0,41,42
 160 372 160 372 210 491 c 128,-1,43
 260 610 260 610 336 698 c 128,-1,44
 412 786 412 786 503 843 c 128,-1,45
 594 900 594 900 676 900 c 0,46,47
 730 898 730 898 840 886 c 1,14,15
738 448 m 1,48,49
 760 506 760 506 778 593 c 128,-1,50
 796 680 796 680 802 740 c 2,51,-1
 808 796 l 1,52,53
 746 834 746 834 682 836 c 0,54,55
 592 836 592 836 507 744 c 128,-1,56
 422 652 422 652 373 526 c 128,-1,57
 324 400 324 400 324 288 c 0,58,59
 324 92 324 92 414 92 c 0,60,61
 464 92 464 92 563 201 c 128,-1,62
 662 310 662 310 738 448 c 1,48,49
EndSplineSet
Substitution2: "'smcp' Lowercase to Small Capitals lookup 6 subtable" aacute.sc
AlternateSubs2: "'aalt' Access All Alternates lookup 2 subtable" aacute.sc
EndChar

StartChar: acircumflex
Encoding: 226 226 114
Width: 994
GlyphClass: 2
Flags: W
LayerCount: 2
Fore
SplineSet
782 1338 m 1,0,1
 828 1230 828 1230 936 1074 c 1,2,-1
 886 1044 l 1,3,4
 764 1150 764 1150 706 1228 c 1,5,6
 598 1136 598 1136 450 1044 c 1,7,-1
 416 1074 l 1,8,9
 596 1238 596 1238 680 1338 c 1,10,-1
 782 1338 l 1,0,1
840 886 m 1,11,12
 854 882 854 882 873 881 c 128,-1,13
 892 880 892 880 908 880 c 128,-1,14
 924 880 924 880 947 881 c 128,-1,15
 970 882 970 882 984 882 c 1,16,-1
 842 246 l 2,17,18
 822 148 822 148 822 132 c 256,19,20
 822 116 822 116 830 109 c 128,-1,21
 838 102 838 102 846 102 c 0,22,23
 880 102 880 102 960 210 c 1,24,25
 986 210 986 210 1008 178 c 1,26,27
 918 -20 918 -20 746 -20 c 0,28,29
 662 -20 662 -20 662 72 c 0,30,31
 662 118 662 118 682 184 c 2,32,-1
 708 270 l 1,33,-1
 704 274 l 1,34,35
 506 -20 506 -20 358 -20 c 0,36,37
 160 -20 160 -20 160 256 c 0,38,39
 160 372 160 372 210 491 c 128,-1,40
 260 610 260 610 336 698 c 128,-1,41
 412 786 412 786 503 843 c 128,-1,42
 594 900 594 900 676 900 c 0,43,44
 730 898 730 898 840 886 c 1,11,12
738 448 m 1,45,46
 760 506 760 506 778 593 c 128,-1,47
 796 680 796 680 802 740 c 2,48,-1
 808 796 l 1,49,50
 746 834 746 834 682 836 c 0,51,52
 592 836 592 836 507 744 c 128,-1,53
 422 652 422 652 373 526 c 128,-1,54
 324 400 324 400 324 288 c 0,55,56
 324 92 324 92 414 92 c 0,57,58
 464 92 464 92 563 201 c 128,-1,59
 662 310 662 310 738 448 c 1,45,46
EndSplineSet
Substitution2: "'smcp' Lowercase to Small Capitals lookup 6 subtable" acircumflex.sc
AlternateSubs2: "'aalt' Access All Alternates lookup 2 subtable" acircumflex.sc
EndChar

StartChar: atilde
Encoding: 227 227 115
Width: 994
GlyphClass: 2
Flags: W
LayerCount: 2
Fore
SplineSet
812 1158 m 0,0,1
 828 1158 828 1158 842 1162 c 128,-1,2
 856 1166 856 1166 871 1178 c 128,-1,3
 886 1190 886 1190 902 1210 c 128,-1,4
 918 1230 918 1230 934 1264 c 1,5,-1
 980 1252 l 1,6,7
 906 1068 906 1068 766 1068 c 0,8,9
 714 1068 714 1068 646 1120 c 1,10,11
 582 1166 582 1166 544 1166 c 0,12,13
 504 1166 504 1166 477 1142 c 128,-1,14
 450 1118 450 1118 424 1068 c 1,15,-1
 376 1078 l 1,16,17
 402 1140 402 1140 431 1179 c 128,-1,18
 460 1218 460 1218 497 1239 c 128,-1,19
 534 1260 534 1260 578 1260 c 0,20,21
 644 1260 644 1260 712 1202 c 1,22,23
 764 1158 764 1158 812 1158 c 0,0,1
840 886 m 1,24,25
 854 882 854 882 873 881 c 128,-1,26
 892 880 892 880 908 880 c 128,-1,27
 924 880 924 880 947 881 c 128,-1,28
 970 882 970 882 984 882 c 1,29,-1
 842 246 l 2,30,31
 822 148 822 148 822 132 c 256,32,33
 822 116 822 116 830 109 c 128,-1,34
 838 102 838 102 846 102 c 0,35,36
 880 102 880 102 960 210 c 1,37,38
 986 210 986 210 1008 178 c 1,39,40
 918 -20 918 -20 746 -20 c 0,41,42
 662 -20 662 -20 662 72 c 0,43,44
 662 118 662 118 682 184 c 2,45,-1
 708 270 l 1,46,-1
 704 274 l 1,47,48
 506 -20 506 -20 358 -20 c 0,49,50
 160 -20 160 -20 160 256 c 0,51,52
 160 372 160 372 210 491 c 128,-1,53
 260 610 260 610 336 698 c 128,-1,54
 412 786 412 786 503 843 c 128,-1,55
 594 900 594 900 676 900 c 0,56,57
 730 898 730 898 840 886 c 1,24,25
738 448 m 1,58,59
 760 506 760 506 778 593 c 128,-1,60
 796 680 796 680 802 740 c 2,61,-1
 808 796 l 1,62,63
 746 834 746 834 682 836 c 0,64,65
 592 836 592 836 507 744 c 128,-1,66
 422 652 422 652 373 526 c 128,-1,67
 324 400 324 400 324 288 c 0,68,69
 324 92 324 92 414 92 c 0,70,71
 464 92 464 92 563 201 c 128,-1,72
 662 310 662 310 738 448 c 1,58,59
EndSplineSet
Substitution2: "'smcp' Lowercase to Small Capitals lookup 6 subtable" atilde.sc
AlternateSubs2: "'aalt' Access All Alternates lookup 2 subtable" atilde.sc
EndChar

StartChar: adieresis
Encoding: 228 228 116
Width: 994
GlyphClass: 2
Flags: W
LayerCount: 2
Fore
SplineSet
468 1173 m 128,-1,1
 468 1212 468 1212 496 1240 c 128,-1,2
 524 1268 524 1268 563 1268 c 128,-1,3
 602 1268 602 1268 630 1240 c 128,-1,4
 658 1212 658 1212 658 1173 c 128,-1,5
 658 1134 658 1134 630 1107 c 128,-1,6
 602 1080 602 1080 563 1080 c 128,-1,7
 524 1080 524 1080 496 1107 c 128,-1,0
 468 1134 468 1134 468 1173 c 128,-1,1
796 1173 m 128,-1,9
 796 1212 796 1212 824 1240 c 128,-1,10
 852 1268 852 1268 891 1268 c 128,-1,11
 930 1268 930 1268 958 1240 c 128,-1,12
 986 1212 986 1212 986 1173 c 128,-1,13
 986 1134 986 1134 958 1107 c 128,-1,14
 930 1080 930 1080 891 1080 c 128,-1,15
 852 1080 852 1080 824 1107 c 128,-1,8
 796 1134 796 1134 796 1173 c 128,-1,9
840 886 m 1,16,17
 856 882 856 882 984 882 c 1,18,-1
 842 246 l 2,19,20
 822 148 822 148 822 132 c 0,21,22
 822 104 822 104 846 102 c 0,23,24
 880 102 880 102 960 210 c 1,25,26
 986 210 986 210 1008 178 c 1,27,28
 918 -20 918 -20 746 -20 c 0,29,30
 662 -20 662 -20 662 72 c 0,31,32
 662 118 662 118 682 184 c 2,33,-1
 708 270 l 1,34,-1
 704 274 l 1,35,36
 506 -20 506 -20 358 -20 c 0,37,38
 160 -20 160 -20 160 256 c 0,39,40
 160 490 160 490 333 695 c 128,-1,41
 506 900 506 900 676 900 c 0,42,43
 730 898 730 898 840 886 c 1,16,17
738 448 m 1,44,45
 760 506 760 506 778 593 c 128,-1,46
 796 680 796 680 802 738 c 2,47,-1
 808 796 l 1,48,49
 746 834 746 834 682 836 c 0,50,51
 548 836 548 836 436 649 c 128,-1,52
 324 462 324 462 324 288 c 0,53,54
 324 92 324 92 414 92 c 0,55,56
 464 92 464 92 563 201 c 128,-1,57
 662 310 662 310 738 448 c 1,44,45
EndSplineSet
Substitution2: "'smcp' Lowercase to Small Capitals lookup 6 subtable" adieresis.sc
AlternateSubs2: "'aalt' Access All Alternates lookup 2 subtable" adieresis.sc
EndChar

StartChar: aring
Encoding: 229 229 117
Width: 994
GlyphClass: 2
Flags: W
LayerCount: 2
Fore
SplineSet
722 1330 m 0,0,1
 676 1330 676 1330 642 1296 c 128,-1,2
 608 1262 608 1262 598 1214 c 0,3,4
 588 1168 588 1168 609 1134 c 128,-1,5
 630 1100 630 1100 676 1100 c 128,-1,6
 722 1100 722 1100 757 1135 c 128,-1,7
 792 1170 792 1170 802 1214 c 0,8,9
 808 1238 808 1238 804 1259 c 128,-1,10
 800 1280 800 1280 790 1295 c 128,-1,11
 780 1310 780 1310 762 1320 c 128,-1,12
 744 1330 744 1330 722 1330 c 0,0,1
522 1214 m 128,-1,14
 536 1284 536 1284 600 1334 c 128,-1,15
 664 1384 664 1384 736 1384 c 256,16,17
 808 1384 808 1384 850 1335 c 128,-1,18
 892 1286 892 1286 878 1214 c 0,19,20
 864 1144 864 1144 802 1094 c 128,-1,21
 740 1044 740 1044 666 1044 c 0,22,23
 594 1044 594 1044 551 1094 c 128,-1,13
 508 1144 508 1144 522 1214 c 128,-1,14
840 886 m 1,24,25
 854 882 854 882 873 881 c 128,-1,26
 892 880 892 880 908 880 c 128,-1,27
 924 880 924 880 947 881 c 128,-1,28
 970 882 970 882 984 882 c 1,29,-1
 842 246 l 2,30,31
 822 148 822 148 822 132 c 256,32,33
 822 116 822 116 830 109 c 128,-1,34
 838 102 838 102 846 102 c 0,35,36
 880 102 880 102 960 210 c 1,37,38
 986 210 986 210 1008 178 c 1,39,40
 918 -20 918 -20 746 -20 c 0,41,42
 662 -20 662 -20 662 72 c 0,43,44
 662 118 662 118 682 184 c 2,45,-1
 708 270 l 1,46,-1
 704 274 l 1,47,48
 506 -20 506 -20 358 -20 c 0,49,50
 160 -20 160 -20 160 256 c 0,51,52
 160 372 160 372 210 491 c 128,-1,53
 260 610 260 610 336 698 c 128,-1,54
 412 786 412 786 503 843 c 128,-1,55
 594 900 594 900 676 900 c 0,56,57
 730 898 730 898 840 886 c 1,24,25
738 448 m 1,58,59
 760 506 760 506 778 593 c 128,-1,60
 796 680 796 680 802 740 c 2,61,-1
 808 796 l 1,62,63
 746 834 746 834 682 836 c 0,64,65
 592 836 592 836 507 744 c 128,-1,66
 422 652 422 652 373 526 c 128,-1,67
 324 400 324 400 324 288 c 0,68,69
 324 92 324 92 414 92 c 0,70,71
 464 92 464 92 563 201 c 128,-1,72
 662 310 662 310 738 448 c 1,58,59
EndSplineSet
Substitution2: "'smcp' Lowercase to Small Capitals lookup 6 subtable" aring.sc
AlternateSubs2: "'aalt' Access All Alternates lookup 2 subtable" aring.sc
EndChar

StartChar: ae
Encoding: 230 230 118
Width: 1406
GlyphClass: 2
Flags: W
AnchorPoint: "Anchor-6" 670 -224 basechar 0
AnchorPoint: "Anchor-4" 1236 62 basechar 0
AnchorPoint: "Anchor-2" 680 1318 basechar 0
LayerCount: 2
Fore
SplineSet
882 518 m 1,0,1
 964 522 964 522 1018 527 c 128,-1,2
 1072 532 1072 532 1138 546 c 128,-1,3
 1204 560 1204 560 1242 579 c 128,-1,4
 1280 598 1280 598 1307 632 c 128,-1,5
 1334 666 1334 666 1334 710 c 0,6,7
 1334 758 1334 758 1296 794 c 128,-1,8
 1258 830 1258 830 1194 830 c 0,9,10
 1094 830 1094 830 1010 742 c 128,-1,11
 926 654 926 654 882 518 c 1,0,1
712 440 m 1,12,13
 676 438 676 438 640 433 c 128,-1,14
 604 428 604 428 550 417 c 128,-1,15
 496 406 496 406 451 386 c 128,-1,16
 406 366 406 366 364 340 c 128,-1,17
 322 314 322 314 298 273 c 128,-1,18
 274 232 274 232 274 182 c 0,19,20
 274 66 274 66 426 66 c 0,21,22
 560 66 560 66 638 206 c 0,23,24
 668 262 668 262 712 440 c 1,12,13
754 684 m 0,25,26
 754 732 754 732 738 764 c 128,-1,27
 722 796 722 796 700 811 c 128,-1,28
 678 826 678 826 657 832 c 128,-1,29
 636 838 636 838 618 838 c 0,30,31
 578 838 578 838 537 829 c 128,-1,32
 496 820 496 820 458 790 c 128,-1,33
 420 760 420 760 420 714 c 0,34,35
 420 708 420 708 422 700 c 128,-1,36
 424 692 424 692 424 688 c 0,37,38
 424 650 424 650 394 624 c 128,-1,39
 364 598 364 598 324 598 c 0,40,41
 290 598 290 598 274 615 c 128,-1,42
 258 632 258 632 258 660 c 0,43,44
 258 756 258 756 378 828 c 128,-1,45
 498 900 498 900 638 900 c 0,46,47
 840 900 840 900 888 756 c 1,48,49
 1026 900 1026 900 1212 900 c 0,50,51
 1356 900 1356 900 1424 842 c 128,-1,52
 1492 784 1492 784 1492 716 c 0,53,54
 1492 662 1492 662 1468 622 c 128,-1,55
 1444 582 1444 582 1396 554 c 128,-1,56
 1348 526 1348 526 1292 507 c 128,-1,57
 1236 488 1236 488 1159 475 c 128,-1,58
 1082 462 1082 462 1015 456 c 128,-1,59
 948 450 948 450 862 446 c 1,60,61
 850 388 850 388 850 334 c 0,62,63
 850 218 850 218 906 149 c 128,-1,64
 962 80 962 80 1058 80 c 0,65,66
 1138 80 1138 80 1199 108 c 128,-1,67
 1260 136 1260 136 1324 192 c 1,68,-1
 1352 172 l 1,69,70
 1286 86 1286 86 1195 33 c 128,-1,71
 1104 -20 1104 -20 1006 -20 c 0,72,73
 808 -20 808 -20 722 120 c 1,74,75
 684 80 684 80 631 47 c 128,-1,76
 578 14 578 14 518 -3 c 128,-1,77
 458 -20 458 -20 404 -20 c 0,78,79
 266 -20 266 -20 194 30 c 128,-1,80
 122 80 122 80 122 166 c 0,81,82
 122 234 122 234 150 287 c 128,-1,83
 178 340 178 340 228 376 c 128,-1,84
 278 412 278 412 335 436 c 128,-1,85
 392 460 392 460 466 476 c 128,-1,86
 540 492 540 492 600 500 c 128,-1,87
 660 508 660 508 730 512 c 1,88,89
 754 628 754 628 754 684 c 0,25,26
EndSplineSet
Substitution2: "'smcp' Lowercase to Small Capitals lookup 6 subtable" ae.sc
AlternateSubs2: "'aalt' Access All Alternates lookup 2 subtable" ae.sc ae.alt
EndChar

StartChar: egrave
Encoding: 232 232 119
Width: 820
GlyphClass: 2
Flags: W
LayerCount: 2
Fore
SplineSet
688 1374 m 1,0,-1
 778 1116 l 2,1,2
 786 1092 786 1092 782 1068 c 0,3,4
 780 1064 780 1064 775 1057 c 128,-1,5
 770 1050 770 1050 762 1047 c 128,-1,6
 754 1044 754 1044 746 1044 c 0,7,8
 732 1044 732 1044 694 1086 c 1,9,-1
 508 1308 l 1,10,-1
 516 1332 l 1,11,12
 588 1380 588 1380 660 1378 c 0,13,14
 672 1378 672 1378 688 1374 c 1,0,-1
728 758 m 0,15,16
 728 780 728 780 722 794 c 128,-1,17
 716 808 716 808 704 818 c 128,-1,18
 692 828 692 828 674 832 c 128,-1,19
 656 836 656 836 626 836 c 0,20,21
 442 836 442 836 356 486 c 1,22,23
 422 496 422 496 481 512 c 128,-1,24
 540 528 540 528 599 559 c 128,-1,25
 658 590 658 590 693 641 c 128,-1,26
 728 692 728 692 728 758 c 0,15,16
342 408 m 1,27,28
 340 392 340 392 340 338 c 0,29,30
 340 206 340 206 380 154 c 128,-1,31
 420 102 420 102 496 102 c 0,32,33
 550 102 550 102 584 111 c 128,-1,34
 618 120 618 120 658 150 c 128,-1,35
 698 180 698 180 758 240 c 1,36,37
 790 240 790 240 804 206 c 1,38,39
 628 -22 628 -22 422 -20 c 0,40,41
 300 -20 300 -20 235 67 c 128,-1,42
 170 154 170 154 170 290 c 0,43,44
 170 358 170 358 183 427 c 128,-1,45
 196 496 196 496 221 564 c 128,-1,46
 246 632 246 632 288 692 c 128,-1,47
 330 752 330 752 384 799 c 128,-1,48
 438 846 438 846 513 873 c 128,-1,49
 588 900 588 900 674 900 c 0,50,51
 772 900 772 900 820 849 c 128,-1,52
 868 798 868 798 868 748 c 0,53,54
 868 722 868 722 867 709 c 128,-1,55
 866 696 866 696 857 665 c 128,-1,56
 848 634 848 634 830 613 c 128,-1,57
 812 592 812 592 774 561 c 128,-1,58
 736 530 736 530 681 507 c 128,-1,59
 626 484 626 484 539 457 c 128,-1,60
 452 430 452 430 342 408 c 1,27,28
EndSplineSet
Substitution2: "'smcp' Lowercase to Small Capitals lookup 6 subtable" egrave.sc
AlternateSubs2: "'aalt' Access All Alternates lookup 2 subtable" egrave.sc
EndChar

